<svg xmlns="http://www.w3.org/2000/svg" width="205" height="120" fill="none" xmlns:v="https://vecta.io/nano"><rect x=".75" y=".75" width="203.5" height="118.5" rx="4.25" fill="#fff"/><rect x=".75" y=".75" width="203.5" height="118.5" rx="4.25" stroke="#718491" stroke-width="1.5"/><mask id="A" fill="#fff"><path d="M8.54 95.405a1.24 1.24 0 0 1 1.239-1.239h185.439a1.24 1.24 0 0 1 1.239 1.239v14.607a1.24 1.24 0 0 1-1.239 1.238H9.779a1.24 1.24 0 0 1-1.239-1.238V95.405z"/></mask><path d="M8.54 95.405a1.24 1.24 0 0 1 1.239-1.239h185.439a1.24 1.24 0 0 1 1.239 1.239v14.607a1.24 1.24 0 0 1-1.239 1.238H9.779a1.24 1.24 0 0 1-1.239-1.238V95.405z" fill="#58707f"/><path d="M8.54 94.167h187.917H8.54zm187.917 15.845a3.8 3.8 0 0 1-3.801 3.801H9.779a3.8 3.8 0 0 1-3.801-3.801l5.125-1.324h184.116 1.239v1.324zM9.779 113.813a3.8 3.8 0 0 1-3.801-3.801V97.968a3.8 3.8 0 0 1 3.801-3.801h1.324v1.239 13.283l-1.324 5.125zm186.678-19.646v17.083-17.083z" fill="#32383c" mask="url(#A)"/><g fill="#fff"><path d="M23.11 101.552v1.577h-7.256v-1.577h7.256zm-2.777-2.966v7.706h-1.694v-7.706h1.694z"/><rect x="34.165" y="99.77" width="129.833" height="3.417" rx="1.708"/></g><mask id="B" fill="#fff"><path d="M8.54 71.489a1.24 1.24 0 0 1 1.239-1.239h185.439a1.24 1.24 0 0 1 1.239 1.239v14.606a1.24 1.24 0 0 1-1.239 1.238H9.779a1.24 1.24 0 0 1-1.239-1.238V71.489z"/></mask><path d="M8.54 71.489a1.24 1.24 0 0 1 1.239-1.239h185.439a1.24 1.24 0 0 1 1.239 1.239v14.606a1.24 1.24 0 0 1-1.239 1.238H9.779a1.24 1.24 0 0 1-1.239-1.238V71.489z" fill="#58707f"/><path d="M8.54 70.25h187.917H8.54zm187.917 15.845a3.8 3.8 0 0 1-3.801 3.801H9.779a3.8 3.8 0 0 1-3.801-3.801l5.125-1.324h184.116 1.239v1.324zM9.779 89.896a3.8 3.8 0 0 1-3.801-3.801V74.051a3.8 3.8 0 0 1 3.801-3.801h1.324v1.239 13.282l-1.324 5.125zM196.457 70.25v17.083V70.25z" fill="#32383c" mask="url(#B)"/><g fill="#fff"><path d="M23.11 77.635v1.578h-7.256v-1.578h7.256zm-2.777-2.966v7.706h-1.694v-7.706h1.694z"/><rect x="34.165" y="75.853" width="129.833" height="3.417" rx="1.708"/><rect x="9.04" y="9.25" width="186.917" height="53.667" rx=".741" stroke="#58707f"/></g><mask id="C" fill="#fff"><path d="M8.54 9.989A1.24 1.24 0 0 1 9.779 8.75h185.439a1.24 1.24 0 0 1 1.239 1.239v15.845H8.54V9.989z"/></mask><path d="M8.54 9.989A1.24 1.24 0 0 1 9.779 8.75h185.439a1.24 1.24 0 0 1 1.239 1.239v15.845H8.54V9.989z" fill="#58707f"/><path d="M8.54 8.75h187.917H8.54zm187.917 19.646H5.978l5.125-5.125h185.355v5.125zm-190.479 0V12.551A3.8 3.8 0 0 1 9.779 8.75h1.324v1.239 13.282l-5.125 5.125zM196.457 8.75v17.083V8.75z" fill="#32383c" mask="url(#C)"/><g fill="#fff"><path d="M23.916 15.208v1.708h-8.542v-1.708h8.542z"/><rect x="34.165" y="14.353" width="129.833" height="3.417" rx="1.708"/></g><g fill="#9ea9b2"><rect x="15.374" y="32.667" width="170.833" height="2.135" rx="1.068"/><rect x="15.374" y="39.927" width="170.833" height="2.135" rx="1.068"/><rect x="15.374" y="47.188" width="170.833" height="2.135" rx="1.068"/><rect x="15.374" y="54.448" width="102.5" height="2.135" rx="1.068"/></g></svg>