<svg xmlns="http://www.w3.org/2000/svg" width="205" height="120" fill="none" xmlns:v="https://vecta.io/nano"><rect x=".75" y=".75" width="203.5" height="118.5" rx="4.25" fill="#fff"/><rect x=".75" y=".75" width="203.5" height="118.5" rx="4.25" stroke="#718491" stroke-width="1.5"/><rect x="8.54" y="93.981" width="187.917" height="17.083" rx="1.708" fill="#58707f"/><rect x="34.484" y="100.814" width="129.833" height="3.417" rx="1.708" fill="#fff"/><rect x="12.707" y="96.543" width="13.667" height="11.958" rx="1.708" fill="#32383c"/><path d="M23.005 102.596v1.577h-7.256v-1.577h7.256zm-2.777-2.967v7.707h-1.694V99.63h1.694z" fill="#fff"/><rect x="8.54" y="70.064" width="187.917" height="17.083" rx="1.708" fill="#58707f"/><rect x="34.484" y="76.898" width="129.833" height="3.417" rx="1.708" fill="#fff"/><rect x="12.707" y="72.627" width="13.667" height="11.958" rx="1.708" fill="#32383c"/><g fill="#fff"><path d="M23.005 78.679v1.578h-7.256v-1.578h7.256zm-2.777-2.966v7.707h-1.694v-7.707h1.694z"/><rect x="9.04" y="9.44" width="186.917" height="53.667" rx=".741" stroke="#58707f"/></g><path d="M9.781 9.56h185.435a.62.62 0 0 1 .62.62v15.222H9.16V10.181a.62.62 0 0 1 .62-.62z" fill="#58707f" stroke="#58707f" stroke-width="1.241"/><rect x="12.707" y="11.502" width="13.667" height="11.958" rx="1.708" fill="#32383c"/><g fill="#fff"><path d="M23.811 16.627v1.708H15.27v-1.708h8.542z"/><rect x="34.484" y="15.773" width="129.833" height="3.417" rx="1.708"/></g><g fill="#9ea9b2"><rect x="17.082" y="32.857" width="170.833" height="2.135" rx="1.068"/><rect x="17.082" y="40.117" width="170.833" height="2.135" rx="1.068"/><rect x="17.082" y="47.377" width="170.833" height="2.135" rx="1.068"/><rect x="17.082" y="54.638" width="102.5" height="2.135" rx="1.068"/></g></svg>