<svg xmlns="http://www.w3.org/2000/svg" width="205" height="120" fill="none" xmlns:v="https://vecta.io/nano"><rect x=".75" y=".75" width="203.5" height="118.5" rx="4.25" fill="#fff"/><rect x=".75" y=".75" width="203.5" height="118.5" rx="4.25" stroke="#718491" stroke-width="1.5"/><rect x="8.54" y="94.167" width="187.917" height="17.083" rx="1.241" fill="#58707f"/><use href="#B" fill="#32383c"/><g fill="#fff"><use href="#C"/><rect x="29.041" y="102.708" width="129.833" height="3.417" rx="1.708"/></g><rect x="8.54" y="70.25" width="187.917" height="17.083" rx="1.241" fill="#58707f"/><use href="#B" y="-23.917" fill="#32383c"/><g fill="#fff"><use href="#C" y="-23.917"/><rect x="29.041" y="78.792" width="129.833" height="3.417" rx="1.708"/><rect x="9.04" y="9.25" width="186.917" height="53.667" rx=".741" stroke="#58707f"/></g><path d="M9.781 9.37h185.435a.62.62 0 0 1 .62.62v15.222H9.16V9.991a.62.62 0 0 1 .62-.62z" fill="#58707f" stroke="#58707f" stroke-width="1.241"/><path d="M8.54 9.991A1.24 1.24 0 0 1 9.781 8.75h185.435a1.24 1.24 0 0 1 1.241 1.241v2.176H8.54V9.991z" fill="#32383c"/><g fill="#fff"><path d="M22.207 17.292V19h-8.542v-1.708h8.542z"/><rect x="29.041" y="17.292" width="129.833" height="3.417" rx="1.708"/></g><g fill="#9ea9b2"><rect x="15.374" y="33.145" width="170.833" height="2.135" rx="1.068"/><rect x="15.374" y="40.406" width="170.833" height="2.135" rx="1.068"/><rect x="15.374" y="47.666" width="170.833" height="2.135" rx="1.068"/><rect x="15.374" y="54.926" width="102.5" height="2.135" rx="1.068"/></g><defs ><path id="B" d="M8.54 95.408a1.24 1.24 0 0 1 1.241-1.241h185.435a1.24 1.24 0 0 1 1.241 1.241v2.176H8.54v-2.176z"/><path id="C" d="M21.401 104.49v1.578h-7.256v-1.578h7.256zm-2.777-2.966v7.706h-1.694v-7.706h1.694z"/></defs></svg>