<svg xmlns="http://www.w3.org/2000/svg" width="205" height="120" fill="none" xmlns:v="https://vecta.io/nano"><rect x=".75" y=".75" width="203.5" height="118.5" rx="4.25" fill="#fff"/><rect x=".75" y=".75" width="203.5" height="118.5" rx="4.25" stroke="#718491" stroke-width="1.5"/><rect x="8.54" y="94.167" width="187.917" height="17.083" rx="8.542" fill="#58707f"/><g fill="#fff"><path d="M23.11 102.782v1.577h-7.256v-1.577h7.256zm-2.777-2.966v7.706h-1.694v-7.706h1.694z"/><rect x="34.165" y="101" width="129.833" height="3.417" rx="1.708"/></g><rect x="8.54" y="70.25" width="187.917" height="17.083" rx="8.542" fill="#58707f"/><g fill="#fff"><path d="M23.11 78.865v1.578h-7.256v-1.578h7.256zm-2.777-2.966v7.707h-1.694v-7.707h1.694z"/><rect x="34.165" y="77.083" width="129.833" height="3.417" rx="1.708"/></g><path d="M8.54 17.436a8.69 8.69 0 0 1 8.686-8.686h170.545a8.69 8.69 0 0 1 8.686 8.686v44.74a1.24 1.24 0 0 1-1.241 1.241H9.781a1.24 1.24 0 0 1-1.241-1.241v-44.74z" fill="#f0f0f0"/><rect x="9.16" y="9.37" width="186.676" height="15.843" rx="7.921" fill="#58707f" stroke="#58707f" stroke-width="1.241"/><g fill="#fff"><path d="M23.916 16.438v1.708h-8.542v-1.708h8.542z"/><rect x="34.165" y="15.583" width="129.833" height="3.417" rx="1.708"/></g><g fill="#9ea9b2"><rect x="17.082" y="32.667" width="170.833" height="2.135" rx="1.068"/><rect x="17.082" y="39.927" width="170.833" height="2.135" rx="1.068"/><rect x="17.082" y="47.188" width="170.833" height="2.135" rx="1.068"/><rect x="17.082" y="54.448" width="102.5" height="2.135" rx="1.068"/></g></svg>