<svg xmlns="http://www.w3.org/2000/svg" width="205" height="120" fill="none" xmlns:v="https://vecta.io/nano"><rect x=".75" y=".75" width="203.5" height="118.5" rx="4.25" fill="#fff"/><rect x=".75" y=".75" width="203.5" height="118.5" rx="4.25" stroke="#718491" stroke-width="1.5"/><rect x="32.958" y="9.25" width="163" height="53.667" rx=".75" fill="#fff" stroke="#58707f"/><path d="M32.458 10.001a1.25 1.25 0 0 1 1.251-1.251h161.5a1.25 1.25 0 0 1 1.25 1.251v15.833h-164V10.001z" fill="#58707f"/><rect x="8.541" y="8.75" width="20.5" height="17.083" rx="1.251" fill="#32383c"/><rect x="39.291" y="15.584" width="129.833" height="3.417" rx="1.708" fill="#fff"/><g opacity=".8" fill="#9ea9b2"><rect x="40.999" y="32.667" width="146.917" height="2.135" rx="1.068"/><rect x="40.999" y="39.927" width="146.917" height="2.135" rx="1.068"/><rect x="40.999" y="47.187" width="146.917" height="2.135" rx="1.068"/><rect x="40.999" y="54.448" width="106.292" height="2.135" rx="1.068"/></g><rect x="32.457" y="94.167" width="164" height="17.083" rx="1.251" fill="#58707f"/><rect x="39.291" y="101" width="129.833" height="3.417" rx="1.708" fill="#fff"/><rect x="8.54" y="94.167" width="20.5" height="17.083" rx="1.251" fill="#32383c"/><rect x="32.457" y="70.25" width="164" height="17.083" rx="1.251" fill="#58707f"/><rect x="39.291" y="77.084" width="129.833" height="3.417" rx="1.708" fill="#fff"/><rect x="8.54" y="70.25" width="20.5" height="17.083" rx="1.251" fill="#32383c"/><path d="M16.878 102.415h1.047c.407 0 .744-.07 1.011-.211s.473-.334.603-.582a1.8 1.8 0 0 0 .196-.85c0-.335-.061-.621-.182-.858a1.23 1.23 0 0 0-.538-.56c-.242-.131-.541-.196-.909-.196a1.86 1.86 0 0 0-.843.189 1.44 1.44 0 0 0-.589.523c-.146.227-.218.49-.218.8h-1.759c0-.562.148-1.061.444-1.498s.698-.778 1.207-1.025 1.09-.378 1.73-.378c.683 0 1.28.114 1.788.342a2.63 2.63 0 0 1 1.2 1.003c.286.446.429.999.429 1.658a2.21 2.21 0 0 1-.211.916 2.65 2.65 0 0 1-.625.85c-.276.252-.62.458-1.032.618s-.889.233-1.432.233h-1.316v-.974zm0 1.367v-.96h1.316c.62 0 1.149.073 1.585.218s.8.347 1.076.603.477.541.603.866a2.73 2.73 0 0 1 .196 1.032c0 .494-.09.935-.269 1.323a2.68 2.68 0 0 1-.749.974 3.34 3.34 0 0 1-1.141.604 4.67 4.67 0 0 1-1.41.203 4.5 4.5 0 0 1-1.309-.189c-.417-.126-.79-.312-1.12-.559a2.78 2.78 0 0 1-.785-.938c-.189-.378-.284-.815-.284-1.309h1.752c0 .315.073.594.218.836a1.5 1.5 0 0 0 .625.56 2.05 2.05 0 0 0 .931.204c.368 0 .686-.066.952-.197a1.37 1.37 0 0 0 .611-.581c.145-.257.218-.567.218-.931 0-.412-.08-.746-.24-1.003a1.41 1.41 0 0 0-.684-.567c-.296-.126-.645-.189-1.047-.189h-1.047zm5.038-20.594v1.396H14.82v-1.2l3.446-3.759.894-1.105c.218-.31.371-.589.458-.836s.138-.497.138-.734c0-.334-.063-.628-.189-.88s-.3-.458-.538-.603-.526-.225-.865-.225c-.393 0-.722.085-.989.254a1.59 1.59 0 0 0-.603.705c-.136.296-.204.635-.204 1.018h-1.752a3.43 3.43 0 0 1 .422-1.687c.281-.514.688-.921 1.221-1.221s1.175-.458 1.927-.458c.708 0 1.309.119 1.803.356s.87.574 1.127 1.011.393.952.393 1.549a3.11 3.11 0 0 1-.16.981 4.65 4.65 0 0 1-.458.974 8.34 8.34 0 0 1-.691.967l-.88.974-2.29 2.523h4.886zm-2.312-70.726v10.622h-1.752v-8.543l-2.595.88v-1.447l4.137-1.512h.211z" fill="#fff"/></svg>