<svg xmlns="http://www.w3.org/2000/svg" width="205" height="120" fill="none" xmlns:v="https://vecta.io/nano"><rect x=".75" y=".75" width="203.5" height="118.5" rx="4.25" fill="#fff"/><rect x=".75" y=".75" width="203.5" height="118.5" rx="4.25" stroke="#718491" stroke-width="1.5"/><mask id="A" maskUnits="userSpaceOnUse" x="8.54" y="94.167" width="188" height="19" fill="#000"><path fill="#fff" d="M8.54 94.167h188v19h-188z"/><path d="M8.54 94.167h187.917v17.083H8.54V94.167z"/></mask><path d="M8.54 94.167h187.917v17.083H8.54V94.167z" fill="#efefef"/><path d="M196.457 110.009H8.54v2.482h187.917v-2.482z" fill="#32383c" mask="url(#A)"/><rect x="34.165" y="101" width="129.833" height="3.417" rx="1.708" fill="#58707f"/><path d="M13.665 97.97a1.24 1.24 0 0 1 1.241-1.241h11.185a1.24 1.24 0 0 1 1.241 1.241v9.477a1.24 1.24 0 0 1-1.241 1.241H14.906a1.24 1.24 0 0 1-1.241-1.241V97.97z" fill="#32383c"/><path d="M23.964 102.782v1.577h-7.256v-1.577h7.256zm-2.777-2.966v7.706h-1.694v-7.706h1.694z" fill="#fff"/><mask id="B" maskUnits="userSpaceOnUse" x="8.54" y="70.25" width="188" height="19" fill="#000"><path fill="#fff" d="M8.54 70.25h188v19h-188z"/><path d="M8.54 70.25h187.917v17.083H8.54V70.25z"/></mask><path d="M8.54 70.25h187.917v17.083H8.54V70.25z" fill="#efefef"/><path d="M196.457 86.093H8.54v2.482h187.917v-2.482z" fill="#32383c" mask="url(#B)"/><rect x="34.165" y="77.083" width="129.833" height="3.417" rx="1.708" fill="#58707f"/><use href="#E" fill="#32383c"/><path d="M23.964 78.865v1.578h-7.256v-1.578h7.256zm-2.777-2.966v7.706h-1.694v-7.706h1.694z" fill="#fff"/><rect x="8.54" y="8.75" width="187.917" height="54.667" rx="1.241" fill="#efefef"/><mask id="C" maskUnits="userSpaceOnUse" x="8.54" y="8.75" width="188" height="19" fill="#000"><path fill="#fff" d="M8.54 8.75h188v19h-188z"/><path d="M8.54 9.991A1.24 1.24 0 0 1 9.781 8.75h185.435a1.24 1.24 0 0 1 1.241 1.241v15.843H8.54V9.991z"/></mask><path d="M8.54 8.75h187.917H8.54zm187.917 18.324H8.54v-2.482h187.917v2.482zM8.54 25.833V8.75v17.083zM196.457 8.75v17.083V8.75z" fill="#32383c" mask="url(#C)"/><use href="#E" y="-61.5" fill="#32383c"/><path d="M24.77 16.438v1.708h-8.542v-1.708h8.542z" fill="#fff"/><rect x="34.165" y="15.583" width="129.833" height="3.417" rx="1.708" fill="#58707f"/><g fill="#9ea9b2"><rect x="17.082" y="32.667" width="170.833" height="2.135" rx="1.068"/><rect x="17.082" y="39.927" width="170.833" height="2.135" rx="1.068"/><rect x="17.082" y="47.188" width="170.833" height="2.135" rx="1.068"/><rect x="17.082" y="54.448" width="102.5" height="2.135" rx="1.068"/></g><defs ><path id="E" d="M13.665 74.053a1.24 1.24 0 0 1 1.241-1.241h11.185a1.24 1.24 0 0 1 1.241 1.241v9.477a1.24 1.24 0 0 1-1.241 1.241H14.906a1.24 1.24 0 0 1-1.241-1.241v-9.477z"/></defs></svg>