<svg xmlns="http://www.w3.org/2000/svg" width="205" height="120" fill="none" xmlns:v="https://vecta.io/nano"><rect x=".75" y=".75" width="203.5" height="118.5" rx="4.25" fill="#fff"/><rect x=".75" y=".75" width="203.5" height="118.5" rx="4.25" stroke="#718491" stroke-width="1.5"/><mask id="A" fill="#fff"><path d="M8.54 94.167h187.917v17.083H8.54V94.167z"/></mask><g fill="#32383c"><path d="M196.457 108.769H8.54v4.963h187.917v-4.963z" mask="url(#A)"/><rect x="8.54" y="94.167" width="20.5" height="17.083" rx="1.241"/></g><path d="M23.11 102.782v1.577h-7.256v-1.577h7.256zm-2.777-2.967v7.707h-1.694v-7.707h1.694z" fill="#fff"/><rect x="37.581" y="100.146" width="129.833" height="3.417" rx="1.192" fill="#58707f"/><mask id="B" fill="#fff"><path d="M8.54 70.25h187.917v17.083H8.54V70.25z"/></mask><g fill="#32383c"><path d="M196.457 84.852H8.54v4.963h187.917v-4.963z" mask="url(#B)"/><rect x="8.54" y="70.25" width="20.5" height="17.083" rx="1.241"/></g><path d="M23.11 78.865v1.578h-7.256v-1.578h7.256zm-2.777-2.966v7.706h-1.694v-7.706h1.694z" fill="#fff"/><rect x="37.581" y="76.229" width="129.833" height="3.417" rx="1.192" fill="#58707f"/><mask id="C" fill="#fff"><path d="M8.54 8.75h187.917v17.083H8.54V8.75z"/></mask><g fill="#32383c"><path d="M196.457 23.271H8.54v5.125h187.917v-5.125z" mask="url(#C)"/><path d="M8.54 9.991A1.24 1.24 0 0 1 9.781 8.75h18.018a1.24 1.24 0 0 1 1.241 1.241v14.602a1.24 1.24 0 0 1-1.241 1.241H9.781a1.24 1.24 0 0 1-1.241-1.241V9.991z"/></g><path d="M23.06 16.438v1.708h-8.542v-1.708h8.542z" fill="#fff"/><rect x="37.581" y="14.729" width="129.833" height="3.417" rx="1.192" fill="#58707f"/><g opacity=".8"><path fill="#efefef" d="M8.54 25.833h187.917v37.583H8.54z"/><g fill="#58707f"><rect x="15.373" y="32.667" width="174.25" height="2.135" rx="1.068"/><rect x="15.373" y="39.927" width="174.25" height="2.135" rx="1.068"/><rect x="15.373" y="47.188" width="174.25" height="2.135" rx="1.068"/><rect x="15.373" y="54.448" width="105.467" height="2.135" rx="1.068"/></g></g></svg>