<svg xmlns="http://www.w3.org/2000/svg" width="205" height="120" fill="none" xmlns:v="https://vecta.io/nano"><rect x=".75" y=".75" width="203.5" height="118.5" rx="4.25" fill="#fff"/><rect x=".75" y=".75" width="203.5" height="118.5" rx="4.25" stroke="#718491" stroke-width="1.5"/><g fill-rule="evenodd" fill="#32383c"><use href="#B"/><use href="#B" y="24.771"/><use href="#B" y="49.542"/></g><g fill="#58707f"><path d="M20.5 19v1.708h-8.542V19H20.5z"/><rect x="29.041" y="18.146" width="129.833" height="3.417" rx="1.192"/></g><g opacity=".8" fill="#9ea9b2"><rect x="11.958" y="28.396" width="181.083" height="2.135" rx="1.068"/><rect x="11.958" y="35.656" width="181.083" height="2.135" rx="1.068"/><rect x="11.958" y="42.917" width="181.083" height="2.135" rx="1.068"/><rect x="11.958" y="50.177" width="79.438" height="2.135" rx="1.068"/></g><path fill-rule="evenodd" d="M8.541 8.75h187.917v2.566H8.541V8.75z" fill="#32383c"/><g fill="#58707f"><path d="M19.693 72.886v1.578h-7.256v-1.578h7.256zm-2.777-2.966v7.706h-1.694V69.92h1.694z"/><rect x="29.498" y="71.479" width="129.833" height="3.417" rx="1.708"/><path d="M19.693 97.657v1.578h-7.256v-1.578h7.256zm-2.777-2.966v7.707h-1.694V94.69h1.694z"/><rect x="29.498" y="96.25" width="129.833" height="3.417" rx="1.708"/></g><defs ><path id="B" d="M8.541 59.146h187.917v2.566H8.541v-2.566z"/></defs></svg>