<svg xmlns="http://www.w3.org/2000/svg" width="205" height="120" fill="none" xmlns:v="https://vecta.io/nano"><rect x=".75" y=".75" width="203.5" height="118.5" rx="4.25" fill="#fff"/><rect x=".75" y=".75" width="203.5" height="118.5" rx="4.25" stroke="#718491" stroke-width="1.5"/><rect x="32.457" y="94.167" width="164" height="17.083" rx="1.251" fill="#58707f"/><rect x="8.54" y="94.167" width="20.5" height="17.083" rx="1.251" fill="#32383c"/><g fill="#fff"><path d="M22.254 102.781v1.578h-7.256v-1.578h7.256zm-2.777-2.966v7.707h-1.694v-7.707h1.694z"/><rect x="39.291" y="101" width="129.833" height="3.417" rx="1.708"/></g><rect x="32.457" y="70.25" width="164" height="17.083" rx="1.251" fill="#58707f"/><rect x="8.54" y="70.25" width="20.5" height="17.083" rx="1.251" fill="#32383c"/><g fill="#fff"><path d="M22.254 78.865v1.578h-7.256v-1.578h7.256zm-2.777-2.966v7.706h-1.694v-7.706h1.694z"/><rect x="39.291" y="77.084" width="129.833" height="3.417" rx="1.708"/><rect x="32.957" y="9.25" width="163" height="53.667" rx=".75" stroke="#58707f"/></g><path d="M33.708 9.375h161.499c.345 0 .625.28.625.625v15.208H33.082V10.001c0-.345.28-.625.625-.625z" fill="#58707f" stroke="#58707f" stroke-width="1.251"/><path d="M8.54 10.001A1.25 1.25 0 0 1 9.791 8.75H27.79a1.25 1.25 0 0 1 1.25 1.251v14.582a1.25 1.25 0 0 1-1.25 1.251H9.791a1.25 1.25 0 0 1-1.251-1.251V10.001z" fill="#32383c"/><g fill="#fff"><path d="M23.06 16.438v1.708h-8.542v-1.708h8.542z"/><rect x="39.291" y="15.583" width="129.833" height="3.417" rx="1.708"/></g><g opacity=".8" fill="#9ea9b2"><rect x="40.999" y="32.667" width="146.917" height="2.135" rx="1.068"/><rect x="40.999" y="39.927" width="146.917" height="2.135" rx="1.068"/><rect x="40.999" y="47.187" width="146.917" height="2.135" rx="1.068"/><rect x="40.999" y="54.448" width="106.292" height="2.135" rx="1.068"/></g></svg>