<svg xmlns="http://www.w3.org/2000/svg" width="205" height="120" fill="none" xmlns:v="https://vecta.io/nano"><rect x=".75" y=".75" width="203.5" height="118.5" rx="4.25" fill="#fff"/><rect x=".75" y=".75" width="203.5" height="118.5" rx="4.25" stroke="#718491" stroke-width="1.5"/><rect x="8.54" y="94.167" width="187.917" height="17.083" rx="1.241" fill="#58707f"/><g fill="#fff"><path d="M23.45 102.542v1.577h-7.256v-1.577h7.256zm-2.777-2.967v7.707h-1.694v-7.707h1.694z"/><rect x="32.457" y="101" width="129.833" height="3.417" rx="1.708"/></g><rect x="8.54" y="70.25" width="187.917" height="17.083" rx="1.241" fill="#58707f"/><g fill="#fff"><path d="M23.45 78.625v1.578h-7.256v-1.578h7.256zm-2.777-2.966v7.706h-1.694v-7.706h1.694z"/><rect x="32.457" y="77.083" width="129.833" height="3.417" rx="1.708"/><rect x="9.04" y="9.25" width="186.917" height="53.667" rx=".741" stroke="#58707f"/></g><path d="M9.781 9.37h185.435a.62.62 0 0 1 .62.62v15.222H9.16V9.991a.62.62 0 0 1 .62-.62z" fill="#58707f" stroke="#58707f" stroke-width="1.241"/><g fill="#fff"><path d="M23.916 16.438v1.708h-8.542v-1.708h8.542z"/><rect x="30.749" y="15.583" width="129.833" height="3.417" rx="1.708"/></g><g fill="#9ea9b2"><rect x="17.082" y="32.667" width="170.833" height="2.135" rx="1.068"/><rect x="17.082" y="39.927" width="170.833" height="2.135" rx="1.068"/><rect x="17.082" y="47.188" width="170.833" height="2.135" rx="1.068"/><rect x="17.082" y="54.448" width="102.5" height="2.135" rx="1.068"/></g></svg>