<svg xmlns="http://www.w3.org/2000/svg" width="205" height="120" fill="none" xmlns:v="https://vecta.io/nano"><rect x=".75" y=".75" width="203.5" height="118.5" rx="4.25" fill="#fff"/><rect x=".75" y=".75" width="203.5" height="118.5" rx="4.25" stroke="#718491" stroke-width="1.5"/><rect x="8.54" y="94.167" width="187.917" height="17.083" rx="1.241" fill="#58707f"/><path d="M8.54 95.408a1.24 1.24 0 0 1 1.241-1.241h2.176v17.083H9.781a1.24 1.24 0 0 1-1.241-1.241V95.408z" fill="#32383c"/><g fill="#fff"><path d="M187.963 102.782v1.577h-7.256v-1.577h7.256zm-2.777-2.966v7.706h-1.694v-7.706h1.694z"/><rect x="18.79" y="101" width="129.833" height="3.417" rx="1.708"/></g><rect x="8.54" y="70.25" width="187.917" height="17.083" rx="1.241" fill="#58707f"/><path d="M8.54 71.491a1.24 1.24 0 0 1 1.241-1.241h2.176v17.083H9.781a1.24 1.24 0 0 1-1.241-1.241V71.491z" fill="#32383c"/><g fill="#fff"><path d="M187.963 78.865v1.578h-7.256v-1.578h7.256zm-2.777-2.966v7.707h-1.694v-7.707h1.694z"/><rect x="18.79" y="77.084" width="129.833" height="3.417" rx="1.708"/><rect x="9.04" y="9.25" width="186.917" height="53.667" rx=".741" stroke="#58707f"/></g><path d="M9.781 9.37h185.435a.62.62 0 0 1 .62.62v15.222H9.16V9.991a.62.62 0 0 1 .62-.62z" fill="#58707f" stroke="#58707f" stroke-width="1.241"/><path d="M8.54 9.991A1.24 1.24 0 0 1 9.781 8.75h2.176v17.083H8.54V9.991z" fill="#32383c"/><g fill="#fff"><path d="M188.769 16.438v1.708h-8.541v-1.708h8.541z"/><rect x="18.79" y="15.584" width="129.833" height="3.417" rx="1.708"/></g><g fill="#9ea9b2"><rect x="15.374" y="32.291" width="170.833" height="2.135" rx="1.068"/><rect x="15.374" y="39.552" width="170.833" height="2.135" rx="1.068"/><rect x="15.374" y="46.812" width="170.833" height="2.135" rx="1.068"/><rect x="15.374" y="54.072" width="102.5" height="2.135" rx="1.068"/></g></svg>