<?xml version="1.0" encoding="UTF-8" standalone="no"?>
<svg
   width="294"
   height="63"
   viewBox="0 0 294 63"
   version="1.1"
   id="svg2"
   sodipodi:docname="logo_unlimited-pro-elementor-new.svg"
   inkscape:version="1.4 (86a8ad7, 2024-10-11)"
   inkscape:export-filename="logo_unlimited-elementor.svg"
   inkscape:export-xdpi="96"
   inkscape:export-ydpi="96"
   xmlns:inkscape="http://www.inkscape.org/namespaces/inkscape"
   xmlns:sodipodi="http://sodipodi.sourceforge.net/DTD/sodipodi-0.dtd"
   xmlns="http://www.w3.org/2000/svg"
   xmlns:svg="http://www.w3.org/2000/svg"
   xmlns:rdf="http://www.w3.org/1999/02/22-rdf-syntax-ns#"
   xmlns:cc="http://creativecommons.org/ns#"
   xmlns:dc="http://purl.org/dc/elements/1.1/">
  <sodipodi:namedview
     id="namedview2"
     pagecolor="#ffffff"
     bordercolor="#000000"
     borderopacity="0.25"
     inkscape:showpageshadow="2"
     inkscape:pageopacity="0.0"
     inkscape:pagecheckerboard="0"
     inkscape:deskcolor="#d1d1d1"
     inkscape:zoom="6.0408163"
     inkscape:cx="259.4848"
     inkscape:cy="31.535473"
     inkscape:window-width="1920"
     inkscape:window-height="1017"
     inkscape:window-x="-8"
     inkscape:window-y="-8"
     inkscape:window-maximized="1"
     inkscape:current-layer="text3">
    <inkscape:page
       x="0"
       y="0"
       width="294"
       height="63"
       id="page2"
       margin="0"
       bleed="0" />
  </sodipodi:namedview>
  <!-- Generator: Sketch 64 (93537) - https://sketch.com -->
  <title
     id="title1">logo</title>
  <desc
     id="desc1">Created with Sketch.</desc>
  <defs
     id="defs2">
    <linearGradient
       x1="1.9203906"
       y1="62.079609"
       x2="63.079609"
       y2="0.92039061"
       id="linearGradient-1"
       gradientUnits="userSpaceOnUse">
      <stop
         stop-color="#6F00D8"
         offset="0%"
         id="stop1" />
      <stop
         stop-color="#1C6AFF"
         offset="100%"
         id="stop2" />
    </linearGradient>
  </defs>
  <g
     id="logo"
     stroke="none"
     stroke-width="1"
     fill="none"
     fill-rule="evenodd">
    <circle
       id="Oval"
       fill="url(#linearGradient-1)"
       cx="32.5"
       cy="31.5"
       r="31.5"
       style="fill:url(#linearGradient-1)" />
    <path
       d="m 50,38.294118 c 0,-1.559281 -1.196034,-2.82353 -2.670794,-2.82353 h -5.917671 c -1.47476,0 -2.670794,1.264249 -2.670794,2.82353 0,1.55928 1.196034,2.823529 2.670794,2.823529 h 5.917671 C 48.803966,41.117647 50,39.853398 50,38.294118 m 0,-10.588236 c 0,-1.55887 -1.195646,-2.823529 -2.671182,-2.823529 h -5.916895 c -1.475148,0 -2.671182,1.264659 -2.671182,2.823529 0,1.559281 1.196034,2.82353 2.671182,2.82353 h 5.916895 C 48.804354,30.529412 50,29.265163 50,27.705882 M 26.416597,37.704015 V 27.119748 c 0,-3.697037 2.926534,-6.704642 6.523444,-6.704642 H 47.365584 C 48.820428,20.415106 50,19.202698 50,17.70775 50,16.212408 48.820428,15 47.365584,15 H 32.940041 c -6.502004,0 -11.791893,5.436749 -11.791893,12.119748 v 10.584267 c 0,1.495342 1.179572,2.70775 2.634416,2.70775 1.454844,0 2.634033,-1.212408 2.634033,-2.70775 M 23.963157,51 C 20.767285,51 17.76329,49.71758 15.503884,47.388965 13.244479,45.059548 12,41.963003 12,38.668669 V 27.637374 c 0,-1.521448 1.196704,-2.755021 2.672678,-2.755021 1.475974,0 2.672678,1.233573 2.672678,2.755021 v 11.031295 c 0,1.822533 0.68827,3.535363 1.938187,4.823789 1.249528,1.288425 2.911553,1.9979 4.679614,1.9979 3.648763,0 6.617413,-3.060111 6.617413,-6.821689 V 27.637374 c 0,-1.521448 1.196704,-2.755021 2.672678,-2.755021 1.475974,0 2.672678,1.233573 2.672678,2.755021 V 38.668669 C 35.925926,45.468337 30.559207,51 23.963157,51"
       id="Fill-1"
       fill="#ffffff" />
    <path
       d="m 80.761862,36 c 1.197103,0 2.275944,-0.209803 3.236523,-0.629408 0.960578,-0.419605 1.776346,-0.997782 2.447303,-1.734531 0.670957,-0.736749 1.185036,-1.600355 1.542236,-2.590818 0.3572,-0.990464 0.5358,-2.056554 0.5358,-3.19827 v 0 -12.807718 h -1.477071 v 12.807718 c 0,0.966068 -0.142397,1.866267 -0.427192,2.700598 -0.284794,0.834332 -0.697505,1.558883 -1.238133,2.173653 -0.540627,0.614771 -1.199516,1.095365 -1.976668,1.441783 -0.777151,0.346419 -1.658084,0.519628 -2.642798,0.519628 -0.984714,0 -1.865647,-0.175649 -2.642798,-0.526946 -0.777152,-0.351298 -1.433628,-0.834332 -1.969428,-1.449102 -0.5358,-0.614771 -0.946097,-1.339322 -1.230892,-2.173653 -0.284795,-0.834331 -0.427192,-1.734531 -0.427192,-2.700599 v 0 -12.79308 H 73 v 12.807718 c 0,1.141716 0.1786,2.207806 0.5358,3.19827 0.3572,0.990463 0.871279,1.854069 1.542236,2.590818 0.670957,0.736749 1.486725,1.314926 2.447303,1.734531 C 78.485918,35.790197 79.564759,36 80.761862,36 Z M 93.998689,35.751164 V 24.83167 c 0.637167,-0.858727 1.361222,-1.534487 2.172162,-2.027279 0.810941,-0.492792 1.689461,-0.739188 2.635558,-0.739188 1.274331,0 2.220431,0.387891 2.838291,1.163673 0.61786,0.775781 0.92679,1.84675 0.92679,3.212907 v 0 9.309381 h 1.3757 v -9.309381 c 0,-0.848969 -0.10136,-1.610113 -0.3041,-2.283433 -0.20273,-0.67332 -0.50201,-1.249058 -0.89782,-1.727212 -0.39582,-0.478155 -0.89542,-0.84409 -1.4988,-1.097805 -0.60338,-0.253715 -1.300882,-0.380572 -2.092515,-0.380572 -1.0716,0 -2.044246,0.256154 -2.917939,0.768463 -0.873692,0.512309 -1.638776,1.188068 -2.295252,2.027279 v 0 l -0.13033,-2.195609 c -0.03862,-0.243956 -0.183427,-0.365935 -0.434432,-0.365935 v 0 h -0.753017 v 14.564205 z m 14.960071,0 V 14.453759 h -1.3757 v 21.297405 z m 5.08398,-18.311377 c 0.17377,0 0.33789,-0.03415 0.49236,-0.102462 0.15446,-0.06831 0.28962,-0.161011 0.40547,-0.27811 0.11585,-0.117099 0.20997,-0.251275 0.28238,-0.402528 0.0724,-0.151253 0.10861,-0.314704 0.10861,-0.490353 0,-0.175649 -0.0362,-0.343979 -0.10861,-0.50499 -0.0724,-0.161011 -0.16653,-0.300067 -0.28238,-0.417166 -0.11585,-0.117099 -0.25101,-0.209802 -0.40547,-0.27811 -0.15447,-0.06831 -0.31859,-0.102462 -0.49236,-0.102462 -0.17377,0 -0.33789,0.03415 -0.49236,0.102462 -0.15446,0.06831 -0.28962,0.161011 -0.40547,0.27811 -0.11585,0.117099 -0.20756,0.256155 -0.27514,0.417166 -0.0676,0.161011 -0.10137,0.329341 -0.10137,0.50499 0,0.175649 0.0338,0.3391 0.10137,0.490353 0.0676,0.151253 0.15929,0.285429 0.27514,0.402528 0.11585,0.117099 0.25101,0.209802 0.40547,0.27811 0.15447,0.06831 0.31859,0.102462 0.49236,0.102462 z m 0.68061,18.311377 V 21.186959 h -1.3757 v 14.564205 z m 5.35912,0 V 24.743846 c 0.52132,-0.839211 1.11504,-1.495454 1.78117,-1.96873 0.66613,-0.473275 1.39018,-0.709913 2.17216,-0.709913 1.0716,0 1.88737,0.375693 2.44731,1.127079 0.55993,0.751386 0.8399,1.834553 0.8399,3.249501 v 0 9.309381 h 1.3757 v -9.309381 c 0,-0.722111 0.10378,-1.356398 0.31135,-1.902861 0.20756,-0.546463 0.48753,-1.002661 0.8399,-1.368596 0.35237,-0.365935 0.75784,-0.641606 1.21641,-0.827013 0.45857,-0.185407 0.93886,-0.27811 1.44087,-0.27811 1.12952,0 1.99839,0.373253 2.60659,1.11976 0.60821,0.746507 0.91231,1.832114 0.91231,3.25682 v 0 9.309381 h 1.39019 v -9.309381 c 0,-0.878243 -0.1062,-1.658904 -0.31859,-2.341983 -0.21239,-0.683078 -0.5189,-1.258815 -0.91955,-1.727212 -0.40064,-0.468396 -0.88576,-0.822133 -1.45535,-1.061211 -0.56959,-0.239077 -1.21158,-0.358616 -1.92598,-0.358616 -0.50201,0 -0.99196,0.07075 -1.46983,0.212242 -0.47788,0.141495 -0.91955,0.356177 -1.32502,0.644046 -0.40547,0.287868 -0.76508,0.651363 -1.07884,1.090485 -0.31376,0.439122 -0.55752,0.961189 -0.7313,1.566201 -0.22204,-1.102683 -0.64682,-1.96385 -1.27433,-2.5835 -0.62751,-0.619649 -1.46742,-0.929474 -2.51971,-0.929474 -0.45374,0 -0.88576,0.06587 -1.29606,0.197605 -0.4103,0.131736 -0.79646,0.317143 -1.15848,0.556221 -0.36203,0.239077 -0.70234,0.524506 -1.02092,0.856287 -0.31858,0.331781 -0.61786,0.697716 -0.89783,1.097805 v 0 l -0.13033,-2.107785 c -0.0386,-0.243956 -0.18342,-0.365935 -0.43443,-0.365935 v 0 h -0.75302 V 35.751164 Z M 141.7328,17.439787 c 0.17378,0 0.3379,-0.03415 0.49236,-0.102462 0.15447,-0.06831 0.28962,-0.161011 0.40547,-0.27811 0.11585,-0.117099 0.20998,-0.251275 0.28238,-0.402528 0.0724,-0.151253 0.10861,-0.314704 0.10861,-0.490353 0,-0.175649 -0.0362,-0.343979 -0.10861,-0.50499 -0.0724,-0.161011 -0.16653,-0.300067 -0.28238,-0.417166 -0.11585,-0.117099 -0.251,-0.209802 -0.40547,-0.27811 -0.15446,-0.06831 -0.31858,-0.102462 -0.49236,-0.102462 -0.17377,0 -0.33789,0.03415 -0.49235,0.102462 -0.15447,0.06831 -0.28963,0.161011 -0.40547,0.27811 -0.11585,0.117099 -0.20757,0.256155 -0.27514,0.417166 -0.0676,0.161011 -0.10137,0.329341 -0.10137,0.50499 0,0.175649 0.0338,0.3391 0.10137,0.490353 0.0676,0.151253 0.15929,0.285429 0.27514,0.402528 0.11584,0.117099 0.251,0.209802 0.40547,0.27811 0.15446,0.06831 0.31858,0.102462 0.49235,0.102462 z m 0.68061,18.311377 V 21.186959 h -1.3757 v 14.564205 z m 7.92227,0.234199 c 0.60821,0 1.19469,-0.124418 1.75945,-0.373254 0.56477,-0.248836 1.03057,-0.578177 1.39743,-0.988024 v 0 l -0.37651,-0.61477 c -0.0772,-0.09758 -0.15446,-0.146374 -0.2317,-0.146374 -0.0676,0 -0.15929,0.05123 -0.27514,0.153692 -0.11585,0.102462 -0.26548,0.214682 -0.44891,0.33666 -0.18343,0.121979 -0.40064,0.234199 -0.65165,0.33666 -0.25101,0.102462 -0.55028,0.153693 -0.89783,0.153693 -0.27996,0 -0.54062,-0.04391 -0.78198,-0.131737 -0.24135,-0.08782 -0.45132,-0.224439 -0.62992,-0.409847 -0.1786,-0.185406 -0.31859,-0.422044 -0.41995,-0.709913 -0.10137,-0.287869 -0.15206,-0.631847 -0.15206,-1.031936 v 0 -9.88024 h 4.53258 v -1.039254 h -4.53258 V 16.07851 h -0.65164 c -0.1062,0 -0.19067,0.03415 -0.25342,0.102461 -0.0628,0.06831 -0.099,0.146374 -0.10861,0.234199 v 0 l -0.34755,5.210911 -2.46178,0.175649 v 0.541583 c 0,0.107341 0.0338,0.190286 0.10136,0.248836 0.0676,0.05855 0.15447,0.08782 0.26066,0.08782 v 0 h 2.0708 V 32.6334 c 0,1.141716 0.27273,1.985806 0.81818,2.532269 0.54546,0.546462 1.30571,0.819694 2.28077,0.819694 z m 10.78953,-0.04391 c 0.54062,0 1.07884,-0.05367 1.61464,-0.161011 0.5358,-0.107341 1.03781,-0.251275 1.50603,-0.431803 0.46822,-0.180528 0.893,-0.397649 1.27433,-0.651364 0.38134,-0.253715 0.68786,-0.526946 0.91955,-0.819694 v 0 l -0.3765,-0.468396 c -0.0676,-0.09758 -0.16412,-0.146374 -0.28963,-0.146374 -0.0965,0 -0.251,0.08051 -0.46339,0.241517 -0.21239,0.161011 -0.4996,0.341539 -0.86163,0.541583 -0.36202,0.200045 -0.80852,0.380572 -1.3395,0.541584 -0.53097,0.161011 -1.15848,0.241517 -1.88254,0.241517 -0.81094,0 -1.54465,-0.141495 -2.20112,-0.424485 -0.65648,-0.282989 -1.21641,-0.705034 -1.67981,-1.266134 -0.46339,-0.5611 -0.82059,-1.256376 -1.0716,-2.085829 -0.251,-0.829452 -0.37651,-1.79064 -0.37651,-2.883566 v 0 -0.27811 h 10.4119 c 0.13516,0 0.23411,-0.03903 0.29687,-0.117099 0.0627,-0.07807 0.0941,-0.22444 0.0941,-0.439122 0,-1.024617 -0.14239,-1.932136 -0.42719,-2.722555 -0.28479,-0.790419 -0.68061,-1.45642 -1.18745,-1.998004 -0.50684,-0.541583 -1.10539,-0.95387 -1.79565,-1.23686 -0.69027,-0.282989 -1.44087,-0.424484 -2.25181,-0.424484 -1.02333,0 -1.93805,0.180528 -2.74417,0.541584 -0.80611,0.361055 -1.48672,0.861166 -2.04183,1.500332 -0.55511,0.639166 -0.97989,1.400311 -1.27434,2.283433 -0.29444,0.883123 -0.44167,1.846751 -0.44167,2.890885 0,1.239299 0.15688,2.339543 0.47064,3.300732 0.31375,0.961189 0.76025,1.773564 1.3395,2.437126 0.57924,0.663562 1.27433,1.168552 2.08527,1.51497 0.81094,0.346418 1.70877,0.519627 2.69349,0.519627 z m 4.32984,-8.943446 h -9.49959 c 0.0869,-0.761144 0.26307,-1.449102 0.52856,-2.063872 0.26548,-0.614771 0.61303,-1.141717 1.04264,-1.580839 0.4296,-0.439121 0.93885,-0.775781 1.52775,-1.00998 0.5889,-0.234198 1.25503,-0.351297 1.99839,-0.351297 0.65648,0 1.25503,0.11466 1.79565,0.343979 0.54063,0.229319 1.00403,0.55866 1.39019,0.988024 0.38616,0.429363 0.68544,0.95387 0.89783,1.573519 0.21239,0.61965 0.31858,1.319805 0.31858,2.100466 z m 8.37118,8.943446 c 1.06195,0 2.02011,-0.258594 2.8745,-0.775781 0.85438,-0.517188 1.60016,-1.214904 2.23732,-2.093147 v 0 l 0.14482,2.29807 c 0.0386,0.253715 0.1786,0.380572 0.41995,0.380572 v 0 h 0.76749 V 14.453759 h -1.39018 v 8.636061 c -0.52132,-0.702595 -1.13918,-1.236859 -1.85358,-1.602794 -0.7144,-0.365935 -1.55913,-0.548902 -2.53419,-0.548902 -1.01367,0 -1.90909,0.195165 -2.68624,0.585495 -0.77715,0.390331 -1.43363,0.924596 -1.96943,1.602795 -0.5358,0.678199 -0.94127,1.478376 -1.21641,2.400532 -0.27514,0.922156 -0.41271,1.915059 -0.41271,2.978709 0,2.478599 0.49477,4.337547 1.48431,5.576847 0.98954,1.239299 2.36766,1.858948 4.13435,1.858948 z m 0.39099,-1.127079 c -1.47707,0 -2.61142,-0.509869 -3.40305,-1.529607 -0.79164,-1.019739 -1.18745,-2.612775 -1.18745,-4.779109 0,-0.956309 0.1086,-1.832113 0.32582,-2.627412 0.21722,-0.795298 0.54063,-1.478376 0.97023,-2.049234 0.42961,-0.570859 0.963,-1.01242 1.60016,-1.324684 0.63717,-0.312265 1.38053,-0.468397 2.23009,-0.468397 0.84956,0 1.60982,0.17077 2.28077,0.512309 0.67096,0.341539 1.28641,0.927035 1.84634,1.756487 v 0 7.684631 c -0.60821,0.888001 -1.29847,1.580838 -2.07079,2.078509 -0.77233,0.497672 -1.63637,0.746507 -2.59212,0.746507 z m 22.7509,0.936793 v -3.147039 h -9.28238 v -5.986693 h 7.31295 v -3.02994 h -7.31295 V 17.7179 h 9.28238 v -3.132401 h -13.20675 v 21.165668 z m 5.86596,0 V 14 h -3.57683 v 21.751164 z m 9.24004,0.219561 c 0.52132,0 1.05953,-0.03903 1.61464,-0.117099 0.55511,-0.07807 1.10056,-0.212242 1.63637,-0.402528 0.5358,-0.190286 1.04987,-0.444001 1.54223,-0.761145 0.49236,-0.317143 0.93644,-0.709913 1.33226,-1.17831 v 0 l -1.04264,-1.317365 c -0.0772,-0.107341 -0.16894,-0.190286 -0.27514,-0.248836 -0.10619,-0.05855 -0.2317,-0.08782 -0.37651,-0.08782 -0.22204,0 -0.45132,0.06831 -0.68785,0.204924 -0.23652,0.136615 -0.51166,0.287868 -0.82542,0.453759 -0.31376,0.16589 -0.68061,0.317143 -1.10056,0.453759 -0.41995,0.136616 -0.91955,0.204923 -1.49879,0.204923 -1.1778,0 -2.1239,-0.361055 -2.8383,-1.083167 -0.7144,-0.722111 -1.1247,-1.854069 -1.23089,-3.395875 v 0 h 9.18101 c 0.16412,0 0.29927,-0.02196 0.40547,-0.06587 0.10619,-0.04391 0.19067,-0.117099 0.25342,-0.219561 0.0627,-0.102461 0.10619,-0.243956 0.13033,-0.424484 0.0241,-0.180528 0.0362,-0.407408 0.0362,-0.680639 0,-1.083167 -0.15929,-2.046795 -0.47787,-2.890885 -0.31859,-0.844089 -0.76268,-1.556442 -1.33227,-2.137059 -0.56958,-0.580616 -1.24778,-1.022178 -2.03459,-1.324684 -0.7868,-0.302506 -1.64843,-0.453759 -2.58487,-0.453759 -1.11022,0 -2.107,0.195165 -2.99035,0.585496 -0.88334,0.39033 -1.63153,0.919716 -2.24456,1.588157 -0.61304,0.668441 -1.08367,1.453981 -1.41191,2.35662 -0.32824,0.902639 -0.49236,1.866267 -0.49236,2.890885 0,1.317365 0.18826,2.476158 0.56477,3.47638 0.3765,1.000222 0.893,1.839433 1.54947,2.517632 0.65648,0.678199 1.4288,1.190508 2.31698,1.536926 0.88817,0.346418 1.84875,0.519627 2.88173,0.519627 z m 3.04103,-9.455755 h -6.71922 c 0.16411,-1.092925 0.54062,-1.937015 1.12952,-2.532269 0.5889,-0.595254 1.40467,-0.892881 2.4473,-0.892881 0.53098,0 0.99437,0.09026 1.39019,0.270792 0.39581,0.180528 0.72405,0.426924 0.98471,0.739188 0.26066,0.312265 0.45374,0.67576 0.57925,1.090486 0.1255,0.414726 0.18825,0.856287 0.18825,1.324684 z m 8.5884,9.236194 V 24.758483 c 0.38616,-0.44888 0.8037,-0.802617 1.25261,-1.061211 0.44891,-0.258594 0.9292,-0.387891 1.44087,-0.387891 0.78198,0 1.37329,0.229319 1.77393,0.687958 0.40065,0.458638 0.60097,1.190507 0.60097,2.195608 v 0 9.558217 h 3.59131 v -9.558217 c 0,-0.468396 0.0676,-0.883122 0.20273,-1.244178 0.13516,-0.361056 0.321,-0.661122 0.55752,-0.9002 0.23653,-0.239077 0.51167,-0.422044 0.82543,-0.548902 0.31375,-0.126857 0.65406,-0.190286 1.02091,-0.190286 0.80129,0 1.40949,0.241517 1.82462,0.724551 0.41512,0.483034 0.62269,1.202706 0.62269,2.159015 v 0 9.558217 h 3.57682 v -9.558217 c 0,-0.907518 -0.11343,-1.712574 -0.3403,-2.415169 -0.22687,-0.702595 -0.55752,-1.297849 -0.99196,-1.785762 -0.43443,-0.487913 -0.97023,-0.858727 -1.6074,-1.112442 -0.63716,-0.253715 -1.36605,-0.380572 -2.18664,-0.380572 -0.47305,0 -0.94368,0.05367 -1.41191,0.161011 -0.46822,0.107341 -0.90989,0.273232 -1.32502,0.497672 -0.41512,0.22444 -0.79646,0.514748 -1.144,0.870924 -0.34755,0.356177 -0.63717,0.783101 -0.86887,1.280772 -0.29927,-0.848969 -0.7506,-1.529607 -1.35398,-2.041916 -0.60338,-0.512309 -1.37329,-0.768463 -2.30973,-0.768463 -0.44409,0 -0.85197,0.05123 -1.22365,0.153693 -0.37168,0.102461 -0.71923,0.241517 -1.04264,0.417165 -0.32341,0.175649 -0.62752,0.385452 -0.91231,0.629408 -0.28479,0.243957 -0.55752,0.512309 -0.81818,0.805057 v 0 l -0.2317,-1.112442 C 223.08086,20.952761 222.77676,20.7332 222.31336,20.7332 v 0 h -2.18664 v 15.017964 z m 26.00914,0.219561 c 0.52132,0 1.05953,-0.03903 1.61464,-0.117099 0.55511,-0.07807 1.10057,-0.212242 1.63637,-0.402528 0.5358,-0.190286 1.04987,-0.444001 1.54223,-0.761145 0.49236,-0.317143 0.93644,-0.709913 1.33226,-1.17831 v 0 l -1.04264,-1.317365 c -0.0772,-0.107341 -0.16894,-0.190286 -0.27514,-0.248836 -0.10619,-0.05855 -0.2317,-0.08782 -0.37651,-0.08782 -0.22204,0 -0.45132,0.06831 -0.68785,0.204924 -0.23652,0.136615 -0.51166,0.287868 -0.82542,0.453759 -0.31376,0.16589 -0.68061,0.317143 -1.10056,0.453759 -0.41995,0.136616 -0.91955,0.204923 -1.49879,0.204923 -1.1778,0 -2.1239,-0.361055 -2.8383,-1.083167 -0.7144,-0.722111 -1.12469,-1.854069 -1.23089,-3.395875 v 0 h 9.18101 c 0.16412,0 0.29927,-0.02196 0.40547,-0.06587 0.10619,-0.04391 0.19067,-0.117099 0.25342,-0.219561 0.0628,-0.102461 0.10619,-0.243956 0.13033,-0.424484 0.0241,-0.180528 0.0362,-0.407408 0.0362,-0.680639 0,-1.083167 -0.15929,-2.046795 -0.47787,-2.890885 -0.31859,-0.844089 -0.76268,-1.556442 -1.33226,-2.137059 -0.56959,-0.580616 -1.24779,-1.022178 -2.0346,-1.324684 -0.7868,-0.302506 -1.64843,-0.453759 -2.58487,-0.453759 -1.11022,0 -2.107,0.195165 -2.99035,0.585496 -0.88334,0.39033 -1.63153,0.919716 -2.24456,1.588157 -0.61304,0.668441 -1.08367,1.453981 -1.41191,2.35662 -0.32824,0.902639 -0.49236,1.866267 -0.49236,2.890885 0,1.317365 0.18826,2.476158 0.56477,3.47638 0.3765,1.000222 0.893,1.839433 1.54947,2.517632 0.65648,0.678199 1.4288,1.190508 2.31698,1.536926 0.88817,0.346418 1.84875,0.519627 2.88173,0.519627 z m 3.04103,-9.455755 h -6.71922 c 0.16411,-1.092925 0.54062,-1.937015 1.12952,-2.532269 0.5889,-0.595254 1.40467,-0.892881 2.4473,-0.892881 0.53098,0 0.99437,0.09026 1.39019,0.270792 0.39581,0.180528 0.72405,0.426924 0.98471,0.739188 0.26066,0.312265 0.45374,0.67576 0.57925,1.090486 0.1255,0.414726 0.18825,0.856287 0.18825,1.324684 z m 8.5884,9.236194 V 24.89022 c 0.4827,-0.487913 0.99437,-0.873365 1.53499,-1.156354 0.54063,-0.28299 1.11987,-0.424485 1.73773,-0.424485 0.83991,0 1.46983,0.251275 1.88978,0.753826 0.41996,0.50255 0.62993,1.212464 0.62993,2.12974 v 0 9.558217 h 3.57683 v -9.558217 c 0,-0.83921 -0.10861,-1.607673 -0.32582,-2.305389 -0.21722,-0.697716 -0.5358,-1.297848 -0.95576,-1.800399 -0.41995,-0.50255 -0.94368,-0.892881 -1.57119,-1.170991 -0.62752,-0.278111 -1.34674,-0.417166 -2.15769,-0.417166 -0.50201,0 -0.9654,0.04879 -1.39018,0.146374 -0.42478,0.09758 -0.82301,0.239077 -1.19469,0.424484 -0.37168,0.185407 -0.72405,0.404968 -1.05712,0.658683 -0.33306,0.253715 -0.64923,0.536704 -0.94851,0.848969 v 0 l -0.24618,-1.185629 C 260.71943,20.952761 260.41533,20.7332 259.95193,20.7332 v 0 h -2.18664 v 15.017964 z m 16.65436,0.234199 c 0.72405,0 1.42397,-0.11222 2.09976,-0.33666 0.67578,-0.22444 1.27433,-0.556221 1.79565,-0.995343 v 0 l -1.0716,-1.756487 c -0.0772,-0.107341 -0.14964,-0.187847 -0.21721,-0.241517 -0.0676,-0.05367 -0.15447,-0.08051 -0.26066,-0.08051 -0.0869,0 -0.17378,0.02684 -0.26066,0.08051 -0.0869,0.05367 -0.18584,0.10978 -0.29687,0.16833 -0.11102,0.05855 -0.24135,0.114659 -0.39098,0.16833 -0.14964,0.05367 -0.33548,0.08051 -0.55753,0.08051 -0.38616,0 -0.69509,-0.131737 -0.92679,-0.39521 -0.23169,-0.263473 -0.34754,-0.629408 -0.34754,-1.097804 v 0 -8.13839 h 3.90989 v -2.576181 h -3.90989 v -4.727878 h -1.85358 c -0.21239,0 -0.38858,0.05367 -0.52856,0.161012 -0.13998,0.10734 -0.22928,0.258593 -0.2679,0.453759 v 0 l -0.75302,4.098469 -2.38938,0.39521 v 1.434464 c 0,0.253715 0.07,0.444001 0.20998,0.570859 0.13998,0.126857 0.30652,0.190286 0.4996,0.190286 v 0 h 1.50603 v 8.387225 c 0,1.297849 0.34755,2.315148 1.04264,3.051897 0.69509,0.736748 1.68463,1.105123 2.96862,1.105123 z m 9.06627,0 c 0.95576,0 1.8029,-0.124418 2.54143,-0.373254 0.73854,-0.248836 1.35881,-0.595254 1.86083,-1.039255 0.50201,-0.444001 0.88334,-0.970947 1.144,-1.580838 C 292.86967,32.382125 293,31.716123 293,30.994012 c 0,-0.605012 -0.10378,-1.1222 -0.31134,-1.551564 -0.20757,-0.429363 -0.48271,-0.797737 -0.82543,-1.105123 -0.34271,-0.307385 -0.73129,-0.5611 -1.16572,-0.761144 -0.43443,-0.200044 -0.87852,-0.378133 -1.33226,-0.534265 -0.45374,-0.156132 -0.89783,-0.300066 -1.33226,-0.431803 -0.43444,-0.131736 -0.82301,-0.28055 -1.16573,-0.44644 -0.34272,-0.165891 -0.61786,-0.358616 -0.82542,-0.578177 -0.20756,-0.219561 -0.31134,-0.490353 -0.31134,-0.812376 0,-0.487913 0.20273,-0.883122 0.6082,-1.185628 0.40547,-0.302506 0.96058,-0.45376 1.66533,-0.45376 0.45374,0 0.84714,0.04879 1.1802,0.146374 0.33307,0.09758 0.62993,0.207363 0.89059,0.329342 0.26066,0.121978 0.48994,0.231758 0.68785,0.329341 0.19791,0.09758 0.38375,0.146374 0.55752,0.146374 0.16412,0 0.29928,-0.03171 0.40547,-0.09514 0.1062,-0.06343 0.20757,-0.173209 0.30411,-0.329341 v 0 l 0.81094,-1.302728 c -0.55994,-0.556221 -1.25986,-1.005101 -2.09976,-1.34664 -0.8399,-0.341539 -1.77152,-0.512309 -2.79485,-0.512309 -0.91713,0 -1.72566,0.124418 -2.42558,0.373254 -0.69992,0.248835 -1.28399,0.580616 -1.75221,0.995342 -0.46822,0.414726 -0.82301,0.9002 -1.06436,1.456421 -0.24135,0.55622 -0.36203,1.141716 -0.36203,1.756487 0,0.663561 0.10378,1.229541 0.31134,1.697937 0.20757,0.468397 0.48271,0.863606 0.82543,1.185629 0.34272,0.322022 0.7337,0.587935 1.17296,0.797738 0.43926,0.209802 0.88818,0.39277 1.34675,0.548902 0.45856,0.156132 0.90748,0.300066 1.34674,0.431803 0.43926,0.131736 0.83024,0.28055 1.17296,0.44644 0.34272,0.165891 0.61786,0.361056 0.82543,0.585496 0.20756,0.22444 0.31134,0.512309 0.31134,0.863606 0,0.234199 -0.0459,0.461078 -0.13757,0.680639 -0.0917,0.219561 -0.23653,0.412287 -0.43443,0.578177 -0.19791,0.16589 -0.44892,0.300066 -0.75302,0.402528 -0.3041,0.102462 -0.66854,0.153693 -1.09332,0.153693 -0.54063,0 -0.98713,-0.06343 -1.3395,-0.190286 -0.35238,-0.126858 -0.65889,-0.263473 -0.91955,-0.409847 -0.26066,-0.146374 -0.48995,-0.28299 -0.68785,-0.409847 -0.19791,-0.126858 -0.40789,-0.190286 -0.62993,-0.190286 -0.22204,0 -0.40547,0.04391 -0.55028,0.131736 -0.14481,0.08783 -0.27031,0.214682 -0.37651,0.380572 v 0 l -0.82542,1.375915 c 0.28962,0.263473 0.6251,0.50743 1.00643,0.73187 0.38134,0.22444 0.79646,0.419605 1.24538,0.585495 0.44891,0.165891 0.91713,0.295188 1.40466,0.387891 0.48753,0.0927 0.98713,0.139056 1.49879,0.139056 z"
       id="UnlimitedElements"
       fill="#000000"
       fill-rule="nonzero" />
    <g
       id="text3"
       style="font-style:italic;font-size:12px;font-family:Sans;-inkscape-font-specification:'Sans, Italic';white-space:pre;inline-size:176.03;fill:#000000"
       transform="translate(53,5.7939189)"
       aria-label="for Elementor">
      <path
         style="fill:#808080"
         d="m 165.29509,48.403647 q -0.24,0 -0.42,-0.036 -0.192,-0.036 -0.348,-0.084 v -0.888 q 0.168,0.048 0.324,0.084 0.156,0.048 0.348,0.048 0.432,0 0.672,-0.36 0.24,-0.348 0.384,-1.008 l 1.32,-6.264 h -1.116 l 0.084,-0.444 1.2,-0.396 0.132,-0.576 q 0.18,-0.828 0.468,-1.284 0.288,-0.468 0.708,-0.66 0.42,-0.192 1.008,-0.192 0.3,0 0.612,0.072 0.312,0.06 0.516,0.156 l -0.276,0.804 q -0.168,-0.06 -0.372,-0.108 -0.204,-0.06 -0.432,-0.06 -0.468,0 -0.744,0.264 -0.276,0.264 -0.432,1.008 l -0.144,0.612 h 1.38 l -0.156,0.804 h -1.38 l -1.344,6.384 q -0.216,0.996 -0.672,1.56 -0.456,0.564 -1.32,0.564 z"
         id="path12" />
      <path
         style="fill:#808080"
         d="m 172.6631,45.619647 q -1.116,0 -1.764,-0.66 -0.636,-0.672 -0.636,-1.812 0,-0.744 0.204,-1.476 0.204,-0.732 0.6,-1.332 0.408,-0.6 1.008,-0.96 0.612,-0.372 1.404,-0.372 1.128,0 1.764,0.672 0.636,0.66 0.636,1.812 0,0.732 -0.204,1.464 -0.204,0.732 -0.612,1.332 -0.396,0.6 -0.996,0.972 -0.6,0.36 -1.404,0.36 z m 0.06,-0.876 q 0.564,0 1.032,-0.396 0.48,-0.408 0.756,-1.164 0.288,-0.756 0.288,-1.812 0,-0.36 -0.132,-0.696 -0.12,-0.348 -0.408,-0.564 -0.288,-0.228 -0.768,-0.228 -0.66,0 -1.152,0.456 -0.48,0.444 -0.744,1.2 -0.264,0.744 -0.264,1.644 0,0.744 0.36,1.152 0.372,0.408 1.032,0.408 z m 4.056,0.78 1.368,-6.432 h 0.864 l -0.132,1.188 h 0.06 q 0.252,-0.324 0.528,-0.624 0.276,-0.3 0.624,-0.492 0.348,-0.192 0.804,-0.192 0.168,0 0.348,0.024 0.192,0.012 0.348,0.06 l -0.228,0.948 q -0.324,-0.072 -0.612,-0.072 -0.6,0 -1.068,0.396 -0.468,0.396 -0.78,1.008 -0.312,0.612 -0.444,1.248 l -0.624,2.94 z m 8.05201,0 1.812,-8.568 h 4.344 l -0.204,0.948 h -3.276 l -0.564,2.676 h 3.06 l -0.18,0.936 h -3.072 l -0.66,3.06 h 3.288 l -0.204,0.948 z m 6,0 1.944,-9.12 h 1.056 l -1.944,9.12 z m 5.67599,0.12 q -1.116,0 -1.728,-0.648 -0.6,-0.66 -0.6,-1.776 0,-0.768 0.216,-1.512 0.228,-0.756 0.648,-1.368 0.42,-0.624 1.008,-0.996 0.6,-0.372 1.344,-0.372 0.912,0 1.368,0.396 0.468,0.396 0.468,1.104 0,0.636 -0.396,1.152 -0.384,0.504 -1.212,0.816 -0.828,0.3 -2.148,0.3 h -0.204 q -0.012,0.108 -0.024,0.228 0,0.12 0,0.216 0,0.732 0.348,1.164 0.36,0.42 1.104,0.42 0.456,0 0.864,-0.12 0.408,-0.132 0.888,-0.372 v 0.9 q -0.456,0.204 -0.9,0.336 -0.432,0.132 -1.044,0.132 z m -1.08,-3.756 h 0.084 q 0.72,0 1.332,-0.12 0.612,-0.132 0.984,-0.42 0.372,-0.3 0.372,-0.792 0,-0.312 -0.216,-0.504 -0.204,-0.204 -0.648,-0.204 -0.576,0 -1.116,0.54 -0.528,0.528 -0.792,1.5 z m 4.50001,3.636 1.368,-6.432 h 0.864 l -0.132,1.188 h 0.06 q 0.216,-0.3 0.504,-0.6 0.3,-0.3 0.684,-0.504 0.384,-0.204 0.876,-0.204 0.66,0 1.02,0.384 0.36,0.384 0.432,1.044 h 0.048 q 0.24,-0.348 0.564,-0.672 0.336,-0.336 0.744,-0.54 0.408,-0.216 0.9,-0.216 0.744,0 1.152,0.408 0.408,0.408 0.408,1.176 0,0.288 -0.036,0.54 -0.036,0.252 -0.096,0.516 l -0.828,3.912 h -1.068 l 0.864,-4.032 q 0.048,-0.264 0.072,-0.456 0.036,-0.204 0.036,-0.384 0,-0.36 -0.204,-0.576 -0.192,-0.216 -0.612,-0.216 -0.396,0 -0.828,0.288 -0.432,0.288 -0.816,0.9 -0.372,0.612 -0.576,1.572 l -0.612,2.904 h -1.056 l 0.852,-4.032 q 0.108,-0.54 0.108,-0.792 0,-0.396 -0.18,-0.612 -0.18,-0.228 -0.6,-0.228 -0.384,0 -0.828,0.288 -0.444,0.276 -0.828,0.912 -0.384,0.636 -0.612,1.692 l -0.588,2.772 z m 13.068,0.12 q -1.116,0 -1.728,-0.648 -0.6,-0.66 -0.6,-1.776 0,-0.768 0.216,-1.512 0.228,-0.756 0.648,-1.368 0.42,-0.624 1.008,-0.996 0.6,-0.372 1.344,-0.372 0.912,0 1.368,0.396 0.468,0.396 0.468,1.104 0,0.636 -0.396,1.152 -0.384,0.504 -1.212,0.816 -0.828,0.3 -2.148,0.3 h -0.204 q -0.012,0.108 -0.024,0.228 0,0.12 0,0.216 0,0.732 0.348,1.164 0.36,0.42 1.104,0.42 0.456,0 0.864,-0.12 0.408,-0.132 0.888,-0.372 v 0.9 q -0.456,0.204 -0.9,0.336 -0.432,0.132 -1.044,0.132 z m -1.08,-3.756 h 0.084 q 0.72,0 1.332,-0.12 0.612,-0.132 0.984,-0.42 0.372,-0.3 0.372,-0.792 0,-0.312 -0.216,-0.504 -0.204,-0.204 -0.648,-0.204 -0.576,0 -1.116,0.54 -0.528,0.528 -0.792,1.5 z m 4.45201,3.672 1.38,-6.504 h 0.936 l -0.132,1.188 q 0.228,-0.288 0.54,-0.588 0.312,-0.312 0.708,-0.516 0.408,-0.204 0.936,-0.204 0.768,0 1.212,0.432 0.444,0.42 0.444,1.188 0,0.276 -0.048,0.564 -0.036,0.288 -0.084,0.504 l -0.852,3.936 h -1.128 l 0.864,-4.08 q 0.048,-0.276 0.084,-0.456 0.036,-0.192 0.036,-0.36 0,-0.768 -0.816,-0.768 -0.408,0 -0.876,0.288 -0.456,0.276 -0.864,0.9 -0.396,0.624 -0.612,1.68 l -0.6,2.796 z m 8.88,0.084 q -0.648,0 -1.092,-0.312 -0.444,-0.312 -0.444,-1.092 0,-0.384 0.108,-0.852 l 0.732,-3.492 h -0.996 l 0.096,-0.48 1.08,-0.456 0.744,-1.332 h 0.624 l -0.324,1.464 h 1.62 l -0.168,0.804 h -1.608 l -0.744,3.504 q -0.036,0.156 -0.072,0.36 -0.036,0.192 -0.036,0.36 0,0.276 0.144,0.468 0.156,0.192 0.492,0.192 0.216,0 0.42,-0.036 0.204,-0.048 0.432,-0.12 v 0.804 q -0.144,0.072 -0.444,0.144 -0.3,0.072 -0.564,0.072 z m 4.74001,-0.024 q -1.116,0 -1.764,-0.66 -0.636,-0.672 -0.636,-1.812 0,-0.744 0.204,-1.476 0.204,-0.732 0.6,-1.332 0.408,-0.6 1.008,-0.96 0.612,-0.372 1.404,-0.372 1.128,0 1.764,0.672 0.636,0.66 0.636,1.812 0,0.732 -0.204,1.464 -0.204,0.732 -0.612,1.332 -0.396,0.6 -0.996,0.972 -0.6,0.36 -1.404,0.36 z m 0.06,-0.876 q 0.564,0 1.032,-0.396 0.48,-0.408 0.756,-1.164 0.288,-0.756 0.288,-1.812 0,-0.36 -0.132,-0.696 -0.12,-0.348 -0.408,-0.564 -0.288,-0.228 -0.768,-0.228 -0.66,0 -1.152,0.456 -0.48,0.444 -0.744,1.2 -0.264,0.744 -0.264,1.644 0,0.744 0.36,1.152 0.372,0.408 1.032,0.408 z m 4.056,0.78 1.368,-6.432 h 0.864 l -0.132,1.188 h 0.06 q 0.252,-0.324 0.528,-0.624 0.276,-0.3 0.624,-0.492 0.348,-0.192 0.804,-0.192 0.168,0 0.348,0.024 0.192,0.012 0.348,0.06 l -0.228,0.948 q -0.324,-0.072 -0.612,-0.072 -0.6,0 -1.068,0.396 -0.468,0.396 -0.78,1.008 -0.312,0.612 -0.444,1.248 l -0.624,2.94 z"
         id="path13" />
    </g>
  </g>
  <metadata
     id="metadata3">
    <rdf:RDF>
      <cc:Work
         rdf:about="">
        <dc:title>logo</dc:title>
      </cc:Work>
    </rdf:RDF>
  </metadata>
</svg>
