<svg xmlns="http://www.w3.org/2000/svg" width="72" height="92" fill="none" ><rect x=".75" y=".75" width="70.5" height="90.5" rx="3.25" fill="#fff"/><rect x=".75" y=".75" width="70.5" height="90.5" rx="3.25" stroke="#8796a1" stroke-width="1.5"/><rect x="14" y="14" width="44" height="42" rx="3" fill="#718491"/><path d="M51 30.613l-7.187-6.958L40.219 23c0 2.168-1.823 3.933-4.167 3.933S31.885 25.168 31.885 23l-3.594.655L21 30.412l4.948 4.79 2.396-2.319V47h15.469V33.135l2.292 2.218L51 30.613z" fill="#fff"/><g fill="#718491"><rect x="20" y="60" width="32" height="3" rx="1.5"/><rect x="28.597" y="65" width="14.806" height="3" rx="1.5"/><rect x="26.641" y="71.641" width="18.719" height="5.719" rx="2.859" stroke="#718491" stroke-width="1.281"/></g><rect x="30" y="73.5" width="12" height="2" rx="1" fill="#fff"/></svg>