<svg xmlns="http://www.w3.org/2000/svg" width="72" height="92" fill="none" ><rect x=".75" y=".75" width="70.5" height="90.5" rx="3.25" fill="#fff"/><rect x=".75" y=".75" width="70.5" height="90.5" rx="3.25" stroke="#8796a1" stroke-width="1.5"/><rect x="38" y="32" width="26" height="28" rx="1.773" fill="#718491"/><path d="M59.864 43.409l-4.247-4.112-2.124-.387c0 1.281-1.077 2.324-2.462 2.324s-2.462-1.043-2.462-2.324l-2.124.387-4.309 3.992 2.924 2.83 1.416-1.37v8.342h9.141v-8.193l1.354 1.311 2.893-2.801z" fill="#fff"/><g fill="#718491"><rect x="8" y="36" width="26" height="3" rx="1.5"/><rect x="8" y="41" width="14.806" height="3" rx="1.5"/><rect x="8.641" y="47.641" width="18.719" height="5.719" rx="2.859" stroke="#718491" stroke-width="1.281"/></g><rect x="12" y="49.5" width="12" height="2" rx="1" fill="#fff"/></svg>