<svg xmlns="http://www.w3.org/2000/svg" width="72" height="92" fill="none" ><rect x=".75" y=".75" width="70.5" height="90.5" rx="3.25" fill="#fff"/><rect x=".75" y=".75" width="70.5" height="90.5" rx="3.25" stroke="#8796a1" stroke-width="1.5"/><path d="M56.398 40.815l-9.583-8.697-4.792-.819c0 2.71-2.431 4.916-5.556 4.916s-5.556-2.206-5.556-4.916l-4.792.819-9.722 8.445 6.597 5.987 3.195-2.899v17.647h20.625V43.967l3.055 2.773 6.528-5.924z" fill="#718491"/><path d="M8 11a3 3 0 0 1 3-3h50a3 3 0 0 1 3 3v70a3 3 0 0 1-3 3H11a3 3 0 0 1-3-3V11z" fill="#000" fill-opacity=".6"/><g fill="#fff"><rect x="20" y="37" width="32" height="3" rx="1.5"/><rect x="28.597" y="42" width="14.806" height="3" rx="1.5"/><rect x="26.641" y="48.641" width="18.719" height="5.719" rx="2.859" stroke="#fff" stroke-width="1.281"/></g><rect x="30" y="50.5" width="12" height="2" rx="1" fill="#718491"/></svg>