<svg xmlns="http://www.w3.org/2000/svg" width="32" height="60" fill="none" xmlns:v="https://vecta.io/nano"><use href="#B" fill="#fff"/><use href="#B" stroke="#8796a1" stroke-width=".75"/><path d="M32 29.625H0v.75h32v-.75z" fill="#8796a1"/><path d="M15.55 18.384l-5.325-5.325c-.225-.225-.225-.675 0-.9l.6-.6c.225-.225.675-.225.9 0l4.275 4.2 4.275-4.2c.225-.225.675-.225.9 0l.6.6c.225.225.225.675 0 .9l-5.325 5.325c-.225.3-.6.3-.9 0z" fill="#58707f"/><path d="M0 30.375h32v-.75H0v.75z" fill="#8796a1"/><path d="M16.45 41.588l5.325 5.325c.225.225.225.675 0 .9l-.6.6c-.225.225-.675.225-.9 0L16 44.213l-4.275 4.2c-.225.225-.675.225-.9 0l-.6-.6c-.225-.225-.225-.675 0-.9l5.325-5.325c.225-.225.675-.225.9 0z" fill="#58707f"/><defs ><path id="B" d="M.75.375h30.5c.207 0 .375.168.375.375v58.5c0 .207-.168.375-.375.375H.75c-.207 0-.375-.168-.375-.375V.75C.375.543.543.375.75.375z"/></defs></svg>