<svg xmlns="http://www.w3.org/2000/svg" width="32" height="60" fill="none" xmlns:v="https://vecta.io/nano"><use href="#B" fill="#fff"/><use href="#B" stroke="#8796a1" stroke-width=".75"/><path d="M32 29.625H0v.75h32v-.75z" fill="#8796a1"/><path d="M12.213 15.685l-.45-.45c-.225-.225-.225-.525 0-.675l3.9-3.9c.225-.225.525-.225.675 0l3.9 3.9c.225.225.225.525 0 .675l-.45.45c-.225.225-.525.15-.675 0l-2.325-2.4v5.775a.43.43 0 0 1-.45.45h-.675a.43.43 0 0 1-.45-.45v-5.775l-2.325 2.4c-.225.225-.525.225-.675 0z" fill="#58707f"/><path d="M0 30.375h32v-.75H0v.75z" fill="#8796a1"/><path d="M19.788 44.316l.45.45c.225.225.225.525 0 .675l-3.9 3.9c-.225.225-.525.225-.675 0l-3.9-3.9c-.225-.225-.225-.525 0-.675l.45-.45c.225-.225.525-.15.675 0l2.325 2.4v-5.775a.43.43 0 0 1 .45-.45h.675a.43.43 0 0 1 .45.45v5.775l2.325-2.4c.225-.15.525-.15.675 0z" fill="#58707f"/><defs ><path id="B" d="M.75.375h30.5c.207 0 .375.168.375.375v58.5c0 .207-.168.375-.375.375H.75c-.207 0-.375-.168-.375-.375V.75C.375.543.543.375.75.375z"/></defs></svg>