<svg xmlns="http://www.w3.org/2000/svg" width="32" height="60" fill="none" xmlns:v="https://vecta.io/nano"><use href="#B" fill="#fff"/><use href="#B" stroke="#8796a1" stroke-width=".75"/><path d="M32 29.625H0v.75h32v-.75z" fill="#8796a1"/><path d="M10.805 11.625h10.35c.75 0 1.05.9.6 1.35L16.58 18.15c-.3.3-.825.3-1.125 0l-5.175-5.175c-.525-.525-.15-1.35.525-1.35z" fill="#58707f"/><path d="M0 30.375h32v-.75H0v.75z" fill="#8796a1"/><path d="M12.625 50.17V39.82c0-.75.9-1.05 1.35-.6l5.175 5.175c.3.3.3.825 0 1.125l-5.175 5.175c-.45.6-1.35.225-1.35-.525z" fill="#58707f"/><defs ><path id="B" d="M.75.375h30.5c.207 0 .375.168.375.375v58.5c0 .207-.168.375-.375.375H.75c-.207 0-.375-.168-.375-.375V.75C.375.543.543.375.75.375z"/></defs></svg>