<svg xmlns="http://www.w3.org/2000/svg" width="32" height="60" fill="none" xmlns:v="https://vecta.io/nano"><use href="#B" fill="#fff"/><use href="#B" stroke="#8796a1" stroke-width=".75"/><path d="M32 29.625H0v.75h32v-.75z" fill="#8796a1"/><path d="M21.063 13.763h-3.825V9.938c0-.45-.375-.825-.825-.825h-.825c-.45 0-.825.375-.825.825v3.825h-3.825c-.45 0-.825.375-.825.825v.825c0 .45.375.825.825.825h3.825v3.825c0 .45.375.825.825.825h.825c.45 0 .825-.375.825-.825v-3.825h3.825c.45 0 .825-.375.825-.825v-.825c0-.45-.375-.825-.825-.825z" fill="#58707f"/><path d="M0 30.375h32v-.75H0v.75z" fill="#8796a1"/><path d="M18.7 40.528l-2.7 2.7-2.7-2.7c-.3-.3-.9-.3-1.2 0l-.6.6c-.3.3-.3.9 0 1.2l2.7 2.7-2.7 2.7c-.3.3-.3.9 0 1.2l.6.6c.3.3.9.3 1.2 0l2.7-2.7 2.7 2.7c.3.3.9.3 1.2 0l.6-.6c.3-.3.3-.9 0-1.2l-2.7-2.7 2.7-2.7c.3-.3.3-.9 0-1.2l-.6-.6c-.3-.375-.825-.375-1.2 0z" fill="#58707f"/><defs ><path id="B" d="M.75.375h30.5c.207 0 .375.168.375.375v58.5c0 .207-.168.375-.375.375H.75c-.207 0-.375-.168-.375-.375V.75C.375.543.543.375.75.375z"/></defs></svg>