<svg xmlns="http://www.w3.org/2000/svg" width="32" height="60" fill="none" xmlns:v="https://vecta.io/nano"><rect x=".375" y=".375" width="31.25" height="59.25" rx=".375" fill="#fff"/><rect x=".375" y=".375" width="31.25" height="59.25" rx=".375" stroke="#8796a1" stroke-width=".75"/><path d="M32 29.625H0v.75h32v-.75z" fill="#8796a1"/><path d="M21.063 13.763h-3.825V9.938c0-.45-.375-.825-.825-.825h-.825c-.45 0-.825.375-.825.825v3.825h-3.825c-.45 0-.825.375-.825.825v.825c0 .45.375.825.825.825h3.825v3.825c0 .45.375.825.825.825h.825c.45 0 .825-.375.825-.825v-3.825h3.825c.45 0 .825-.375.825-.825v-.825c0-.45-.375-.825-.825-.825z" fill="#58707f"/><path d="M0 30.375h32v-.75H0v.75z" fill="#8796a1"/><path d="M21.138 43.763H10.863c-.45 0-.825.375-.825.825v.825c0 .45.375.825.825.825h10.275c.45 0 .825-.375.825-.825v-.825c0-.45-.375-.825-.825-.825z" fill="#58707f"/></svg>