<svg xmlns="http://www.w3.org/2000/svg" width="32" height="60" fill="none" xmlns:v="https://vecta.io/nano"><use href="#B" fill="#fff"/><use href="#B" stroke="#8796a1" stroke-width=".75"/><path d="M32 29.625H0v.75h32v-.75z" fill="#8796a1"/><path d="M22 20.4l-1.95-1.875v-.075c.3-.375.525-.75.75-1.275.3-.675.45-1.425.45-2.25s-.15-1.575-.45-2.25-.675-1.275-1.2-1.725c-.525-.525-1.125-.9-1.725-1.125-.675-.3-1.425-.45-2.25-.45a5.38 5.38 0 0 0-2.175.45c-.675.3-1.275.675-1.8 1.125-.525.525-.9 1.05-1.2 1.725S10 14.1 10 14.925s.15 1.575.45 2.25.675 1.275 1.2 1.8 1.125.9 1.8 1.2 1.425.45 2.25.45 1.575-.15 2.25-.45c.375-.15.75-.375 1.125-.6h.075l.9.9L22 20.4zm-4.275-2.025c-.6.375-1.275.525-2.025.525-.675 0-1.35-.15-1.875-.525-.6-.3-1.05-.825-1.35-1.35-.3-.6-.525-1.275-.525-2.025s.15-1.425.45-1.95c.3-.6.75-1.05 1.275-1.35s1.2-.525 1.875-.525c.75 0 1.425.15 1.95.525s.975.825 1.275 1.425.45 1.275.45 2.025c0 .825-.225 1.5-.6 2.1h-.075l-1.5-1.5H15.1s-.075.075 0 .075l2.625 2.55c0-.075 0-.075 0 0z" fill="#58707f"/><path d="M0 30.375h32v-.75H0v.75z" fill="#8796a1"/><path d="M19.525 50.906h1.8c.15 0 .225-.15.15-.225L16.15 39.206c-.075-.15-.225-.15-.3 0l-5.325 11.475c-.075.075 0 .225.15.225h1.8c.075 0 .15 0 .15-.075l1.2-2.7c0-.075.075-.075.15-.075h3.975c.075 0 .15 0 .15.075l1.2 2.7c.15 0 .15.075.225.075zm-2.175-4.575h-2.625c-.15 0-.225-.15-.15-.225l1.275-3.075c.075-.15.225-.15.3 0l1.275 3.075c.075.15 0 .225-.075.225z" fill="#58707f"/><defs ><path id="B" d="M.75.375h30.5c.207 0 .375.168.375.375v58.5c0 .207-.168.375-.375.375H.75c-.207 0-.375-.168-.375-.375V.75C.375.543.543.375.75.375z"/></defs></svg>