<svg xmlns="http://www.w3.org/2000/svg" width="54" height="56"><path d="M0 0 C17.82 0 35.64 0 54 0 C54 18.48 54 36.96 54 56 C36.18 56 18.36 56 0 56 C0 37.52 0 19.04 0 0 Z " fill="#0265E4" transform="translate(0,0)"></path><path d="M0 0 C17.82 0 35.64 0 54 0 C54 18.48 54 36.96 54 56 C36.18 56 18.36 56 0 56 C0 37.52 0 19.04 0 0 Z M5.07519531 8.50756836 C1.60738819 13.32107992 2.65694734 19.72198282 2.5949707 25.43823242 C2.57344938 26.92902882 2.53941512 28.41970085 2.49243164 29.90991211 C1.86988428 39.80184171 1.86988428 39.80184171 5.90234375 48.45703125 C11.23063888 53.3947198 17.6965292 52.22232373 24.5480957 52.24023438 C26.79351145 52.24991811 29.03800312 52.28092957 31.28320312 52.3125 C32.71614041 52.31903252 34.14908423 52.32428202 35.58203125 52.328125 C36.88374268 52.3374707 38.1854541 52.34681641 39.52661133 52.35644531 C43.31658068 51.96751193 45.08593757 51.43003823 48 49 C51.93946938 42.93391918 51.55832867 36.65255577 51.5559082 29.68725586 C51.56247591 27.5702654 51.61703322 25.45796015 51.67382812 23.34179688 C51.887793 14.89882354 51.887793 14.89882354 48.15234375 7.58984375 C42.93296101 2.56566934 35.68551666 3.67127645 28.91357422 3.5949707 C27.47810758 3.57342736 26.04277103 3.53936634 24.60791016 3.49243164 C13.83353694 2.95217702 13.83353694 2.95217702 5.07519531 8.50756836 Z " fill="#FCFDFE" transform="translate(0,0)"></path><path d="M0 0 C2.69990662 1.79993774 4.5418865 3.083773 6 6 C6.60315132 11.30773162 5.25074909 13.84626506 2 18 C0.70317626 19.36886951 -0.61823134 20.7169291 -2 22 C-6.68317784 20.26548969 -9.79620379 16.40759243 -12 12 C-12.43023798 8.12785818 -12.31669086 6.47503629 -10.125 3.1875 C-6.82233621 -0.21230096 -4.68601439 -0.45941318 0 0 Z " fill="#0E6DE5" transform="translate(30,17)"></path><path d="M0 0 C2.69990662 1.79993774 4.5418865 3.083773 6 6 C6.60315132 11.30773162 5.25074909 13.84626506 2 18 C0.70317626 19.36886951 -0.61823134 20.7169291 -2 22 C-6.68317784 20.26548969 -9.79620379 16.40759243 -12 12 C-12.43023798 8.12785818 -12.31669086 6.47503629 -10.125 3.1875 C-6.82233621 -0.21230096 -4.68601439 -0.45941318 0 0 Z M-8.375 3.625 C-10.54076549 6.79034956 -10.66698393 8.22042437 -10 12 C-8.53900002 14.51251554 -6.85234328 16.76395704 -5 19 C-2.62766389 18.96219702 -2.62766389 18.96219702 0 18 C2.61266502 14.96365957 3.86544397 12.84097519 4.5 8.875 C4.1924606 5.92886904 4.1924606 5.92886904 2.375 3.625 C-1.51410622 0.96403258 -4.48589378 0.96403258 -8.375 3.625 Z " fill="#DAE8FA" transform="translate(30,17)"></path><path d="M0 0 C2.625 0.375 2.625 0.375 5 1 C5.625 3.375 5.625 3.375 6 6 C5.34 6.66 4.68 7.32 4 8 C1.375 7.625 1.375 7.625 -1 7 C-1.625 4.625 -1.625 4.625 -2 2 C-1.34 1.34 -0.68 0.68 0 0 Z " fill="#8BB9F3" transform="translate(25,22)"></path><path d="M0 0 C0.99 0.33 1.98 0.66 3 1 C2.505 1.37125 2.01 1.7425 1.5 2.125 C-0.19565595 3.95807373 -0.19565595 3.95807373 -0.5625 6.625 C0.26635774 11.59814644 3.02466006 15.01516972 6 19 C1.65814613 17.0338775 -0.85617758 14.28764485 -3 10 C-3.30343947 6.51044604 -3.39470082 4.62494296 -1.5 1.625 C-1.005 1.08875 -0.51 0.5525 0 0 Z " fill="#E5EFFC" transform="translate(21,19)"></path><path d="M0 0 C2.125 0.375 2.125 0.375 4 1 C3.01 1.66 2.02 2.32 1 3 C1 3.66 1 4.32 1 5 C1.66 5.33 2.32 5.66 3 6 C3 6.66 3 7.32 3 8 C1.68 7.67 0.36 7.34 -1 7 C-1.625 4.625 -1.625 4.625 -2 2 C-1.34 1.34 -0.68 0.68 0 0 Z " fill="#E8F1FC" transform="translate(25,22)"></path><path d="M0 0 C0 0.33 0 0.66 0 1 C-1.65 1.33 -3.3 1.66 -5 2 C-5.33 2.99 -5.66 3.98 -6 5 C-6.66 5 -7.32 5 -8 5 C-8.33 6.65 -8.66 8.3 -9 10 C-9.33 10 -9.66 10 -10 10 C-10.32152515 6.46322336 -10.4131192 4.6037896 -8.375 1.625 C-5.3962104 -0.4131192 -3.53677664 -0.32152515 0 0 Z " fill="#3184ED" transform="translate(30,19)"></path></svg>