<svg xmlns="http://www.w3.org/2000/svg" xmlns:xlink="http://www.w3.org/1999/xlink" width="25px" height="25px" viewBox="0 0 25 25"><g id="surface1"><path style=" stroke:none;fill-rule:nonzero;fill:rgb(0.392157%,39.607844%,89.411765%);fill-opacity:1;" d="M 0 0 C 8.25 0 16.5 0 25 0 C 25 8.25 25 16.5 25 25 C 16.75 25 8.5 25 0 25 C 0 16.75 0 8.5 0 0 Z M 0 0 "></path><path style=" stroke:none;fill-rule:nonzero;fill:rgb(98.823529%,99.215686%,99.607843%);fill-opacity:1;" d="M 0 0 C 8.25 0 16.5 0 25 0 C 25 8.25 25 16.5 25 25 C 16.75 25 8.5 25 0 25 C 0 16.75 0 8.5 0 0 Z M 2.394531 3.9375 C 0.757812 6.167969 1.253906 9.128906 1.222656 11.777344 C 1.214844 12.46875 1.199219 13.15625 1.175781 13.847656 C 0.882812 18.425781 0.882812 18.425781 2.785156 22.433594 C 5.296875 24.71875 8.347656 24.175781 11.578125 24.183594 C 12.636719 24.191406 13.695312 24.203125 14.757812 24.21875 C 15.433594 24.222656 16.109375 24.222656 16.785156 24.226562 C 17.398438 24.230469 18.011719 24.234375 18.644531 24.238281 C 20.433594 24.058594 21.265625 23.808594 22.640625 22.683594 C 24.5 19.875 24.320312 16.96875 24.320312 13.742188 C 24.320312 12.765625 24.347656 11.785156 24.375 10.804688 C 24.476562 6.898438 24.476562 6.898438 22.714844 3.515625 C 20.25 1.1875 16.832031 1.699219 13.636719 1.664062 C 12.960938 1.65625 12.285156 1.636719 11.609375 1.617188 C 6.523438 1.367188 6.523438 1.367188 2.394531 3.9375 Z M 2.394531 3.9375 "></path><path style=" stroke:none;fill-rule:nonzero;fill:rgb(4.705882%,42.352942%,90.196079%);fill-opacity:1;" d="M 13.679688 8.332031 C 14.953125 9.167969 15.820312 9.761719 16.507812 11.109375 C 16.53125 12.035156 16.527344 12.964844 16.507812 13.890625 C 16.507812 15.632812 16.621094 16.164062 17.453125 17.59375 C 16.507812 17.128906 15.566406 16.667969 14.621094 16.203125 C 14.027344 16.316406 13.4375 16.433594 12.824219 16.550781 C 11.8125 16.699219 11.8125 16.699219 10.847656 16.667969 C 9.464844 15.566406 9.464844 15.566406 8.492188 14.351562 C 8.335938 14.199219 8.179688 14.046875 8.019531 13.890625 C 7.8125 12.105469 7.875 11.324219 8.902344 9.808594 C 10.460938 8.234375 11.46875 8.121094 13.679688 8.332031 Z M 13.679688 8.332031 "></path><path style=" stroke:none;fill-rule:nonzero;fill:rgb(86.666667%,91.764706%,98.431373%);fill-opacity:1;" d="M 13.679688 8.332031 C 14.953125 9.167969 15.820312 9.761719 16.507812 11.109375 C 16.53125 12.035156 16.527344 12.964844 16.507812 13.890625 C 16.507812 15.632812 16.621094 16.164062 17.453125 17.59375 C 16.507812 17.128906 15.566406 16.667969 14.621094 16.203125 C 14.027344 16.316406 13.4375 16.433594 12.824219 16.550781 C 11.8125 16.699219 11.8125 16.699219 10.847656 16.667969 C 9.464844 15.566406 9.464844 15.566406 8.492188 14.351562 C 8.335938 14.199219 8.179688 14.046875 8.019531 13.890625 C 7.8125 12.105469 7.875 11.324219 8.902344 9.808594 C 10.460938 8.234375 11.46875 8.121094 13.679688 8.332031 Z M 9.730469 10.011719 C 8.734375 11.441406 8.671875 12.1875 8.960938 13.890625 C 9.667969 15.046875 9.667969 15.046875 10.847656 15.742188 C 12.582031 16.023438 13.34375 15.964844 14.800781 14.988281 C 15.796875 13.558594 15.855469 12.8125 15.566406 11.109375 C 14.859375 9.953125 14.859375 9.953125 13.679688 9.257812 C 11.949219 8.976562 11.183594 9.035156 9.730469 10.011719 Z M 9.730469 10.011719 "></path></g></svg>