<svg xmlns="http://www.w3.org/2000/svg" width="55" height="53"><path d="M0 0 C18.15 0 36.3 0 55 0 C55 17.49 55 34.98 55 53 C36.85 53 18.7 53 0 53 C0 35.51 0 18.02 0 0 Z " fill="#0165E5" transform="translate(0,0)"></path><path d="M0 0 C18.15 0 36.3 0 55 0 C55 17.49 55 34.98 55 53 C36.85 53 18.7 53 0 53 C0 35.51 0 18.02 0 0 Z M6.07519531 7.50756836 C2.60738819 12.32107992 3.65694734 18.72198282 3.5949707 24.43823242 C3.57344938 25.92902882 3.53941512 27.41970085 3.49243164 28.90991211 C2.86988428 38.80184171 2.86988428 38.80184171 6.90234375 47.45703125 C12.13439238 52.30552893 18.3346867 51.22200491 25.06591797 51.24023438 C27.2279362 51.24990135 29.38898776 51.28090494 31.55078125 51.3125 C32.93489021 51.3190343 34.31900595 51.32428309 35.703125 51.328125 C36.95770508 51.3374707 38.21228516 51.34681641 39.50488281 51.35644531 C43.44025357 50.95510127 45.72760202 50.22176752 49 48 C53.01858818 42.02187776 52.5583143 35.61118878 52.5559082 28.68725586 C52.56247591 26.5702654 52.61703322 24.45796015 52.67382812 22.34179688 C52.887793 13.89882354 52.887793 13.89882354 49.15234375 6.58984375 C43.93296101 1.56566934 36.68551666 2.67127645 29.91357422 2.5949707 C28.47810758 2.57342736 27.04277103 2.53936634 25.60791016 2.49243164 C14.83353694 1.95217702 14.83353694 1.95217702 6.07519531 7.50756836 Z " fill="#FCFDFE" transform="translate(0,0)"></path><path d="M0 0 C0.66 0 1.32 0 2 0 C2 0.66 2 1.32 2 2 C3.98 2 5.96 2 8 2 C8 1.34 8 0.68 8 0 C8.66 0 9.32 0 10 0 C10 0.66 10 1.32 10 2 C12.475 2.495 12.475 2.495 15 3 C15.02683987 5.97922593 15.04676037 8.95821295 15.0625 11.9375 C15.07087891 12.78763672 15.07925781 13.63777344 15.08789062 14.51367188 C15.09272461 15.72700195 15.09272461 15.72700195 15.09765625 16.96484375 C15.10551147 18.08814087 15.10551147 18.08814087 15.11352539 19.23413086 C15 21 15 21 14 22 C12.66956375 22.0983721 11.33406656 22.13078592 10 22.1328125 C9.195625 22.13410156 8.39125 22.13539062 7.5625 22.13671875 C6.716875 22.13285156 5.87125 22.12898438 5 22.125 C4.154375 22.12886719 3.30875 22.13273437 2.4375 22.13671875 C1.633125 22.13542969 0.82875 22.13414063 0 22.1328125 C-0.7425 22.13168457 -1.485 22.13055664 -2.25 22.12939453 C-4 22 -4 22 -5 21 C-5.08631874 19.65732587 -5.10706473 18.31025678 -5.09765625 16.96484375 C-5.09443359 16.15595703 -5.09121094 15.34707031 -5.08789062 14.51367188 C-5.07951172 13.66353516 -5.07113281 12.81339844 -5.0625 11.9375 C-5.05798828 11.08349609 -5.05347656 10.22949219 -5.04882812 9.34960938 C-5.03700373 7.23304337 -5.01906769 5.11651315 -5 3 C-3.35 2.67 -1.7 2.34 0 2 C0 1.34 0 0.68 0 0 Z " fill="#FAFCFE" transform="translate(23,16)"></path><path d="M0 0 C5.28 0 10.56 0 16 0 C16 3.3 16 6.6 16 10 C10.72 10 5.44 10 0 10 C0 6.7 0 3.4 0 0 Z " fill="#0063E2" transform="translate(20,26)"></path><path d="M0 0 C0.99 0 1.98 0 3 0 C3 0.66 3 1.32 3 2 C3.66 2 4.32 2 5 2 C5 1.34 5 0.68 5 0 C6.98 0 8.96 0 11 0 C11 0.66 11 1.32 11 2 C11.66 2 12.32 2 13 2 C13 1.34 13 0.68 13 0 C13.99 0 14.98 0 16 0 C16 1.32 16 2.64 16 4 C10.72 4 5.44 4 0 4 C0 2.68 0 1.36 0 0 Z " fill="#0267E7" transform="translate(20,20)"></path><path d="M0 0 C0.66 0 1.32 0 2 0 C2 0.66 2 1.32 2 2 C3.98 2 5.96 2 8 2 C8 1.34 8 0.68 8 0 C8.66 0 9.32 0 10 0 C10 0.66 10 1.32 10 2 C11.32 2.33 12.64 2.66 14 3 C12.68 3.33 11.36 3.66 10 4 C10 4.66 10 5.32 10 6 C9.34 6 8.68 6 8 6 C8 5.34 8 4.68 8 4 C6.02 4 4.04 4 2 4 C2 4.66 2 5.32 2 6 C1.34 6 0.68 6 0 6 C0 5.34 0 4.68 0 4 C-1.65 4.33 -3.3 4.66 -5 5 C-4.67 4.01 -4.34 3.02 -4 2 C-2.68 2 -1.36 2 0 2 C0 1.34 0 0.68 0 0 Z " fill="#EEF5FD" transform="translate(23,16)"></path></svg>