<svg xmlns="http://www.w3.org/2000/svg" width="53" height="54"><path d="M0 0 C17.49 0 34.98 0 53 0 C53 17.82 53 35.64 53 54 C35.51 54 18.02 54 0 54 C0 36.18 0 18.36 0 0 Z " fill="#0165E4" transform="translate(0,0)"></path><path d="M0 0 C17.49 0 34.98 0 53 0 C53 17.82 53 35.64 53 54 C35.51 54 18.02 54 0 54 C0 36.18 0 18.36 0 0 Z M5.07519531 8.50756836 C1.60738819 13.32107992 2.65694734 19.72198282 2.5949707 25.43823242 C2.57344938 26.92902882 2.53941512 28.41970085 2.49243164 29.90991211 C1.86988428 39.80184171 1.86988428 39.80184171 5.90234375 48.45703125 C11.23063888 53.3947198 17.6965292 52.22232373 24.5480957 52.24023438 C26.79351145 52.24991811 29.03800312 52.28092957 31.28320312 52.3125 C32.71614041 52.31903252 34.14908423 52.32428202 35.58203125 52.328125 C36.88374268 52.3374707 38.1854541 52.34681641 39.52661133 52.35644531 C43.31658068 51.96751193 45.08593757 51.43003823 48 49 C51.93946938 42.93391918 51.55832867 36.65255577 51.5559082 29.68725586 C51.56247591 27.5702654 51.61703322 25.45796015 51.67382812 23.34179688 C51.887793 14.89882354 51.887793 14.89882354 48.15234375 7.58984375 C42.93296101 2.56566934 35.68551666 3.67127645 28.91357422 3.5949707 C27.47810758 3.57342736 26.04277103 3.53936634 24.60791016 3.49243164 C13.83353694 2.95217702 13.83353694 2.95217702 5.07519531 8.50756836 Z " fill="#FCFDFE" transform="translate(0,0)"></path><path d="M0 0 C2.69990662 1.79993774 4.5418865 3.083773 6 6 C6.04346799 7.99952758 6.039992 10.00039988 6 12 C6 15.76687864 6.23537317 16.91190305 8 20 C6 19 4 18 2 17 C0.741875 17.2475 -0.51625 17.495 -1.8125 17.75 C-3.9609375 18.0703125 -3.9609375 18.0703125 -6 18 C-8.9375 15.625 -8.9375 15.625 -11 13 C-11.33 12.67 -11.66 12.34 -12 12 C-12.43784542 8.14696032 -12.30585252 6.45877878 -10.125 3.1875 C-6.82233621 -0.21230096 -4.68601439 -0.45941318 0 0 Z " fill="#0C6CE6" transform="translate(29,18)"></path><path d="M0 0 C2.69990662 1.79993774 4.5418865 3.083773 6 6 C6.04346799 7.99952758 6.039992 10.00039988 6 12 C6 15.76687864 6.23537317 16.91190305 8 20 C6 19 4 18 2 17 C0.741875 17.2475 -0.51625 17.495 -1.8125 17.75 C-3.9609375 18.0703125 -3.9609375 18.0703125 -6 18 C-8.9375 15.625 -8.9375 15.625 -11 13 C-11.33 12.67 -11.66 12.34 -12 12 C-12.43784542 8.14696032 -12.30585252 6.45877878 -10.125 3.1875 C-6.82233621 -0.21230096 -4.68601439 -0.45941318 0 0 Z M-8.375 3.625 C-10.48706506 6.71186432 -10.61195145 8.3282913 -10 12 C-8.5 14.5 -8.5 14.5 -6 16 C-2.3282913 16.61195145 -0.71186432 16.48706506 2.375 14.375 C4.48706506 11.28813568 4.61195145 9.6717087 4 6 C2.5 3.5 2.5 3.5 0 2 C-3.6717087 1.38804855 -5.28813568 1.51293494 -8.375 3.625 Z " fill="#DDEAFB" transform="translate(29,18)"></path></svg>