<svg xmlns="http://www.w3.org/2000/svg" width="54" height="56"><path d="M0 0 C17.82 0 35.64 0 54 0 C54 18.48 54 36.96 54 56 C36.18 56 18.36 56 0 56 C0 37.52 0 19.04 0 0 Z " fill="#0165E4" transform="translate(0,0)"></path><path d="M0 0 C17.82 0 35.64 0 54 0 C54 18.48 54 36.96 54 56 C36.18 56 18.36 56 0 56 C0 37.52 0 19.04 0 0 Z M5.07519531 8.50756836 C1.60738819 13.32107992 2.65694734 19.72198282 2.5949707 25.43823242 C2.57344938 26.92902882 2.53941512 28.41970085 2.49243164 29.90991211 C1.86988428 39.80184171 1.86988428 39.80184171 5.90234375 48.45703125 C11.13439238 53.30552893 17.3346867 52.22200491 24.06591797 52.24023438 C26.2279362 52.24990135 28.38898776 52.28090494 30.55078125 52.3125 C31.93489021 52.3190343 33.31900595 52.32428309 34.703125 52.328125 C35.95770508 52.3374707 37.21228516 52.34681641 38.50488281 52.35644531 C43.43075378 51.8540863 46.65762144 50.62735179 49.84350586 46.76513672 C52.02409327 41.55142909 51.55776926 35.90496074 51.5559082 30.33544922 C51.56246357 28.13721761 51.61695979 25.9435256 51.67382812 23.74609375 C51.9260361 15.09680725 51.9260361 15.09680725 48.15234375 7.5546875 C42.92243896 2.57173006 35.66970965 3.67109834 28.91357422 3.5949707 C27.47810758 3.57342736 26.04277103 3.53936634 24.60791016 3.49243164 C13.83353694 2.95217702 13.83353694 2.95217702 5.07519531 8.50756836 Z " fill="#FCFDFE" transform="translate(0,0)"></path><path d="M0 0 C7.26 0 14.52 0 22 0 C20 4 20 4 17.4375 6.625 C14.01806582 10.52717782 14.10857945 15.00534514 14 20 C9.125 19.125 9.125 19.125 8 18 C7.95875 16.824375 7.9175 15.64875 7.875 14.4375 C7.37323262 9.55187026 4.85782968 7.05961871 1.49609375 3.6640625 C0 2 0 2 0 0 Z " fill="#F1F6FD" transform="translate(16,18)"></path><path d="M0 0 C4.62 0 9.24 0 14 0 C11 5 11 5 9 7 C8.54188325 8.97235333 8.54188325 8.97235333 8.375 11.125 C8.25125 12.40375 8.1275 13.6825 8 15 C7.34 15 6.68 15 6 15 C5.9071875 13.205625 5.9071875 13.205625 5.8125 11.375 C5.25078554 6.58340548 3.27023879 4.43794334 0 1 C0 0.67 0 0.34 0 0 Z " fill="#0569E7" transform="translate(20,20)"></path><path d="M0 0 C7 7 7 7 7.1953125 8.9453125 C7.13020833 10.96354167 7.06510417 12.98177083 7 15 C7.66 15.33 8.32 15.66 9 16 C7.68 16 6.36 16 5 16 C4.9071875 14.205625 4.9071875 14.205625 4.8125 12.375 C4.25087713 7.59269617 2.31005449 5.39492769 -1 2 C-0.67 1.34 -0.34 0.68 0 0 Z " fill="#EFF5FD" transform="translate(19,20)"></path><path d="M0 0 C2.5 2.3125 2.5 2.3125 5 5 C5 5.99 5 6.98 5 8 C0.125 4.375 0.125 4.375 -1 1 C-0.67 0.67 -0.34 0.34 0 0 Z " fill="#DBE9FB" transform="translate(19,20)"></path></svg>