<svg xmlns="http://www.w3.org/2000/svg" width="512" height="512"><path d="M0 0 C1.01790619 0.00215515 2.03581238 0.0043103 3.08456421 0.00653076 C17.69363523 0.05620146 32.02575853 0.30709809 46.375 3.3125 C47.34985352 3.51117676 48.32470703 3.70985352 49.32910156 3.91455078 C97.7109774 14.03517194 141.69928269 35.9516877 177.375 70.3125 C178.3640332 71.26068604 178.3640332 71.26068604 179.37304688 72.22802734 C188.86130305 81.37247479 197.6012044 90.66984009 205.375 101.3125 C206.23306152 102.46355017 207.09113451 103.61459177 207.94921875 104.765625 C213.98677396 112.95525981 219.36957302 121.45788276 224.375 130.3125 C224.7771875 131.01971191 225.179375 131.72692383 225.59375 132.45556641 C238.6191741 155.59095836 247.36801461 180.76212409 252.6875 206.75 C252.83485596 207.46889404 252.98221191 208.18778809 253.1340332 208.9284668 C256.10789088 224.57475609 256.74800362 240.04818046 256.6875 255.9375 C256.68534485 256.95540619 256.6831897 257.97331238 256.68096924 259.02206421 C256.63129854 273.63113523 256.38040191 287.96325853 253.375 302.3125 C253.07698486 303.77478027 253.07698486 303.77478027 252.77294922 305.26660156 C242.65232806 353.6484774 220.7358123 397.63678269 186.375 433.3125 C185.74287598 433.97185547 185.11075195 434.63121094 184.45947266 435.31054688 C175.31502521 444.79880305 166.01765991 453.5387044 155.375 461.3125 C154.22394983 462.17056152 153.07290823 463.02863451 151.921875 463.88671875 C143.73224019 469.92427396 135.22961724 475.30707302 126.375 480.3125 C125.66778809 480.7146875 124.96057617 481.116875 124.23193359 481.53125 C101.09654164 494.5566741 75.92537591 503.30551461 49.9375 508.625 C49.21860596 508.77235596 48.49971191 508.91971191 47.7590332 509.0715332 C32.11274391 512.04539088 16.63931954 512.68550362 0.75 512.625 C-0.77685928 512.62176727 -0.77685928 512.62176727 -2.33456421 512.61846924 C-16.94363523 512.56879854 -31.27575853 512.31790191 -45.625 509.3125 C-47.08728027 509.01448486 -47.08728027 509.01448486 -48.57910156 508.71044922 C-91.84881524 499.65920074 -132.05019334 481.27479329 -165.625 452.3125 C-166.37007813 451.67828125 -167.11515625 451.0440625 -167.8828125 450.390625 C-181.38779833 438.57948485 -194.05918743 425.82889772 -204.625 411.3125 C-205.48149066 410.16255169 -206.33826433 409.01281411 -207.1953125 407.86328125 C-213.23534209 399.67315742 -218.61867614 391.16870382 -223.625 382.3125 C-224.0271875 381.60528809 -224.429375 380.89807617 -224.84375 380.16943359 C-237.8691741 357.03404164 -246.61801461 331.86287591 -251.9375 305.875 C-252.08485596 305.15610596 -252.23221191 304.43721191 -252.3840332 303.6965332 C-255.35789088 288.05024391 -255.99800362 272.57681954 -255.9375 256.6875 C-255.93534485 255.66959381 -255.9331897 254.65168762 -255.93096924 253.60293579 C-255.88129854 238.99386477 -255.63040191 224.66174147 -252.625 210.3125 C-252.42632324 209.33764648 -252.22764648 208.36279297 -252.02294922 207.35839844 C-241.90232806 158.9765226 -219.9858123 114.98821731 -185.625 79.3125 C-184.99287598 78.65314453 -184.36075195 77.99378906 -183.70947266 77.31445312 C-174.56502521 67.82619695 -165.26765991 59.0862956 -154.625 51.3125 C-153.47394983 50.45443848 -152.32290823 49.59636549 -151.171875 48.73828125 C-142.98224019 42.70072604 -134.47961724 37.31792698 -125.625 32.3125 C-124.91778809 31.9103125 -124.21057617 31.508125 -123.48193359 31.09375 C-100.34654164 18.0683259 -75.17537591 9.31948539 -49.1875 4 C-48.46860596 3.85264404 -47.74971191 3.70528809 -47.0090332 3.5534668 C-31.36274391 0.57960912 -15.88931954 -0.06050362 0 0 Z " fill="#0060E5" transform="translate(255.625,-0.3125)"></path><path d="M0 0 C17.51666701 21.41553805 25.87937034 53.89442504 31.3125 80.4375 C31.45985596 81.15639404 31.60721191 81.87528809 31.7590332 82.6159668 C34.73289088 98.26225609 35.37300362 113.73568046 35.3125 129.625 C35.31034485 130.64290619 35.3081897 131.66081238 35.30596924 132.70956421 C35.25629854 147.31863523 35.00540191 161.65075853 32 176 C31.70198486 177.46228027 31.70198486 177.46228027 31.39794922 178.95410156 C21.27732806 227.3359774 -0.6391877 271.32428269 -35 307 C-35.63212402 307.65935547 -36.26424805 308.31871094 -36.91552734 308.99804688 C-46.05997479 318.48630305 -55.35734009 327.2262044 -66 335 C-67.15105017 335.85806152 -68.30209177 336.71613451 -69.453125 337.57421875 C-77.64275981 343.61177396 -86.14538276 348.99457302 -95 354 C-95.70721191 354.4021875 -96.41442383 354.804375 -97.14306641 355.21875 C-120.27845836 368.2441741 -145.44962409 376.99301461 -171.4375 382.3125 C-172.15639404 382.45985596 -172.87528809 382.60721191 -173.6159668 382.7590332 C-189.26225609 385.73289088 -204.73568046 386.37300362 -220.625 386.3125 C-221.64290619 386.31034485 -222.66081238 386.3081897 -223.70956421 386.30596924 C-238.31863523 386.25629854 -252.65075853 386.00540191 -267 383 C-268.46228027 382.70198486 -268.46228027 382.70198486 -269.95410156 382.39794922 C-309.91898513 374.03801196 -351.30732062 357.76735593 -382 330 C-382.495 328.515 -382.495 328.515 -383 327 C-378.41711642 327.618035 -373.91089846 328.38476479 -369.38671875 329.33984375 C-355.64377631 332.1959958 -342.02933784 334.9851729 -328 336 C-326.90945313 336.0839502 -325.81890625 336.16790039 -324.6953125 336.25439453 C-271.74649109 340.10434135 -217.74870097 332.06257784 -170 308 C-169.05688965 307.53513184 -168.1137793 307.07026367 -167.14208984 306.59130859 C-153.08974466 299.64075695 -139.72515187 292.16609067 -127 283 C-126.31115723 282.5064502 -125.62231445 282.01290039 -124.91259766 281.50439453 C-115.18562883 274.4893804 -105.94736339 266.98174668 -97 259 C-96.42056641 258.48373047 -95.84113281 257.96746094 -95.24414062 257.43554688 C-89.43195824 252.2297409 -83.71338964 247.01691263 -78.70703125 241.01171875 C-77.47581637 239.56074469 -76.19552901 238.15091879 -74.88671875 236.76953125 C-49.79726314 210.28393572 -30.95283373 176.93318984 -18 143 C-17.70577148 142.24332031 -17.41154297 141.48664063 -17.10839844 140.70703125 C-4.60404039 108.21474941 1.25064541 73.73842368 1.125 39 C1.12411377 38.2890921 1.12322754 37.5781842 1.12231445 36.84573364 C1.1044 24.5438469 0.73556751 12.28135041 0 0 Z " fill="#004DBA" transform="translate(477,126)"></path><path d="M0 0 C0 69.3 0 138.6 0 210 C-16.17 210 -32.34 210 -49 210 C-49 156.87 -49 103.74 -49 49 C-64.51 49 -80.02 49 -96 49 C-96.020625 43.410625 -96.04125 37.82125 -96.0625 32.0625 C-96.071604 30.29656494 -96.08070801 28.53062988 -96.09008789 26.71118164 C-96.09300714 25.31917395 -96.09555567 23.92716541 -96.09765625 22.53515625 C-96.1053302 21.44164856 -96.1053302 21.44164856 -96.11315918 20.3260498 C-96.11347011 18.55029924 -96.06228515 16.77465792 -96 15 C-94.44326616 13.44326616 -92.72362205 13.53745726 -90.56982422 13.19970703 C-89.14970535 12.97409592 -89.14970535 12.97409592 -87.70089722 12.743927 C-86.66264801 12.58350922 -85.6243988 12.42309143 -84.5546875 12.2578125 C-83.47865265 12.08877411 -82.4026178 11.91973572 -81.29397583 11.74557495 C-78.99577247 11.38553158 -76.69724756 11.02753588 -74.3984375 10.67138672 C-70.96530652 10.13900402 -67.53337757 9.59938572 -64.1015625 9.05859375 C-52.30748965 7.21209258 -40.50981058 5.47386844 -28.66220093 4.0050354 C-22.14343356 3.18946136 -15.68796849 2.14848466 -9.23526001 0.9156189 C-6.05587164 0.31599455 -3.25887676 0 0 0 Z " fill="#FCFDFE" transform="translate(292,155)"></path></svg>