<svg xmlns="http://www.w3.org/2000/svg" xmlns:xlink="http://www.w3.org/1999/xlink" width="25px" height="25px" viewBox="0 0 25 25"><g id="surface1"><path style=" stroke:none;fill-rule:nonzero;fill:rgb(0%,37.64706%,89.803922%);fill-opacity:1;" d="M 12.480469 -0.015625 C 12.53125 -0.015625 12.582031 -0.015625 12.632812 -0.015625 C 13.34375 -0.0117188 14.046875 0 14.746094 0.144531 C 14.792969 0.15625 14.839844 0.164062 14.890625 0.175781 C 17.253906 0.671875 19.402344 1.738281 21.140625 3.417969 C 21.191406 3.464844 21.191406 3.464844 21.238281 3.511719 C 21.703125 3.957031 22.128906 4.410156 22.507812 4.929688 C 22.550781 4.988281 22.59375 5.042969 22.636719 5.101562 C 22.929688 5.5 23.191406 5.914062 23.4375 6.347656 C 23.457031 6.382812 23.476562 6.417969 23.496094 6.453125 C 24.132812 7.582031 24.558594 8.8125 24.820312 10.078125 C 24.828125 10.113281 24.835938 10.148438 24.839844 10.1875 C 24.988281 10.949219 25.019531 11.707031 25.015625 12.480469 C 25.015625 12.53125 25.015625 12.582031 25.015625 12.632812 C 25.011719 13.34375 25 14.046875 24.851562 14.746094 C 24.839844 14.816406 24.839844 14.816406 24.824219 14.890625 C 24.328125 17.253906 23.261719 19.402344 21.582031 21.140625 C 21.550781 21.175781 21.519531 21.207031 21.488281 21.238281 C 21.042969 21.703125 20.589844 22.128906 20.070312 22.507812 C 20.011719 22.550781 19.957031 22.59375 19.898438 22.636719 C 19.5 22.929688 19.085938 23.191406 18.652344 23.4375 C 18.617188 23.457031 18.582031 23.476562 18.546875 23.496094 C 17.417969 24.132812 16.1875 24.558594 14.921875 24.820312 C 14.886719 24.828125 14.851562 24.835938 14.8125 24.839844 C 14.050781 24.988281 13.292969 25.019531 12.519531 25.015625 C 12.445312 25.015625 12.445312 25.015625 12.367188 25.015625 C 11.65625 25.011719 10.953125 25 10.253906 24.851562 C 10.183594 24.839844 10.183594 24.839844 10.109375 24.824219 C 7.996094 24.382812 6.035156 23.484375 4.394531 22.070312 C 4.359375 22.039062 4.320312 22.007812 4.285156 21.976562 C 3.625 21.398438 3.007812 20.777344 2.492188 20.070312 C 2.449219 20.011719 2.40625 19.957031 2.363281 19.898438 C 2.070312 19.5 1.808594 19.085938 1.5625 18.652344 C 1.542969 18.617188 1.523438 18.582031 1.503906 18.546875 C 0.867188 17.417969 0.441406 16.1875 0.179688 14.921875 C 0.171875 14.886719 0.164062 14.851562 0.160156 14.8125 C 0.0117188 14.050781 -0.0195312 13.292969 -0.015625 12.519531 C -0.015625 12.46875 -0.015625 12.417969 -0.015625 12.367188 C -0.0117188 11.65625 0 10.953125 0.148438 10.253906 C 0.15625 10.207031 0.164062 10.160156 0.175781 10.109375 C 0.671875 7.746094 1.738281 5.597656 3.417969 3.859375 C 3.449219 3.824219 3.480469 3.792969 3.511719 3.761719 C 3.957031 3.296875 4.410156 2.871094 4.929688 2.492188 C 4.988281 2.449219 5.042969 2.40625 5.101562 2.363281 C 5.5 2.070312 5.914062 1.808594 6.347656 1.5625 C 6.382812 1.542969 6.417969 1.523438 6.453125 1.503906 C 7.582031 0.867188 8.8125 0.441406 10.078125 0.179688 C 10.113281 0.171875 10.148438 0.164062 10.1875 0.160156 C 10.949219 0.0117188 11.707031 -0.0195312 12.480469 -0.015625 Z M 12.480469 -0.015625 "></path><path style=" stroke:none;fill-rule:nonzero;fill:rgb(0%,30.19608%,72.941178%);fill-opacity:1;" d="M 23.289062 6.152344 C 24.144531 7.199219 24.554688 8.785156 24.820312 10.078125 C 24.828125 10.113281 24.835938 10.148438 24.839844 10.1875 C 24.988281 10.949219 25.019531 11.707031 25.015625 12.480469 C 25.015625 12.53125 25.015625 12.582031 25.015625 12.632812 C 25.011719 13.34375 25 14.046875 24.851562 14.746094 C 24.839844 14.816406 24.839844 14.816406 24.824219 14.890625 C 24.328125 17.253906 23.261719 19.402344 21.582031 21.140625 C 21.550781 21.175781 21.519531 21.207031 21.488281 21.238281 C 21.042969 21.703125 20.589844 22.128906 20.070312 22.507812 C 20.011719 22.550781 19.957031 22.59375 19.898438 22.636719 C 19.5 22.929688 19.085938 23.191406 18.652344 23.4375 C 18.617188 23.457031 18.582031 23.476562 18.546875 23.496094 C 17.417969 24.132812 16.1875 24.558594 14.921875 24.820312 C 14.886719 24.828125 14.851562 24.835938 14.8125 24.839844 C 14.050781 24.988281 13.292969 25.019531 12.519531 25.015625 C 12.46875 25.015625 12.417969 25.015625 12.367188 25.015625 C 11.65625 25.011719 10.953125 25 10.253906 24.851562 C 10.183594 24.839844 10.183594 24.839844 10.109375 24.824219 C 8.160156 24.414062 6.136719 23.621094 4.640625 22.265625 C 4.613281 22.191406 4.613281 22.191406 4.589844 22.117188 C 4.8125 22.148438 5.035156 22.1875 5.253906 22.234375 C 5.925781 22.371094 6.589844 22.507812 7.273438 22.558594 C 7.328125 22.5625 7.382812 22.566406 7.4375 22.570312 C 8.886719 22.675781 10.292969 22.59375 11.71875 22.3125 C 11.773438 22.304688 11.773438 22.304688 11.824219 22.292969 C 12.910156 22.085938 14 21.683594 14.992188 21.191406 C 15.039062 21.167969 15.085938 21.144531 15.136719 21.121094 C 15.820312 20.78125 16.46875 20.417969 17.089844 19.96875 C 17.125 19.945312 17.15625 19.921875 17.191406 19.898438 C 17.667969 19.554688 18.117188 19.1875 18.554688 18.796875 C 18.582031 18.773438 18.609375 18.75 18.640625 18.722656 C 18.925781 18.46875 19.203125 18.214844 19.449219 17.921875 C 19.546875 17.804688 19.652344 17.691406 19.761719 17.578125 C 20.957031 16.261719 21.875 14.617188 22.46875 12.953125 C 22.503906 12.855469 22.539062 12.761719 22.578125 12.667969 C 23.371094 10.589844 23.421875 8.34375 23.289062 6.152344 Z M 23.289062 6.152344 "></path><path style=" stroke:none;fill-rule:nonzero;fill:rgb(99.215686%,99.215686%,99.607843%);fill-opacity:1;" d="M 15.136719 7.617188 C 15.222656 7.800781 15.160156 7.984375 15.117188 8.171875 C 15.109375 8.207031 15.101562 8.242188 15.09375 8.277344 C 15.066406 8.386719 15.042969 8.496094 15.019531 8.605469 C 15 8.679688 14.984375 8.753906 14.96875 8.828125 C 14.925781 9.011719 14.886719 9.191406 14.84375 9.375 C 14.539062 9.339844 14.25 9.277344 13.957031 9.199219 C 13.320312 9.050781 12.65625 9.070312 12.082031 9.398438 C 11.699219 9.667969 11.472656 10.058594 11.351562 10.503906 C 11.304688 10.792969 11.316406 11.085938 11.328125 11.375 C 11.367188 11.34375 11.367188 11.34375 11.410156 11.308594 C 12.148438 10.707031 12.941406 10.683594 13.867188 10.742188 C 14.449219 10.816406 15.015625 11.167969 15.382812 11.621094 C 16.109375 12.628906 16.277344 13.765625 16.132812 14.984375 C 15.976562 15.835938 15.445312 16.640625 14.746094 17.148438 C 13.808594 17.75 12.765625 17.914062 11.675781 17.710938 C 10.785156 17.5 10.007812 17.015625 9.5 16.242188 C 8.988281 15.375 8.820312 14.542969 8.824219 13.542969 C 8.824219 13.46875 8.824219 13.398438 8.824219 13.328125 C 8.824219 13.175781 8.824219 13.027344 8.824219 12.878906 C 8.824219 12.6875 8.824219 12.5 8.824219 12.308594 C 8.824219 12.160156 8.824219 12.011719 8.824219 11.863281 C 8.824219 11.792969 8.824219 11.722656 8.824219 11.652344 C 8.820312 10.480469 9.0625 9.378906 9.894531 8.511719 C 9.953125 8.457031 9.953125 8.457031 10.007812 8.398438 C 10.046875 8.359375 10.082031 8.324219 10.121094 8.285156 C 11.355469 7.097656 13.617188 6.8125 15.136719 7.617188 Z M 15.136719 7.617188 "></path><path style=" stroke:none;fill-rule:nonzero;fill:rgb(0.392157%,38.039216%,90.196079%);fill-opacity:1;" d="M 13.117188 12.648438 C 13.203125 12.71875 13.203125 12.71875 13.28125 12.792969 C 13.320312 12.832031 13.320312 12.832031 13.363281 12.867188 C 13.667969 13.1875 13.792969 13.582031 13.796875 14.019531 C 13.796875 14.0625 13.792969 14.109375 13.792969 14.152344 C 13.792969 14.199219 13.792969 14.25 13.792969 14.296875 C 13.777344 14.855469 13.644531 15.324219 13.234375 15.722656 C 12.972656 15.933594 12.6875 15.949219 12.359375 15.941406 C 12.058594 15.898438 11.890625 15.75 11.683594 15.539062 C 11.28125 14.960938 11.21875 14.332031 11.199219 13.644531 C 11.195312 13.585938 11.191406 13.527344 11.191406 13.464844 C 11.179688 13.042969 11.179688 13.042969 11.324219 12.886719 C 11.4375 12.808594 11.546875 12.75 11.671875 12.695312 C 11.722656 12.671875 11.722656 12.671875 11.777344 12.644531 C 12.144531 12.480469 12.761719 12.441406 13.117188 12.648438 Z M 13.117188 12.648438 "></path></g></svg>