<svg xmlns="http://www.w3.org/2000/svg" xmlns:xlink="http://www.w3.org/1999/xlink" width="25px" height="25px" viewBox="0 0 25 25"><g id="surface1"><path style=" stroke:none;fill-rule:nonzero;fill:rgb(0%,37.64706%,90.196079%);fill-opacity:1;" d="M 12.480469 -0.015625 C 12.53125 -0.015625 12.582031 -0.015625 12.632812 -0.015625 C 13.34375 -0.0117188 14.046875 0 14.746094 0.144531 C 14.792969 0.15625 14.839844 0.164062 14.890625 0.175781 C 17.253906 0.671875 19.402344 1.738281 21.140625 3.417969 C 21.191406 3.464844 21.191406 3.464844 21.238281 3.511719 C 21.703125 3.957031 22.128906 4.410156 22.507812 4.929688 C 22.550781 4.988281 22.59375 5.042969 22.636719 5.101562 C 22.929688 5.5 23.191406 5.914062 23.4375 6.347656 C 23.457031 6.382812 23.476562 6.417969 23.496094 6.453125 C 24.132812 7.582031 24.558594 8.8125 24.820312 10.078125 C 24.828125 10.113281 24.835938 10.148438 24.839844 10.1875 C 24.988281 10.949219 25.019531 11.707031 25.015625 12.480469 C 25.015625 12.53125 25.015625 12.582031 25.015625 12.632812 C 25.011719 13.34375 25 14.046875 24.851562 14.746094 C 24.839844 14.816406 24.839844 14.816406 24.824219 14.890625 C 24.328125 17.253906 23.261719 19.402344 21.582031 21.140625 C 21.550781 21.175781 21.519531 21.207031 21.488281 21.238281 C 21.042969 21.703125 20.589844 22.128906 20.070312 22.507812 C 20.011719 22.550781 19.957031 22.59375 19.898438 22.636719 C 19.5 22.929688 19.085938 23.191406 18.652344 23.4375 C 18.617188 23.457031 18.582031 23.476562 18.546875 23.496094 C 17.417969 24.132812 16.1875 24.558594 14.921875 24.820312 C 14.886719 24.828125 14.851562 24.835938 14.8125 24.839844 C 14.050781 24.988281 13.292969 25.019531 12.519531 25.015625 C 12.445312 25.015625 12.445312 25.015625 12.367188 25.015625 C 11.65625 25.011719 10.953125 25 10.253906 24.851562 C 10.183594 24.839844 10.183594 24.839844 10.109375 24.824219 C 7.996094 24.382812 6.035156 23.484375 4.394531 22.070312 C 4.359375 22.039062 4.320312 22.007812 4.285156 21.976562 C 3.625 21.398438 3.007812 20.777344 2.492188 20.070312 C 2.449219 20.011719 2.40625 19.957031 2.363281 19.898438 C 2.070312 19.5 1.808594 19.085938 1.5625 18.652344 C 1.542969 18.617188 1.523438 18.582031 1.503906 18.546875 C 0.867188 17.417969 0.441406 16.1875 0.179688 14.921875 C 0.171875 14.886719 0.164062 14.851562 0.160156 14.8125 C 0.0117188 14.050781 -0.0195312 13.292969 -0.015625 12.519531 C -0.015625 12.46875 -0.015625 12.417969 -0.015625 12.367188 C -0.0117188 11.65625 0 10.953125 0.148438 10.253906 C 0.15625 10.207031 0.164062 10.160156 0.175781 10.109375 C 0.671875 7.746094 1.738281 5.597656 3.417969 3.859375 C 3.449219 3.824219 3.480469 3.792969 3.511719 3.761719 C 3.957031 3.296875 4.410156 2.871094 4.929688 2.492188 C 4.988281 2.449219 5.042969 2.40625 5.101562 2.363281 C 5.5 2.070312 5.914062 1.808594 6.347656 1.5625 C 6.382812 1.542969 6.417969 1.523438 6.453125 1.503906 C 7.582031 0.867188 8.8125 0.441406 10.078125 0.179688 C 10.113281 0.171875 10.148438 0.164062 10.1875 0.160156 C 10.949219 0.0117188 11.707031 -0.0195312 12.480469 -0.015625 Z M 12.480469 -0.015625 "></path><path style=" stroke:none;fill-rule:nonzero;fill:rgb(0%,30.19608%,72.941178%);fill-opacity:1;" d="M 23.289062 6.152344 C 24.144531 7.199219 24.554688 8.785156 24.820312 10.078125 C 24.828125 10.113281 24.835938 10.148438 24.839844 10.1875 C 24.988281 10.949219 25.019531 11.707031 25.015625 12.480469 C 25.015625 12.53125 25.015625 12.582031 25.015625 12.632812 C 25.011719 13.34375 25 14.046875 24.851562 14.746094 C 24.839844 14.816406 24.839844 14.816406 24.824219 14.890625 C 24.328125 17.253906 23.261719 19.402344 21.582031 21.140625 C 21.550781 21.175781 21.519531 21.207031 21.488281 21.238281 C 21.042969 21.703125 20.589844 22.128906 20.070312 22.507812 C 20.011719 22.550781 19.957031 22.59375 19.898438 22.636719 C 19.5 22.929688 19.085938 23.191406 18.652344 23.4375 C 18.617188 23.457031 18.582031 23.476562 18.546875 23.496094 C 17.417969 24.132812 16.1875 24.558594 14.921875 24.820312 C 14.886719 24.828125 14.851562 24.835938 14.8125 24.839844 C 14.050781 24.988281 13.292969 25.019531 12.519531 25.015625 C 12.46875 25.015625 12.417969 25.015625 12.367188 25.015625 C 11.65625 25.011719 10.953125 25 10.253906 24.851562 C 10.183594 24.839844 10.183594 24.839844 10.109375 24.824219 C 8.160156 24.414062 6.136719 23.621094 4.640625 22.265625 C 4.613281 22.191406 4.613281 22.191406 4.589844 22.117188 C 4.8125 22.148438 5.035156 22.1875 5.253906 22.234375 C 5.925781 22.371094 6.589844 22.507812 7.273438 22.558594 C 7.328125 22.5625 7.382812 22.566406 7.4375 22.570312 C 8.886719 22.675781 10.292969 22.59375 11.71875 22.3125 C 11.773438 22.304688 11.773438 22.304688 11.824219 22.292969 C 12.910156 22.085938 14 21.683594 14.992188 21.191406 C 15.039062 21.167969 15.085938 21.144531 15.136719 21.121094 C 15.820312 20.78125 16.46875 20.417969 17.089844 19.96875 C 17.125 19.945312 17.15625 19.921875 17.191406 19.898438 C 17.667969 19.554688 18.117188 19.1875 18.554688 18.796875 C 18.582031 18.773438 18.609375 18.75 18.640625 18.722656 C 18.925781 18.46875 19.203125 18.214844 19.449219 17.921875 C 19.546875 17.804688 19.652344 17.691406 19.761719 17.578125 C 20.957031 16.261719 21.875 14.617188 22.46875 12.953125 C 22.503906 12.855469 22.539062 12.761719 22.578125 12.667969 C 22.878906 11.878906 23.042969 11.050781 23.183594 10.222656 C 23.195312 10.164062 23.203125 10.105469 23.214844 10.042969 C 23.320312 9.382812 23.347656 8.726562 23.347656 8.054688 C 23.347656 8.023438 23.347656 7.988281 23.347656 7.953125 C 23.34375 7.351562 23.328125 6.753906 23.289062 6.152344 Z M 23.289062 6.152344 "></path><path style=" stroke:none;fill-rule:nonzero;fill:rgb(99.215686%,99.607843%,99.607843%);fill-opacity:1;" d="M 15.085938 8.007812 C 15.574219 8.40625 15.878906 8.90625 16.015625 9.523438 C 16.085938 10.242188 16.046875 10.871094 15.605469 11.46875 C 15.546875 11.535156 15.488281 11.605469 15.429688 11.671875 C 15.402344 11.699219 15.375 11.730469 15.347656 11.761719 C 15.132812 11.996094 14.882812 12.164062 14.601562 12.304688 C 14.566406 12.304688 14.535156 12.304688 14.5 12.304688 C 14.5 12.335938 14.5 12.367188 14.5 12.402344 C 14.570312 12.414062 14.570312 12.414062 14.640625 12.429688 C 15.007812 12.535156 15.328125 12.808594 15.578125 13.085938 C 15.597656 13.109375 15.621094 13.132812 15.648438 13.15625 C 16.09375 13.636719 16.234375 14.230469 16.21875 14.863281 C 16.183594 15.617188 15.921875 16.269531 15.371094 16.796875 C 14.441406 17.625 13.171875 17.835938 11.960938 17.773438 C 10.992188 17.6875 10.105469 17.355469 9.421875 16.648438 C 9.378906 16.605469 9.335938 16.558594 9.289062 16.511719 C 8.894531 15.953125 8.789062 15.476562 8.789062 14.796875 C 9.5625 14.796875 10.335938 14.796875 11.132812 14.796875 C 11.207031 15.035156 11.207031 15.035156 11.28125 15.28125 C 11.4375 15.558594 11.664062 15.738281 11.960938 15.839844 C 12.410156 15.933594 12.878906 15.941406 13.277344 15.699219 C 13.515625 15.523438 13.679688 15.324219 13.769531 15.039062 C 13.78125 14.910156 13.785156 14.785156 13.785156 14.65625 C 13.785156 14.621094 13.785156 14.589844 13.785156 14.550781 C 13.777344 14.183594 13.699219 13.886719 13.429688 13.625 C 13.074219 13.382812 12.769531 13.328125 12.347656 13.316406 C 12.289062 13.3125 12.230469 13.3125 12.167969 13.308594 C 12.09375 13.308594 12.019531 13.304688 11.945312 13.300781 C 11.707031 13.296875 11.472656 13.289062 11.230469 13.28125 C 11.230469 12.703125 11.230469 12.121094 11.230469 11.523438 C 11.90625 11.511719 11.90625 11.511719 12.117188 11.507812 C 12.5625 11.496094 12.894531 11.421875 13.273438 11.195312 C 13.558594 10.886719 13.644531 10.476562 13.640625 10.070312 C 13.605469 9.761719 13.472656 9.519531 13.257812 9.300781 C 12.871094 9.070312 12.367188 9.054688 11.929688 9.164062 C 11.699219 9.269531 11.507812 9.449219 11.375 9.667969 C 11.34375 9.78125 11.3125 9.894531 11.28125 10.007812 C 10.523438 10.007812 9.765625 10.007812 8.984375 10.007812 C 8.984375 9.308594 9.070312 8.863281 9.523438 8.351562 C 9.546875 8.320312 9.570312 8.292969 9.597656 8.261719 C 10.917969 6.835938 13.605469 6.875 15.085938 8.007812 Z M 15.085938 8.007812 "></path></g></svg>