<svg xmlns="http://www.w3.org/2000/svg" xmlns:xlink="http://www.w3.org/1999/xlink" width="25px" height="25px" viewBox="0 0 25 25"><g id="surface1"><path style=" stroke:none;fill-rule:nonzero;fill:rgb(0%,37.64706%,89.803922%);fill-opacity:1;" d="M 12.480469 -0.015625 C 12.53125 -0.015625 12.582031 -0.015625 12.632812 -0.015625 C 13.34375 -0.0117188 14.046875 0 14.746094 0.144531 C 14.792969 0.15625 14.839844 0.164062 14.890625 0.175781 C 17.253906 0.671875 19.402344 1.738281 21.140625 3.417969 C 21.191406 3.464844 21.191406 3.464844 21.238281 3.511719 C 21.703125 3.957031 22.128906 4.410156 22.507812 4.929688 C 22.550781 4.988281 22.59375 5.042969 22.636719 5.101562 C 22.929688 5.5 23.191406 5.914062 23.4375 6.347656 C 23.457031 6.382812 23.476562 6.417969 23.496094 6.453125 C 24.132812 7.582031 24.558594 8.8125 24.820312 10.078125 C 24.828125 10.113281 24.835938 10.148438 24.839844 10.1875 C 24.988281 10.949219 25.019531 11.707031 25.015625 12.480469 C 25.015625 12.53125 25.015625 12.582031 25.015625 12.632812 C 25.011719 13.34375 25 14.046875 24.851562 14.746094 C 24.839844 14.816406 24.839844 14.816406 24.824219 14.890625 C 24.328125 17.253906 23.261719 19.402344 21.582031 21.140625 C 21.550781 21.175781 21.519531 21.207031 21.488281 21.238281 C 21.042969 21.703125 20.589844 22.128906 20.070312 22.507812 C 20.011719 22.550781 19.957031 22.59375 19.898438 22.636719 C 19.5 22.929688 19.085938 23.191406 18.652344 23.4375 C 18.617188 23.457031 18.582031 23.476562 18.546875 23.496094 C 17.417969 24.132812 16.1875 24.558594 14.921875 24.820312 C 14.886719 24.828125 14.851562 24.835938 14.8125 24.839844 C 14.050781 24.988281 13.292969 25.019531 12.519531 25.015625 C 12.445312 25.015625 12.445312 25.015625 12.367188 25.015625 C 11.65625 25.011719 10.953125 25 10.253906 24.851562 C 10.183594 24.839844 10.183594 24.839844 10.109375 24.824219 C 7.996094 24.382812 6.035156 23.484375 4.394531 22.070312 C 4.359375 22.039062 4.320312 22.007812 4.285156 21.976562 C 3.625 21.398438 3.007812 20.777344 2.492188 20.070312 C 2.449219 20.011719 2.40625 19.957031 2.363281 19.898438 C 2.070312 19.5 1.808594 19.085938 1.5625 18.652344 C 1.542969 18.617188 1.523438 18.582031 1.503906 18.546875 C 0.867188 17.417969 0.441406 16.1875 0.179688 14.921875 C 0.171875 14.886719 0.164062 14.851562 0.160156 14.8125 C 0.0117188 14.050781 -0.0195312 13.292969 -0.015625 12.519531 C -0.015625 12.46875 -0.015625 12.417969 -0.015625 12.367188 C -0.0117188 11.65625 0 10.953125 0.148438 10.253906 C 0.15625 10.207031 0.164062 10.160156 0.175781 10.109375 C 0.671875 7.746094 1.738281 5.597656 3.417969 3.859375 C 3.449219 3.824219 3.480469 3.792969 3.511719 3.761719 C 3.957031 3.296875 4.410156 2.871094 4.929688 2.492188 C 4.988281 2.449219 5.042969 2.40625 5.101562 2.363281 C 5.5 2.070312 5.914062 1.808594 6.347656 1.5625 C 6.382812 1.542969 6.417969 1.523438 6.453125 1.503906 C 7.582031 0.867188 8.8125 0.441406 10.078125 0.179688 C 10.113281 0.171875 10.148438 0.164062 10.1875 0.160156 C 10.949219 0.0117188 11.707031 -0.0195312 12.480469 -0.015625 Z M 12.480469 -0.015625 "></path><path style=" stroke:none;fill-rule:nonzero;fill:rgb(0%,30.19608%,72.941178%);fill-opacity:1;" d="M 23.289062 6.152344 C 24.144531 7.199219 24.554688 8.785156 24.820312 10.078125 C 24.828125 10.113281 24.835938 10.148438 24.839844 10.1875 C 24.988281 10.949219 25.019531 11.707031 25.015625 12.480469 C 25.015625 12.53125 25.015625 12.582031 25.015625 12.632812 C 25.011719 13.34375 25 14.046875 24.851562 14.746094 C 24.839844 14.816406 24.839844 14.816406 24.824219 14.890625 C 24.328125 17.253906 23.261719 19.402344 21.582031 21.140625 C 21.550781 21.175781 21.519531 21.207031 21.488281 21.238281 C 21.042969 21.703125 20.589844 22.128906 20.070312 22.507812 C 20.011719 22.550781 19.957031 22.59375 19.898438 22.636719 C 19.5 22.929688 19.085938 23.191406 18.652344 23.4375 C 18.617188 23.457031 18.582031 23.476562 18.546875 23.496094 C 17.417969 24.132812 16.1875 24.558594 14.921875 24.820312 C 14.886719 24.828125 14.851562 24.835938 14.8125 24.839844 C 14.050781 24.988281 13.292969 25.019531 12.519531 25.015625 C 12.46875 25.015625 12.417969 25.015625 12.367188 25.015625 C 11.65625 25.011719 10.953125 25 10.253906 24.851562 C 10.183594 24.839844 10.183594 24.839844 10.109375 24.824219 C 8.160156 24.414062 6.136719 23.621094 4.640625 22.265625 C 4.613281 22.191406 4.613281 22.191406 4.589844 22.117188 C 4.8125 22.148438 5.035156 22.1875 5.253906 22.234375 C 5.925781 22.371094 6.589844 22.507812 7.273438 22.558594 C 7.328125 22.5625 7.382812 22.566406 7.4375 22.570312 C 10.023438 22.757812 12.660156 22.367188 14.992188 21.191406 C 15.035156 21.167969 15.082031 21.144531 15.128906 21.121094 C 15.816406 20.785156 16.46875 20.417969 17.089844 19.96875 C 17.125 19.945312 17.15625 19.921875 17.191406 19.898438 C 17.667969 19.554688 18.117188 19.1875 18.554688 18.796875 C 18.582031 18.773438 18.609375 18.75 18.640625 18.722656 C 18.925781 18.46875 19.203125 18.214844 19.449219 17.921875 C 19.507812 17.851562 19.570312 17.78125 19.632812 17.714844 C 20.859375 16.421875 21.78125 14.792969 22.414062 13.132812 C 22.425781 13.097656 22.441406 13.0625 22.457031 13.023438 C 23.066406 11.4375 23.351562 9.753906 23.347656 8.054688 C 23.347656 8.023438 23.347656 7.988281 23.347656 7.953125 C 23.34375 7.351562 23.328125 6.753906 23.289062 6.152344 Z M 23.289062 6.152344 "></path><path style=" stroke:none;fill-rule:nonzero;fill:rgb(98.823529%,99.215686%,99.607843%);fill-opacity:1;" d="M 14.257812 7.570312 C 14.257812 10.953125 14.257812 14.335938 14.257812 17.820312 C 13.46875 17.820312 12.679688 17.820312 11.867188 17.820312 C 11.867188 15.226562 11.867188 12.632812 11.867188 9.960938 C 11.109375 9.960938 10.351562 9.960938 9.570312 9.960938 C 9.570312 9.6875 9.566406 9.414062 9.566406 9.132812 C 9.566406 9.046875 9.566406 8.960938 9.566406 8.871094 C 9.566406 8.804688 9.566406 8.738281 9.566406 8.667969 C 9.566406 8.617188 9.566406 8.617188 9.566406 8.5625 C 9.566406 8.472656 9.566406 8.386719 9.570312 8.300781 C 9.644531 8.226562 9.730469 8.230469 9.835938 8.210938 C 9.90625 8.203125 9.90625 8.203125 9.976562 8.191406 C 10.027344 8.183594 10.078125 8.175781 10.128906 8.167969 C 10.183594 8.160156 10.234375 8.148438 10.289062 8.140625 C 10.402344 8.125 10.511719 8.105469 10.625 8.089844 C 10.792969 8.0625 10.960938 8.035156 11.128906 8.011719 C 11.703125 7.921875 12.28125 7.835938 12.859375 7.765625 C 13.175781 7.722656 13.492188 7.671875 13.808594 7.613281 C 13.960938 7.582031 14.097656 7.570312 14.257812 7.570312 Z M 14.257812 7.570312 "></path></g></svg>