<svg xmlns="http://www.w3.org/2000/svg" xmlns:xlink="http://www.w3.org/1999/xlink" width="25px" height="25px" viewBox="0 0 25 25"><g id="surface1"><path style=" stroke:none;fill-rule:nonzero;fill:rgb(0%,37.64706%,90.196079%);fill-opacity:1;" d="M 12.480469 -0.015625 C 12.53125 -0.015625 12.582031 -0.015625 12.632812 -0.015625 C 13.34375 -0.0117188 14.046875 0 14.746094 0.144531 C 14.792969 0.15625 14.839844 0.164062 14.890625 0.175781 C 17.253906 0.671875 19.402344 1.738281 21.140625 3.417969 C 21.191406 3.464844 21.191406 3.464844 21.238281 3.511719 C 21.703125 3.957031 22.128906 4.410156 22.507812 4.929688 C 22.550781 4.988281 22.59375 5.042969 22.636719 5.101562 C 22.929688 5.5 23.191406 5.914062 23.4375 6.347656 C 23.457031 6.382812 23.476562 6.417969 23.496094 6.453125 C 24.132812 7.582031 24.558594 8.8125 24.820312 10.078125 C 24.828125 10.113281 24.835938 10.148438 24.839844 10.1875 C 24.988281 10.949219 25.019531 11.707031 25.015625 12.480469 C 25.015625 12.53125 25.015625 12.582031 25.015625 12.632812 C 25.011719 13.34375 25 14.046875 24.851562 14.746094 C 24.839844 14.816406 24.839844 14.816406 24.824219 14.890625 C 24.328125 17.253906 23.261719 19.402344 21.582031 21.140625 C 21.550781 21.175781 21.519531 21.207031 21.488281 21.238281 C 21.042969 21.703125 20.589844 22.128906 20.070312 22.507812 C 20.011719 22.550781 19.957031 22.59375 19.898438 22.636719 C 19.5 22.929688 19.085938 23.191406 18.652344 23.4375 C 18.617188 23.457031 18.582031 23.476562 18.546875 23.496094 C 17.417969 24.132812 16.1875 24.558594 14.921875 24.820312 C 14.886719 24.828125 14.851562 24.835938 14.8125 24.839844 C 14.050781 24.988281 13.292969 25.019531 12.519531 25.015625 C 12.445312 25.015625 12.445312 25.015625 12.367188 25.015625 C 11.65625 25.011719 10.953125 25 10.253906 24.851562 C 10.183594 24.839844 10.183594 24.839844 10.109375 24.824219 C 7.996094 24.382812 6.035156 23.484375 4.394531 22.070312 C 4.359375 22.039062 4.320312 22.007812 4.285156 21.976562 C 3.625 21.398438 3.007812 20.777344 2.492188 20.070312 C 2.449219 20.011719 2.40625 19.957031 2.363281 19.898438 C 2.070312 19.5 1.808594 19.085938 1.5625 18.652344 C 1.542969 18.617188 1.523438 18.582031 1.503906 18.546875 C 0.867188 17.417969 0.441406 16.1875 0.179688 14.921875 C 0.171875 14.886719 0.164062 14.851562 0.160156 14.8125 C 0.0117188 14.050781 -0.0195312 13.292969 -0.015625 12.519531 C -0.015625 12.46875 -0.015625 12.417969 -0.015625 12.367188 C -0.0117188 11.65625 0 10.953125 0.148438 10.253906 C 0.15625 10.207031 0.164062 10.160156 0.175781 10.109375 C 0.671875 7.746094 1.738281 5.597656 3.417969 3.859375 C 3.449219 3.824219 3.480469 3.792969 3.511719 3.761719 C 3.957031 3.296875 4.410156 2.871094 4.929688 2.492188 C 4.988281 2.449219 5.042969 2.40625 5.101562 2.363281 C 5.5 2.070312 5.914062 1.808594 6.347656 1.5625 C 6.382812 1.542969 6.417969 1.523438 6.453125 1.503906 C 7.582031 0.867188 8.8125 0.441406 10.078125 0.179688 C 10.113281 0.171875 10.148438 0.164062 10.1875 0.160156 C 10.949219 0.0117188 11.707031 -0.0195312 12.480469 -0.015625 Z M 12.480469 -0.015625 "></path><path style=" stroke:none;fill-rule:nonzero;fill:rgb(0%,30.19608%,72.941178%);fill-opacity:1;" d="M 23.289062 6.152344 C 24.144531 7.199219 24.554688 8.785156 24.820312 10.078125 C 24.828125 10.113281 24.835938 10.148438 24.839844 10.1875 C 24.988281 10.949219 25.019531 11.707031 25.015625 12.480469 C 25.015625 12.53125 25.015625 12.582031 25.015625 12.632812 C 25.011719 13.34375 25 14.046875 24.851562 14.746094 C 24.839844 14.816406 24.839844 14.816406 24.824219 14.890625 C 24.328125 17.253906 23.261719 19.402344 21.582031 21.140625 C 21.550781 21.175781 21.519531 21.207031 21.488281 21.238281 C 21.042969 21.703125 20.589844 22.128906 20.070312 22.507812 C 20.011719 22.550781 19.957031 22.59375 19.898438 22.636719 C 19.5 22.929688 19.085938 23.191406 18.652344 23.4375 C 18.617188 23.457031 18.582031 23.476562 18.546875 23.496094 C 17.417969 24.132812 16.1875 24.558594 14.921875 24.820312 C 14.886719 24.828125 14.851562 24.835938 14.8125 24.839844 C 14.050781 24.988281 13.292969 25.019531 12.519531 25.015625 C 12.46875 25.015625 12.417969 25.015625 12.367188 25.015625 C 11.65625 25.011719 10.953125 25 10.253906 24.851562 C 10.183594 24.839844 10.183594 24.839844 10.109375 24.824219 C 8.160156 24.414062 6.136719 23.621094 4.640625 22.265625 C 4.613281 22.191406 4.613281 22.191406 4.589844 22.117188 C 4.8125 22.148438 5.035156 22.1875 5.253906 22.234375 C 5.925781 22.371094 6.589844 22.507812 7.273438 22.558594 C 7.328125 22.5625 7.382812 22.566406 7.4375 22.570312 C 8.886719 22.675781 10.292969 22.59375 11.71875 22.3125 C 11.773438 22.304688 11.773438 22.304688 11.824219 22.292969 C 12.910156 22.085938 14 21.683594 14.992188 21.191406 C 15.039062 21.167969 15.085938 21.144531 15.136719 21.121094 C 15.820312 20.78125 16.46875 20.417969 17.089844 19.96875 C 17.125 19.945312 17.15625 19.921875 17.191406 19.898438 C 17.667969 19.554688 18.117188 19.1875 18.554688 18.796875 C 18.582031 18.773438 18.609375 18.75 18.640625 18.722656 C 18.925781 18.46875 19.203125 18.214844 19.449219 17.921875 C 19.546875 17.804688 19.652344 17.691406 19.761719 17.578125 C 20.957031 16.261719 21.875 14.617188 22.46875 12.953125 C 22.503906 12.859375 22.539062 12.765625 22.574219 12.671875 C 23.140625 11.214844 23.351562 9.613281 23.347656 8.054688 C 23.347656 8.023438 23.347656 7.988281 23.347656 7.953125 C 23.34375 7.351562 23.328125 6.753906 23.289062 6.152344 Z M 23.289062 6.152344 "></path><path style=" stroke:none;fill-rule:nonzero;fill:rgb(99.215686%,99.607843%,99.607843%);fill-opacity:1;" d="M 9.71875 7.324219 C 11.699219 7.324219 13.679688 7.324219 15.722656 7.324219 C 15.722656 7.921875 15.722656 8.515625 15.722656 9.132812 C 14.386719 9.132812 13.046875 9.132812 11.671875 9.132812 C 11.636719 9.453125 11.605469 9.773438 11.570312 10.109375 C 11.546875 10.316406 11.519531 10.523438 11.492188 10.730469 C 11.488281 10.777344 11.480469 10.828125 11.472656 10.878906 C 11.457031 10.996094 11.441406 11.113281 11.425781 11.230469 C 11.460938 11.210938 11.496094 11.191406 11.53125 11.171875 C 12.347656 10.734375 13.21875 10.667969 14.097656 10.929688 C 14.390625 11.023438 14.648438 11.140625 14.890625 11.328125 C 14.929688 11.355469 14.96875 11.386719 15.007812 11.414062 C 15.644531 11.933594 15.96875 12.742188 16.054688 13.546875 C 16.117188 14.289062 16.097656 14.976562 15.820312 15.671875 C 15.800781 15.726562 15.777344 15.777344 15.757812 15.832031 C 15.402344 16.628906 14.769531 17.167969 13.964844 17.480469 C 12.941406 17.839844 11.714844 17.800781 10.734375 17.347656 C 9.890625 16.9375 9.316406 16.410156 8.984375 15.527344 C 8.945312 15.328125 8.933594 15.132812 8.933594 14.929688 C 8.933594 14.886719 8.933594 14.84375 8.933594 14.796875 C 8.933594 14.765625 8.933594 14.730469 8.9375 14.695312 C 9.71875 14.617188 10.492188 14.585938 11.28125 14.601562 C 11.285156 14.632812 11.292969 14.667969 11.296875 14.699219 C 11.308594 14.746094 11.316406 14.789062 11.324219 14.832031 C 11.332031 14.878906 11.339844 14.921875 11.347656 14.964844 C 11.421875 15.285156 11.585938 15.488281 11.847656 15.683594 C 12.15625 15.871094 12.492188 15.859375 12.84375 15.820312 C 13.105469 15.75 13.28125 15.613281 13.421875 15.382812 C 13.628906 15.007812 13.648438 14.636719 13.644531 14.214844 C 13.644531 14.160156 13.644531 14.105469 13.648438 14.050781 C 13.648438 13.589844 13.550781 13.132812 13.257812 12.765625 C 13.011719 12.535156 12.734375 12.484375 12.40625 12.472656 C 12.015625 12.484375 11.71875 12.589844 11.449219 12.871094 C 11.425781 12.910156 11.402344 12.949219 11.375 12.988281 C 11.34375 13.035156 11.3125 13.085938 11.28125 13.132812 C 11.175781 13.152344 11.175781 13.152344 11.046875 13.152344 C 10.976562 13.152344 10.976562 13.152344 10.902344 13.152344 C 10.851562 13.152344 10.800781 13.152344 10.75 13.148438 C 10.695312 13.148438 10.644531 13.148438 10.589844 13.148438 C 10.101562 13.140625 9.617188 13.097656 9.132812 13.039062 C 9.179688 12.433594 9.238281 11.832031 9.296875 11.230469 C 9.308594 11.101562 9.320312 10.972656 9.332031 10.84375 C 9.441406 9.667969 9.582031 8.496094 9.71875 7.324219 Z M 9.71875 7.324219 "></path></g></svg>