<svg xmlns="http://www.w3.org/2000/svg" xmlns:xlink="http://www.w3.org/1999/xlink" width="25px" height="25px" viewBox="0 0 25 25"><g id="surface1"><path style=" stroke:none;fill-rule:nonzero;fill:rgb(0%,37.64706%,89.803922%);fill-opacity:1;" d="M 12.480469 -0.015625 C 12.53125 -0.015625 12.582031 -0.015625 12.632812 -0.015625 C 13.34375 -0.0117188 14.046875 0 14.746094 0.144531 C 14.792969 0.15625 14.839844 0.164062 14.890625 0.175781 C 17.253906 0.671875 19.402344 1.738281 21.140625 3.417969 C 21.191406 3.464844 21.191406 3.464844 21.238281 3.511719 C 21.703125 3.957031 22.128906 4.410156 22.507812 4.929688 C 22.550781 4.988281 22.59375 5.042969 22.636719 5.101562 C 22.929688 5.5 23.191406 5.914062 23.4375 6.347656 C 23.457031 6.382812 23.476562 6.417969 23.496094 6.453125 C 24.132812 7.582031 24.558594 8.8125 24.820312 10.078125 C 24.828125 10.113281 24.835938 10.148438 24.839844 10.1875 C 24.988281 10.949219 25.019531 11.707031 25.015625 12.480469 C 25.015625 12.53125 25.015625 12.582031 25.015625 12.632812 C 25.011719 13.34375 25 14.046875 24.851562 14.746094 C 24.839844 14.816406 24.839844 14.816406 24.824219 14.890625 C 24.328125 17.253906 23.261719 19.402344 21.582031 21.140625 C 21.550781 21.175781 21.519531 21.207031 21.488281 21.238281 C 21.042969 21.703125 20.589844 22.128906 20.070312 22.507812 C 20.011719 22.550781 19.957031 22.59375 19.898438 22.636719 C 19.5 22.929688 19.085938 23.191406 18.652344 23.4375 C 18.617188 23.457031 18.582031 23.476562 18.546875 23.496094 C 17.417969 24.132812 16.1875 24.558594 14.921875 24.820312 C 14.886719 24.828125 14.851562 24.835938 14.8125 24.839844 C 14.050781 24.988281 13.292969 25.019531 12.519531 25.015625 C 12.445312 25.015625 12.445312 25.015625 12.367188 25.015625 C 11.65625 25.011719 10.953125 25 10.253906 24.851562 C 10.183594 24.839844 10.183594 24.839844 10.109375 24.824219 C 7.996094 24.382812 6.035156 23.484375 4.394531 22.070312 C 4.359375 22.039062 4.320312 22.007812 4.285156 21.976562 C 3.625 21.398438 3.007812 20.777344 2.492188 20.070312 C 2.449219 20.011719 2.40625 19.957031 2.363281 19.898438 C 2.070312 19.5 1.808594 19.085938 1.5625 18.652344 C 1.542969 18.617188 1.523438 18.582031 1.503906 18.546875 C 0.867188 17.417969 0.441406 16.1875 0.179688 14.921875 C 0.171875 14.886719 0.164062 14.851562 0.160156 14.8125 C 0.0117188 14.050781 -0.0195312 13.292969 -0.015625 12.519531 C -0.015625 12.46875 -0.015625 12.417969 -0.015625 12.367188 C -0.0117188 11.65625 0 10.953125 0.148438 10.253906 C 0.15625 10.207031 0.164062 10.160156 0.175781 10.109375 C 0.671875 7.746094 1.738281 5.597656 3.417969 3.859375 C 3.449219 3.824219 3.480469 3.792969 3.511719 3.761719 C 3.957031 3.296875 4.410156 2.871094 4.929688 2.492188 C 4.988281 2.449219 5.042969 2.40625 5.101562 2.363281 C 5.5 2.070312 5.914062 1.808594 6.347656 1.5625 C 6.382812 1.542969 6.417969 1.523438 6.453125 1.503906 C 7.582031 0.867188 8.8125 0.441406 10.078125 0.179688 C 10.113281 0.171875 10.148438 0.164062 10.1875 0.160156 C 10.949219 0.0117188 11.707031 -0.0195312 12.480469 -0.015625 Z M 12.480469 -0.015625 "></path><path style=" stroke:none;fill-rule:nonzero;fill:rgb(0%,30.19608%,72.941178%);fill-opacity:1;" d="M 23.289062 6.152344 C 24.144531 7.199219 24.554688 8.785156 24.820312 10.078125 C 24.828125 10.113281 24.835938 10.148438 24.839844 10.1875 C 24.988281 10.949219 25.019531 11.707031 25.015625 12.480469 C 25.015625 12.53125 25.015625 12.582031 25.015625 12.632812 C 25.011719 13.34375 25 14.046875 24.851562 14.746094 C 24.839844 14.816406 24.839844 14.816406 24.824219 14.890625 C 24.328125 17.253906 23.261719 19.402344 21.582031 21.140625 C 21.550781 21.175781 21.519531 21.207031 21.488281 21.238281 C 21.042969 21.703125 20.589844 22.128906 20.070312 22.507812 C 20.011719 22.550781 19.957031 22.59375 19.898438 22.636719 C 19.5 22.929688 19.085938 23.191406 18.652344 23.4375 C 18.617188 23.457031 18.582031 23.476562 18.546875 23.496094 C 17.417969 24.132812 16.1875 24.558594 14.921875 24.820312 C 14.886719 24.828125 14.851562 24.835938 14.8125 24.839844 C 14.050781 24.988281 13.292969 25.019531 12.519531 25.015625 C 12.46875 25.015625 12.417969 25.015625 12.367188 25.015625 C 11.65625 25.011719 10.953125 25 10.253906 24.851562 C 10.183594 24.839844 10.183594 24.839844 10.109375 24.824219 C 8.160156 24.414062 6.136719 23.621094 4.640625 22.265625 C 4.613281 22.191406 4.613281 22.191406 4.589844 22.117188 C 4.8125 22.148438 5.035156 22.1875 5.253906 22.234375 C 5.925781 22.371094 6.589844 22.507812 7.273438 22.558594 C 7.328125 22.5625 7.382812 22.566406 7.4375 22.570312 C 10.023438 22.757812 12.660156 22.367188 14.992188 21.191406 C 15.035156 21.167969 15.082031 21.144531 15.128906 21.121094 C 15.816406 20.785156 16.46875 20.417969 17.089844 19.96875 C 17.125 19.945312 17.15625 19.921875 17.191406 19.898438 C 17.667969 19.554688 18.117188 19.1875 18.554688 18.796875 C 18.582031 18.773438 18.609375 18.75 18.640625 18.722656 C 18.925781 18.46875 19.203125 18.214844 19.449219 17.921875 C 19.546875 17.804688 19.652344 17.691406 19.761719 17.578125 C 20.957031 16.261719 21.875 14.617188 22.46875 12.953125 C 22.503906 12.859375 22.539062 12.765625 22.574219 12.671875 C 23.140625 11.214844 23.351562 9.613281 23.347656 8.054688 C 23.347656 8.023438 23.347656 7.988281 23.347656 7.953125 C 23.34375 7.351562 23.328125 6.753906 23.289062 6.152344 Z M 23.289062 6.152344 "></path><path style=" stroke:none;fill-rule:nonzero;fill:rgb(99.215686%,99.215686%,99.607843%);fill-opacity:1;" d="M 12.84375 7.375 C 13.632812 7.375 14.421875 7.375 15.234375 7.375 C 15.234375 9.4375 15.234375 11.5 15.234375 13.625 C 15.574219 13.625 15.910156 13.625 16.257812 13.625 C 16.257812 14.234375 16.257812 14.847656 16.257812 15.476562 C 15.921875 15.476562 15.582031 15.476562 15.234375 15.476562 C 15.234375 16.1875 15.234375 16.898438 15.234375 17.625 C 14.445312 17.625 13.65625 17.625 12.84375 17.625 C 12.84375 16.917969 12.84375 16.210938 12.84375 15.476562 C 11.535156 15.476562 10.230469 15.476562 8.886719 15.476562 C 8.855469 15.269531 8.820312 15.058594 8.789062 14.84375 C 8.773438 14.773438 8.757812 14.703125 8.742188 14.628906 C 8.632812 13.933594 8.976562 13.503906 9.367188 12.949219 C 9.542969 12.6875 9.707031 12.414062 9.871094 12.144531 C 10.117188 11.742188 10.367188 11.34375 10.617188 10.949219 C 10.820312 10.628906 11.019531 10.300781 11.222656 9.976562 C 11.59375 9.367188 11.972656 8.761719 12.351562 8.15625 C 12.515625 7.898438 12.675781 7.640625 12.84375 7.375 Z M 12.84375 7.375 "></path><path style=" stroke:none;fill-rule:nonzero;fill:rgb(0.392157%,38.039216%,90.196079%);fill-opacity:1;" d="M 12.792969 10.449219 C 12.808594 10.449219 12.824219 10.449219 12.84375 10.449219 C 12.84375 11.496094 12.84375 12.542969 12.84375 13.625 C 12.195312 13.625 11.554688 13.625 10.890625 13.625 C 11.164062 13.074219 11.164062 13.074219 11.273438 12.898438 C 11.300781 12.859375 11.324219 12.816406 11.351562 12.777344 C 11.375 12.734375 11.402344 12.695312 11.429688 12.652344 C 11.484375 12.5625 11.542969 12.472656 11.597656 12.382812 C 11.625 12.335938 11.652344 12.292969 11.683594 12.246094 C 11.816406 12.03125 11.945312 11.816406 12.074219 11.601562 C 12.246094 11.308594 12.421875 11.015625 12.605469 10.730469 C 12.632812 10.6875 12.632812 10.6875 12.664062 10.640625 C 12.703125 10.578125 12.75 10.511719 12.792969 10.449219 Z M 12.792969 10.449219 "></path></g></svg>