<svg xmlns="http://www.w3.org/2000/svg" xmlns:xlink="http://www.w3.org/1999/xlink" width="25px" height="25px" viewBox="0 0 25 25"><g id="surface1"><path style=" stroke:none;fill-rule:nonzero;fill:rgb(0%,37.64706%,90.196079%);fill-opacity:1;" d="M 12.480469 -0.015625 C 12.53125 -0.015625 12.582031 -0.015625 12.632812 -0.015625 C 13.34375 -0.0117188 14.046875 0 14.746094 0.144531 C 14.792969 0.15625 14.839844 0.164062 14.890625 0.175781 C 17.253906 0.671875 19.402344 1.738281 21.140625 3.417969 C 21.191406 3.464844 21.191406 3.464844 21.238281 3.511719 C 21.703125 3.957031 22.128906 4.410156 22.507812 4.929688 C 22.550781 4.988281 22.59375 5.042969 22.636719 5.101562 C 22.929688 5.5 23.191406 5.914062 23.4375 6.347656 C 23.457031 6.382812 23.476562 6.417969 23.496094 6.453125 C 24.132812 7.582031 24.558594 8.8125 24.820312 10.078125 C 24.828125 10.113281 24.835938 10.148438 24.839844 10.1875 C 24.988281 10.949219 25.019531 11.707031 25.015625 12.480469 C 25.015625 12.53125 25.015625 12.582031 25.015625 12.632812 C 25.011719 13.34375 25 14.046875 24.851562 14.746094 C 24.839844 14.816406 24.839844 14.816406 24.824219 14.890625 C 24.328125 17.253906 23.261719 19.402344 21.582031 21.140625 C 21.550781 21.175781 21.519531 21.207031 21.488281 21.238281 C 21.042969 21.703125 20.589844 22.128906 20.070312 22.507812 C 20.011719 22.550781 19.957031 22.59375 19.898438 22.636719 C 19.5 22.929688 19.085938 23.191406 18.652344 23.4375 C 18.617188 23.457031 18.582031 23.476562 18.546875 23.496094 C 17.417969 24.132812 16.1875 24.558594 14.921875 24.820312 C 14.886719 24.828125 14.851562 24.835938 14.8125 24.839844 C 14.050781 24.988281 13.292969 25.019531 12.519531 25.015625 C 12.445312 25.015625 12.445312 25.015625 12.367188 25.015625 C 11.65625 25.011719 10.953125 25 10.253906 24.851562 C 10.183594 24.839844 10.183594 24.839844 10.109375 24.824219 C 7.996094 24.382812 6.035156 23.484375 4.394531 22.070312 C 4.359375 22.039062 4.320312 22.007812 4.285156 21.976562 C 3.625 21.398438 3.007812 20.777344 2.492188 20.070312 C 2.449219 20.011719 2.40625 19.957031 2.363281 19.898438 C 2.070312 19.5 1.808594 19.085938 1.5625 18.652344 C 1.542969 18.617188 1.523438 18.582031 1.503906 18.546875 C 0.867188 17.417969 0.441406 16.1875 0.179688 14.921875 C 0.171875 14.886719 0.164062 14.851562 0.160156 14.8125 C 0.0117188 14.050781 -0.0195312 13.292969 -0.015625 12.519531 C -0.015625 12.46875 -0.015625 12.417969 -0.015625 12.367188 C -0.0117188 11.65625 0 10.953125 0.148438 10.253906 C 0.15625 10.207031 0.164062 10.160156 0.175781 10.109375 C 0.671875 7.746094 1.738281 5.597656 3.417969 3.859375 C 3.449219 3.824219 3.480469 3.792969 3.511719 3.761719 C 3.957031 3.296875 4.410156 2.871094 4.929688 2.492188 C 4.988281 2.449219 5.042969 2.40625 5.101562 2.363281 C 5.5 2.070312 5.914062 1.808594 6.347656 1.5625 C 6.382812 1.542969 6.417969 1.523438 6.453125 1.503906 C 7.582031 0.867188 8.8125 0.441406 10.078125 0.179688 C 10.113281 0.171875 10.148438 0.164062 10.1875 0.160156 C 10.949219 0.0117188 11.707031 -0.0195312 12.480469 -0.015625 Z M 12.480469 -0.015625 "></path><path style=" stroke:none;fill-rule:nonzero;fill:rgb(0%,30.19608%,72.941178%);fill-opacity:1;" d="M 23.289062 6.152344 C 24.144531 7.199219 24.554688 8.785156 24.820312 10.078125 C 24.828125 10.113281 24.835938 10.148438 24.839844 10.1875 C 24.988281 10.949219 25.019531 11.707031 25.015625 12.480469 C 25.015625 12.53125 25.015625 12.582031 25.015625 12.632812 C 25.011719 13.34375 25 14.046875 24.851562 14.746094 C 24.839844 14.816406 24.839844 14.816406 24.824219 14.890625 C 24.328125 17.253906 23.261719 19.402344 21.582031 21.140625 C 21.550781 21.175781 21.519531 21.207031 21.488281 21.238281 C 21.042969 21.703125 20.589844 22.128906 20.070312 22.507812 C 20.011719 22.550781 19.957031 22.59375 19.898438 22.636719 C 19.5 22.929688 19.085938 23.191406 18.652344 23.4375 C 18.617188 23.457031 18.582031 23.476562 18.546875 23.496094 C 17.417969 24.132812 16.1875 24.558594 14.921875 24.820312 C 14.886719 24.828125 14.851562 24.835938 14.8125 24.839844 C 14.050781 24.988281 13.292969 25.019531 12.519531 25.015625 C 12.46875 25.015625 12.417969 25.015625 12.367188 25.015625 C 11.65625 25.011719 10.953125 25 10.253906 24.851562 C 10.183594 24.839844 10.183594 24.839844 10.109375 24.824219 C 8.160156 24.414062 6.136719 23.621094 4.640625 22.265625 C 4.613281 22.191406 4.613281 22.191406 4.589844 22.117188 C 4.8125 22.148438 5.035156 22.1875 5.253906 22.234375 C 5.925781 22.371094 6.589844 22.507812 7.273438 22.558594 C 7.328125 22.5625 7.382812 22.566406 7.4375 22.570312 C 9.320312 22.707031 11.246094 22.582031 13.039062 21.957031 C 13.148438 21.917969 13.257812 21.882812 13.367188 21.847656 C 14.6875 21.402344 15.957031 20.785156 17.089844 19.96875 C 17.125 19.945312 17.15625 19.921875 17.191406 19.898438 C 17.667969 19.554688 18.117188 19.1875 18.554688 18.796875 C 18.582031 18.773438 18.609375 18.75 18.640625 18.722656 C 18.925781 18.46875 19.203125 18.214844 19.449219 17.921875 C 19.546875 17.804688 19.652344 17.691406 19.761719 17.578125 C 20.957031 16.261719 21.875 14.617188 22.46875 12.953125 C 22.503906 12.855469 22.539062 12.761719 22.578125 12.667969 C 23.371094 10.589844 23.421875 8.34375 23.289062 6.152344 Z M 23.289062 6.152344 "></path><path style=" stroke:none;fill-rule:nonzero;fill:rgb(99.607843%,99.607843%,99.607843%);fill-opacity:1;" d="M 12.453125 7.308594 C 12.507812 7.308594 12.566406 7.308594 12.625 7.304688 C 13.519531 7.304688 14.441406 7.613281 15.101562 8.230469 C 15.769531 8.9375 15.910156 9.738281 15.890625 10.6875 C 15.828125 11.917969 14.914062 12.84375 14.117188 13.703125 C 14.027344 13.804688 13.9375 13.90625 13.847656 14.007812 C 13.539062 14.363281 13.214844 14.707031 12.890625 15.050781 C 12.859375 15.085938 12.828125 15.121094 12.792969 15.15625 C 12.730469 15.222656 12.664062 15.289062 12.601562 15.359375 C 12.570312 15.390625 12.542969 15.421875 12.511719 15.453125 C 12.484375 15.480469 12.460938 15.507812 12.433594 15.535156 C 12.335938 15.644531 12.25 15.757812 12.15625 15.867188 C 13.480469 15.867188 14.800781 15.867188 16.164062 15.867188 C 16.164062 16.464844 16.164062 17.0625 16.164062 17.675781 C 13.808594 17.675781 11.457031 17.675781 9.03125 17.675781 C 9.03125 16.0625 9.03125 16.0625 9.476562 15.523438 C 9.726562 15.320312 9.726562 15.320312 9.847656 15.230469 C 9.992188 15.113281 10.105469 14.980469 10.226562 14.835938 C 10.339844 14.699219 10.46875 14.578125 10.59375 14.453125 C 10.753906 14.296875 10.910156 14.140625 11.054688 13.96875 C 11.210938 13.785156 11.378906 13.621094 11.546875 13.453125 C 11.75 13.253906 11.945312 13.050781 12.128906 12.835938 C 12.183594 12.769531 12.242188 12.707031 12.296875 12.644531 C 12.886719 12.007812 13.519531 11.148438 13.492188 10.242188 C 13.453125 9.929688 13.324219 9.589844 13.085938 9.375 C 12.726562 9.171875 12.351562 9.105469 11.949219 9.207031 C 11.601562 9.351562 11.429688 9.671875 11.289062 10.003906 C 11.207031 10.257812 11.207031 10.257812 11.179688 10.742188 C 10.40625 10.742188 9.632812 10.742188 8.835938 10.742188 C 8.835938 9.71875 9.09375 8.929688 9.820312 8.195312 C 10.574219 7.492188 11.445312 7.304688 12.453125 7.308594 Z M 12.453125 7.308594 "></path></g></svg>