<svg xmlns="http://www.w3.org/2000/svg" width="120" height="80" fill="none" xmlns:v="https://vecta.io/nano"><style><![CDATA[.B{fill:#fff}.C{fill:#58707f}.D{stroke-width:1.741}.E{stroke-miterlimit:10}.F{stroke-linecap:round}.G{stroke-linejoin:round}]]></style><g clip-path="url(#A)"><path d="M4 79.5C2.1 79.5.5 77.9.5 76V4C.5 2.1 2.1.5 4 .5h112c1.9 0 3.5 1.6 3.5 3.5v72c0 1.9-1.6 3.5-3.5 3.5H4z" class="B"/><path d="M94 70H83a.94.94 0 0 1-1-.997V10.997A.94.94 0 0 1 83 10h11a.94.94 0 0 1 1 .997v58.106c0 .498-.4.897-1 .897z" class="C"/><rect x="87" y="32" width="3" height="33" rx="1.5" class="B"/><path d="M86.8 21.4l3.4-3.3-3.3-3.3" stroke="#fff" class="D E F G"/><path d="M111 70h-11a.94.94 0 0 1-1-.997V10.997a.94.94 0 0 1 1-.997h11a.94.94 0 0 1 1 .997v58.106c0 .498-.4.897-1 .897z" class="C"/><rect x="104" y="32" width="3" height="33" rx="1.5" class="B"/><path d="M103.8 21.4l3.4-3.3-3.3-3.3" stroke="#fff" class="D E F G"/><path d="M19.391 70c-.195 0-.391-.2-.391-.4V11.4c0-.2.195-.4.391-.4h58.219c.195 0 .391.2.391.4v58.2c0 .2-.195.4-.391.4H19.391z" class="B"/><path d="M76.851 11.196v57.608H20.149V11.196h56.701zM77.042 10H19.958 19v60h.958 57.084c.575 0 .958-.399.958-.997V10.997c0-.598-.383-.997-.958-.997z" class="C"/><g fill="#9ea9b2"><use href="#B"/><path d="M72.487 35.2H26.114c-.407 0-.814-.3-.814-.8 0-.4.305-.8.814-.8h46.373c.407 0 .813.3.813.8 0 .4-.407.8-.813.8zm0 5.6H26.114c-.407 0-.814-.3-.814-.8 0-.4.305-.8.814-.8h46.373c.407 0 .813.3.813.8 0 .4-.407.8-.813.8zm0 5.6H26.114c-.407 0-.814-.3-.814-.8 0-.4.305-.8.814-.8h46.373c.407 0 .813.3.813.8 0 .4-.407.8-.813.8zM51.842 52H25.758c-.229 0-.458-.3-.458-.8 0-.4.172-.8.458-.8h26.085c.229 0 .458.3.458.8 0 .4-.229.8-.458.8z"/></g><path d="M20 70H9a.94.94 0 0 1-1-.997V10.997A.94.94 0 0 1 9 10h11a.94.94 0 0 1 1 .997v58.106c0 .498-.5.897-1 .897z" class="C"/><rect x="13" y="32" width="3" height="33" rx="1.5" class="B"/><path d="M16.2 14.8l-3.4 3.3 3.3 3.3" stroke="#fff" class="D E F G"/></g><path d="M4 .75h112A3.25 3.25 0 0 1 119.25 4v72a3.25 3.25 0 0 1-3.25 3.25H4A3.25 3.25 0 0 1 .75 76V4A3.25 3.25 0 0 1 4 .75z" stroke="#8796a1" stroke-width="1.5"/><defs><clipPath id="A"><path d="M0 4a4 4 0 0 1 4-4h112a4 4 0 0 1 4 4v72a4 4 0 0 1-4 4H4a4 4 0 0 1-4-4V4z" class="B"/></clipPath><path id="B" d="M72.487 29.6H26.114c-.407 0-.814-.3-.814-.8 0-.4.305-.8.814-.8h46.373c.407 0 .813.3.813.8 0 .4-.407.8-.813.8z"/></defs></svg>