<svg xmlns="http://www.w3.org/2000/svg" width="16" height="16" fill="#444d54" fill-rule="evenodd" xmlns:v="https://vecta.io/nano"><path d="M15.521 3.643c-.007-1.175-.492-1.636-1.659-1.639a3638.85 3638.85 0 0 0-11.695 0C1.004 2.007.52 2.471.513 3.649l-.003 8.74c.005 1.08.511 1.559 1.595 1.562l5.847.002 5.912-.001c1.158-.002 1.648-.457 1.656-1.632l.001-8.675h0zm-1.804 9.315l-5.72-.011v-.005c-1.885 0-3.771-.017-5.656.01-.589.008-.844-.151-.837-.792l-.002-8.355c-.005-.619.209-.816.819-.812l11.377.011c.787 0 .825.041.826.846l.012 8.291c.005.615-.203.825-.817.816h0zm-.621-4.846l-2.355-2.37c-.342-.361-.58-.383-.937-.011l-2.589 2.59c-.902.9-.903.904-1.832.051-.198-.182-.38-.377-.647-.108l-1.987 2.01c-.366.403-.277.951-.131 1.408.121.38.557.223.858.225l4.497.007v-.004l4.819-.003c.265-.001.646.069.659-.324V8.63c-.004-.225-.206-.368-.357-.518h0zM3.987 6.938c.792.005 1.496-.681 1.499-1.463.004-.772-.646-1.418-1.437-1.429-.834-.011-1.471.604-1.491 1.44-.017.74.679 1.448 1.429 1.452h0z"/></svg>