<svg xmlns="http://www.w3.org/2000/svg" width="120" height="80" fill="none" xmlns:v="https://vecta.io/nano"><style><![CDATA[.B{fill:#fff}.C{fill:#58707f}.D{fill-rule:evenodd}]]></style><g clip-path="url(#A)"><g class="B"><path d="M4 79.5C2.1 79.5.5 77.9.5 76V4C.5 2.1 2.1.5 4 .5h112c1.9 0 3.5 1.6 3.5 3.5v72c0 1.9-1.6 3.5-3.5 3.5H4z"/><path d="M14 39.4a.68.68 0 0 1-.7-.7V21.1a.68.68 0 0 1 .7-.7h42.1a.68.68 0 0 1 .7.7v17.6a.68.68 0 0 1-.7.7H14z"/></g><g class="C"><path d="M56.1 20.7c.2 0 .4.2.4.4v17.6c0 .2-.2.4-.4.4H14c-.2 0-.4-.2-.4-.4V21.1c0-.2.2-.4.4-.4h42.1zm0-.6H14a.94.94 0 0 0-1 1v17.6a.94.94 0 0 0 1 1h42.1a.94.94 0 0 0 1-1V21.1c0-.5-.4-1-1-1z"/><path d="M57.1 22.5H13V13a.94.94 0 0 1 1-1h42.1a.94.94 0 0 1 1 1v9.5z"/></g><rect x="16" y="16.1" width="27" height="3" rx="1.5" class="B"/><g fill="#9ea9b2"><rect x="17.1" y="25.7" width="34" height="1.75" rx=".875"/><rect x="17.1" y="29.95" width="34" height="1.75" rx=".875"/><rect x="17.1" y="34.2" width="18" height="1.75" rx=".875"/></g><path d="M50.907 15.5c.161 0 .315.064.429.178l2.3 2.3c.237.237.237.621 0 .858s-.621.237-.858 0l-1.871-1.871-1.871 1.871c-.237.237-.621.237-.858 0s-.237-.621 0-.858l2.3-2.3c.114-.114.268-.178.429-.178z" class="B D"/><rect x="13" y="43.35" width="44" height="10.5" rx=".75" class="C"/><g class="B"><rect x="16" y="47.1" width="25" height="3" rx="1.5"/><use href="#B" class="D"/></g><rect x="13" y="57.5" width="44" height="10.5" rx=".75" class="C"/><g class="B"><rect x="16" y="61.25" width="25" height="3" rx="1.5"/><path d="M51.093 64.507c.161 0 .315-.064.429-.178l2.3-2.3c.237-.237.237-.621 0-.858s-.621-.237-.858 0l-1.871 1.871-1.871-1.871c-.237-.237-.621-.237-.858 0s-.237.621 0 .858l2.3 2.3c.114.114.268.178.429.178z" class="D"/></g><rect x="63" y="12" width="44.1" height="10.5" rx=".75" class="C"/><g class="B"><rect x="66" y="15.75" width="25" height="3" rx="1.5"/><use href="#C" class="D"/></g><rect x="63" y="27.167" width="44.1" height="10.5" rx=".75" class="C"/><g class="B"><rect x="66" y="30.917" width="25" height="3" rx="1.5"/><path d="M101.193 34.173c.161 0 .316-.064.429-.178l2.3-2.3c.237-.237.237-.621 0-.858s-.621-.237-.858 0l-1.871 1.871-1.871-1.871c-.237-.237-.621-.237-.858 0s-.237.621 0 .858l2.299 2.3a.61.61 0 0 0 .429.178z" class="D"/></g><rect x="63" y="42.333" width="44.1" height="10.5" rx=".75" class="C"/><g class="B"><rect x="66" y="46.083" width="25" height="3" rx="1.5"/><path d="M101.193 49.34c.161 0 .316-.064.429-.178l2.3-2.3c.237-.237.237-.621 0-.858s-.621-.237-.858 0l-1.871 1.871-1.871-1.871c-.237-.237-.621-.237-.858 0s-.237.621 0 .858l2.299 2.3a.61.61 0 0 0 .429.178z" class="D"/></g><rect x="63" y="57.5" width="44.1" height="10.5" rx=".75" class="C"/><g class="B"><rect x="66" y="61.25" width="25" height="3" rx="1.5"/><path d="M101.193 64.507c.161 0 .316-.064.429-.178l2.3-2.3c.237-.237.237-.621 0-.858s-.621-.237-.858 0l-1.871 1.871-1.871-1.871c-.237-.237-.621-.237-.858 0s-.237.621 0 .858l2.299 2.3a.61.61 0 0 0 .429.178z" class="D"/></g></g><path d="M4 .75h112A3.25 3.25 0 0 1 119.25 4v72a3.25 3.25 0 0 1-3.25 3.25H4A3.25 3.25 0 0 1 .75 76V4A3.25 3.25 0 0 1 4 .75z" stroke="#8796a1" stroke-width="1.5"/><defs><clipPath id="A"><path d="M0 4a4 4 0 0 1 4-4h112a4 4 0 0 1 4 4v72a4 4 0 0 1-4 4H4a4 4 0 0 1-4-4V4z" class="B"/></clipPath><path id="B" d="M51.093 50.357c.161 0 .315-.064.429-.178l2.3-2.3c.237-.237.237-.621 0-.858s-.621-.237-.858 0l-1.871 1.871-1.871-1.871c-.237-.237-.621-.237-.858 0s-.237.621 0 .858l2.3 2.3c.114.114.268.178.429.178z"/><path id="C" d="M101.193 19.007c.161 0 .316-.064.429-.178l2.3-2.3c.237-.237.237-.621 0-.858s-.621-.237-.858 0l-1.871 1.871-1.871-1.871c-.237-.237-.621-.237-.858 0s-.237.621 0 .858l2.299 2.3a.61.61 0 0 0 .429.178z"/></defs></svg>