<svg xmlns="http://www.w3.org/2000/svg" width="120" height="80" fill="none" xmlns:v="https://vecta.io/nano"><g clip-path="url(#A)"><path d="M4 79.5C2.1 79.5.5 77.9.5 76V4C.5 2.1 2.1.5 4 .5h112c1.9 0 3.5 1.6 3.5 3.5v72c0 1.9-1.6 3.5-3.5 3.5H4z" fill="#fff"/><path d="M105.5 70h-91a.94.94 0 0 1-1-1V58.1a.94.94 0 0 1 1-1h90.9a.94.94 0 0 1 1 1V69c.1.6-.4 1-.9 1z" fill="#58707f"/><path d="M81.7 65.1H21.2a.94.94 0 0 1-1-1v-1a.94.94 0 0 1 1-1h60.5a.94.94 0 0 1 1 1v1a1.08 1.08 0 0 1-1 1z" fill="#fff"/><path d="M93.2 61.9l3.3 3.3 3.3-3.3" stroke="#fff" stroke-width="1.741" stroke-miterlimit="10" stroke-linecap="round" stroke-linejoin="round"/><path d="M14.5 49.8a.47.47 0 0 1-.5-.5V21.9a.47.47 0 0 1 .5-.5h90.9a.47.47 0 0 1 .5.5v27.3a.47.47 0 0 1-.5.5H14.5v.1z" fill="#fff"/><g fill="#58707f"><path d="M105.4 22v27.2H14.6V22h90.8zm.1-1.1h-91a.94.94 0 0 0-1 1v27.3a.94.94 0 0 0 1 1h90.9a.94.94 0 0 0 1-1V21.9c.1-.5-.4-1-.9-1z"/><path d="M105.5 22.9h-91a.94.94 0 0 1-1-1V11a.94.94 0 0 1 1-1h90.9a.94.94 0 0 1 1 1v10.9c.1.6-.4 1-.9 1z"/></g><path d="M81.7 17.9H21.2a.94.94 0 0 1-1-1v-1a.94.94 0 0 1 1-1h60.5a.94.94 0 0 1 1 1v1c0 .6-.5 1-1 1z" fill="#fff"/><path d="M99.8 18.1l-3.3-3.3-3.3 3.3" stroke="#fff" stroke-width="1.741" stroke-miterlimit="10" stroke-linecap="round" stroke-linejoin="round"/><g fill="#9ea9b2"><rect x="20" y="27" width="79.9" height="1.75" rx=".875"/><rect x="20" y="32.25" width="79.9" height="1.75" rx=".875"/><rect x="20" y="37.5" width="79.9" height="1.75" rx=".875"/><rect x="20" y="42.75" width="31.9" height="1.75" rx=".875"/></g></g><path d="M4 .75h112A3.25 3.25 0 0 1 119.25 4v72a3.25 3.25 0 0 1-3.25 3.25H4A3.25 3.25 0 0 1 .75 76V4A3.25 3.25 0 0 1 4 .75z" stroke="#8796a1" stroke-width="1.5"/><defs><clipPath id="A"><path d="M0 4a4 4 0 0 1 4-4h112a4 4 0 0 1 4 4v72a4 4 0 0 1-4 4H4a4 4 0 0 1-4-4V4z" fill="#fff"/></clipPath></defs></svg>