<svg xmlns="http://www.w3.org/2000/svg" width="250" height="207" fill="none" xmlns:v="https://vecta.io/nano"><style><![CDATA[.B{fill:#fff}.C{stroke:#f21197}.D{fill:#718491}.E{stroke-width:1.5}]]></style><path d="M0 0h250v207H0z" class="B"/><rect x="83" y="174.5" width="11" height="11" rx="5.5" fill="#ffd9f1" class="C"/><text fill="#546069" xml:space="preserve" style="white-space:pre" font-family="Roboto" font-size="12" font-weight="600" letter-spacing="0em"><tspan x="98.5" y="184.031">Custom Icon</tspan></text><rect x="19.5" y="18.5" width="211" height="148" rx="3.5" class="B"/><rect x="19.5" y="18.5" width="211" height="148" rx="3.5" stroke="#bbc2c7"/><rect x="31.5" y="28.5" width="186.077" height="77.769" rx=".5" stroke="#718491" class="B"/><mask id="A" class="B"><path d="M31 29a1 1 0 0 1 1-1h185.077a1 1 0 0 1 1 1v19H31V29z"/></mask><path d="M31 29a1 1 0 0 1 1-1h185.077a1 1 0 0 1 1 1v19H31V29z" stroke="#718491" stroke-width="2.462" mask="url(#A)" class="D"/><g class="B"><path d="M210.454 35.772v1.688h-7.762v-1.688h7.762z"/><rect x="54.385" y="34.154" width="130.462" height="4.923" rx="1.231"/></g><g opacity=".8" class="D"><rect x="37.708" y="52" width="173.538" height="3.692" rx="1.846"/><rect x="37.708" y="63.077" width="173.538" height="3.692" rx="1.846"/><rect x="37.708" y="74.154" width="173.538" height="3.692" rx="1.846"/><rect x="37.708" y="85.231" width="173.538" height="3.692" rx="1.846"/><rect x="37.708" y="96.307" width="104.615" height="3.692" rx="1.846"/></g><rect x="35.75" y="30.75" width="14.5" height="14.5" rx="1.25" class="C E"/><g clip-path="url(#B)" class="B"><path d="M43 43a1.25 1.25 0 0 0 1.249-1.25h-2.499A1.25 1.25 0 0 0 43 43zm4.207-2.924c-.377-.406-1.083-1.016-1.083-3.014 0-1.518-1.064-2.732-2.499-3.031v-.407c0-.345-.28-.625-.625-.625s-.625.28-.625.625v.407c-1.435.298-2.499 1.513-2.499 3.031 0 1.998-.706 2.608-1.083 3.014a.61.61 0 0 0-.168.424c.002.32.254.625.627.625h7.496c.373 0 .625-.305.627-.625a.61.61 0 0 0-.168-.424z"/></g><rect x="31" y="112.769" width="187" height="20" rx="1" class="D"/><g class="B"><use href="#D"/><rect x="54.692" y="120.923" width="130.462" height="4.923" rx="1.231"/></g><rect x="35.75" y="115.519" width="14.5" height="14.5" rx="1.25" class="C E"/><g clip-path="url(#C)" class="B"><path d="M43 118.394c-2.762 0-5 1.819-5 4.063 0 .969.418 1.855 1.113 2.553-.244.984-1.061 1.861-1.07 1.871-.043.045-.055.111-.029.17s.08.093.142.093c1.295 0 2.266-.621 2.746-1.004a5.94 5.94 0 0 0 2.098.379c2.762 0 5-1.818 5-4.062s-2.238-4.063-5-4.063zm-2.5 4.688c-.346 0-.625-.28-.625-.625s.279-.625.625-.625.625.279.625.625-.279.625-.625.625zm2.5 0c-.346 0-.625-.28-.625-.625s.279-.625.625-.625.625.279.625.625-.279.625-.625.625zm2.5 0c-.346 0-.625-.28-.625-.625s.279-.625.625-.625.625.279.625.625-.279.625-.625.625z"/></g><rect x="31" y="138.769" width="187" height="20" rx="1" class="D"/><g class="B"><use href="#D" y="26"/><rect x="54.692" y="146.923" width="130.462" height="4.923" rx="1.231"/></g><rect x="35.75" y="141.519" width="14.5" height="14.5" rx="1.25" class="C E"/><path d="M47.063 146.269h-3.75l-1.25-1.25h-3.125a.94.94 0 0 0-.937.938v5.625c0 .518.42.937.938.937h8.125c.518 0 .938-.419.938-.937v-4.375a.94.94 0 0 0-.937-.938zm-1.875 3.282c0 .172-.14.312-.312.312h-3.75c-.173 0-.312-.14-.312-.312v-.313c0-.173.14-.312.313-.312h3.75c.173 0 .313.139.313.312v.313z" class="B"/><path d="M81 181a4 4 0 1 1-8 0 4 4 0 1 1 8 0zm-69 0v.75a.75.75 0 0 1-.75-.75H12zm0-143h-.75a.75.75 0 0 1 .75-.75V38zm22 0l-7.5 4.33v-8.66L34 38zm.5 84.5l-7.5 4.33v-8.66l7.5 4.33zm0 27l-7.5 4.33v-8.66l7.5 4.33zM77 181.75H12v-1.5h65v1.5zM12 37.25h15.25v1.5H12v-1.5zm-.75 85.25V38h1.5v84.5h-1.5zm.75-.75h15.75v1.5H12v-1.5zM11.25 181v-31.5h1.5V181h-1.5zm0-31.5v-27h1.5v27h-1.5zm.75-.75h15.75v1.5H12v-1.5z" fill="#f21197"/><defs><clipPath id="B"><path transform="translate(38 33)" d="M0 0h10v10H0z" class="B"/></clipPath><clipPath id="C"><path transform="translate(38 117.769)" d="M0 0h10v10H0z" class="B"/></clipPath><path id="D" d="M210.673 122.51v1.565h-7.197v-1.565h7.197zm-2.755-2.942v7.644h-1.68v-7.644h1.68z"/></defs></svg>