<svg width="20" height="20" viewBox="0 0 20 20" fill="none" xmlns="http://www.w3.org/2000/svg">
<path fill-rule="evenodd" clip-rule="evenodd" d="M13.6538 18.8458H1.72658V15.4231H3.04141V17.531H12.8947L13.6538 18.8458ZM13.4715 14.3511L14.0487 15.3503H16.3562L17.5102 17.3491H15.2022L13.4715 14.3511L12.8947 15.3503L14.6254 18.3484H18.0869L18.6639 17.3491L16.9334 14.3511H13.4715ZM14.6254 12.3528L14.0482 13.3518H17.5102L19.2409 16.3496L19.8177 15.3503L18.0874 12.3528H14.6254ZM7.49406 11.0458H0V12.3607H7.53175L5.7094 14.183L6.63898 15.1128L10.0297 11.7221L6.63898 8.33138L5.7094 9.26118L7.49406 11.0458ZM20 13.5596L18.6852 11.2827V5.56192H13.5223V12.0832L12.4891 13.872L12.2075 14.3598V5.56192H3.04141V7.75329H1.72658V0H20V13.5596ZM3.04141 4.2471V1.31482H18.6852V4.2471H3.04141Z" fill="white"/>
</svg>
