<?xml version="1.0" encoding="UTF-8"?>
<!DOCTYPE svg PUBLIC "-//W3C//DTD SVG 1.1//EN" "http://www.w3.org/Graphics/SVG/1.1/DTD/svg11.dtd">
<svg xmlns="http://www.w3.org/2000/svg" version="1.1" width="100px" height="100px" style="shape-rendering:geometricPrecision; text-rendering:geometricPrecision; image-rendering:optimizeQuality; fill-rule:evenodd; clip-rule:evenodd" xmlns:xlink="http://www.w3.org/1999/xlink">
<g><path style="opacity:0.858" fill="#004c8b" d="M 63.5,4.5 C 67.8328,3.68534 70.1662,5.35201 70.5,9.5C 73.0488,9.61258 75.3821,8.94592 77.5,7.5C 81.057,9.79403 81.3903,12.6274 78.5,16C 79.9544,17.7134 81.7877,18.8801 84,19.5C 84.4935,21.1341 84.6602,22.8008 84.5,24.5C 78.511,24.6464 77.1777,27.1464 80.5,32C 80.2409,33.2613 79.5742,34.2613 78.5,35C 75.9792,34.2704 73.3126,33.7704 70.5,33.5C 70.1667,35.5 69.8333,37.5 69.5,39.5C 65.1694,40.5489 63.0027,38.8822 63,34.5C 62.4387,33.9781 61.772,33.6448 61,33.5C 59.2017,34.5038 57.3684,35.0038 55.5,35C 51.9529,32.955 51.9529,30.6216 55.5,28C 54.2574,25.5451 52.2574,24.3784 49.5,24.5C 49.5,22.5 49.5,20.5 49.5,18.5C 52.0217,18.8719 54.0217,18.0386 55.5,16C 51.256,12.6482 51.5893,9.81483 56.5,7.5C 60.8869,10.8314 63.2202,9.83144 63.5,4.5 Z M 63.5,16.5 C 68.7064,15.1199 71.7064,16.9532 72.5,22C 70.6522,27.4242 67.3189,28.5909 62.5,25.5C 60.992,22.2313 61.3254,19.2313 63.5,16.5 Z"/></g>
<g><path style="opacity:0.746" fill="#004c8b" d="M 85.5,5.5 C 88.8067,6.0508 92.1401,6.38413 95.5,6.5C 95.7852,8.28801 95.4519,9.95467 94.5,11.5C 93.549,10.6744 92.549,10.5078 91.5,11C 93.4876,16.6486 93.9876,22.482 93,28.5C 91.9265,32.3189 90.0932,35.6522 87.5,38.5C 86.3279,38.0814 85.3279,37.4147 84.5,36.5C 89.5616,29.4311 90.7283,21.7644 88,13.5C 86.7813,17.1776 85.2813,17.1776 83.5,13.5C 84.1712,10.8151 84.8379,8.1484 85.5,5.5 Z"/></g>
<g><path style="opacity:0.75" fill="#004c8b" d="M 35.5,20.5 C 43.5206,23.3142 44.1873,27.1475 37.5,32C 35.7991,32.3446 34.4658,31.6779 33.5,30C 23.4064,28.4651 14.4064,32.1318 6.5,41C 3.8659,41.9248 2.69923,41.0915 3,38.5C 11.6311,28.841 22.4645,24.0076 35.5,24C 32.8749,22.6072 32.8749,21.4405 35.5,20.5 Z"/></g>
<g><path style="opacity:0.875" fill="#004c8b" d="M 31.5,35.5 C 36.272,34.6032 38.6053,36.6032 38.5,41.5C 39.4461,41.9867 40.4461,42.3201 41.5,42.5C 43.1804,40.9907 45.0138,39.6573 47,38.5C 48.9514,38.8877 50.4514,39.8877 51.5,41.5C 48.3711,48.0428 50.3711,50.3761 57.5,48.5C 59.2716,49.3599 60.6049,50.6932 61.5,52.5C 59.6397,53.9387 57.973,55.6053 56.5,57.5C 57.2458,58.7362 57.5792,60.0695 57.5,61.5C 59.861,61.6741 62.1944,62.0074 64.5,62.5C 64.5,64.5 64.5,66.5 64.5,68.5C 60.6232,68.054 57.9565,69.554 56.5,73C 58.3284,74.6629 59.9951,76.4962 61.5,78.5C 59.8852,82.3074 57.2186,83.3074 53.5,81.5C 48.8403,82.9756 48.1736,85.6423 51.5,89.5C 48.4695,93.583 45.8029,93.4163 43.5,89C 38.5071,87.4914 36.5071,89.3248 37.5,94.5C 35.1667,94.5 32.8333,94.5 30.5,94.5C 31.4929,89.3248 29.4929,87.4914 24.5,89C 22.1971,93.4163 19.5305,93.583 16.5,89.5C 18.5251,86.7835 18.5251,84.2835 16.5,82C 13.7652,82.1977 11.0985,82.031 8.5,81.5C 7.83333,80.5 7.16667,79.5 6.5,78.5C 7.98201,76.5171 9.64868,74.6837 11.5,73C 10.6634,71.9887 10.33,70.8221 10.5,69.5C 8.19438,69.0074 5.86105,68.6741 3.5,68.5C 3.5,66.5 3.5,64.5 3.5,62.5C 5.80562,62.0074 8.13895,61.6741 10.5,61.5C 10.4208,60.0695 10.7542,58.7362 11.5,57.5C 9.63968,56.0613 7.97302,54.3947 6.5,52.5C 7,51.5 7.5,50.5 8,49.5C 10.7577,48.8828 13.591,48.7161 16.5,49C 18.5251,46.7165 18.5251,44.2165 16.5,41.5C 17.9462,39.2754 19.9462,38.4421 22.5,39C 27.6116,44.123 30.6116,42.9563 31.5,35.5 Z M 29.5,50.5 C 40.7565,49.4271 47.4232,54.4271 49.5,65.5C 47.0037,77.9138 39.6704,82.4138 27.5,79C 17.5894,72.1985 16.256,64.0319 23.5,54.5C 25.5654,53.1433 27.5654,51.81 29.5,50.5 Z"/></g>
<g><path style="opacity:0.86" fill="#004c8b" d="M 79.5,42.5 C 82.1627,43.6352 84.4961,45.3018 86.5,47.5C 88.9791,46.0481 90.9791,46.5481 92.5,49C 92.2409,50.2613 91.5742,51.2613 90.5,52C 92.2111,53.8412 93.8778,55.6745 95.5,57.5C 94.2323,59.5781 92.5656,61.4114 90.5,63C 93.1496,65.6778 92.6496,67.8444 89,69.5C 85.8601,66.9679 83.6935,67.8013 82.5,72C 81.2068,72.49 79.8734,72.6567 78.5,72.5C 78.0481,67.5277 75.8814,66.5277 72,69.5C 69.4065,67.3001 68.7398,64.6334 70,61.5C 66.6509,60.2589 65.8176,58.0922 67.5,55C 68.448,54.5172 69.448,54.3505 70.5,54.5C 70.1489,52.1305 69.9822,49.7972 70,47.5C 72.133,46.5823 74.2996,46.4156 76.5,47C 77.8825,45.7292 78.8825,44.2292 79.5,42.5 Z M 78.5,53.5 C 83.8807,53.4517 85.5474,55.9517 83.5,61C 76.745,61.7558 75.0783,59.2558 78.5,53.5 Z"/></g>
</svg>
