<?xml version="1.0" standalone="no"?>
<!DOCTYPE svg PUBLIC "-//W3C//DTD SVG 20010904//EN"
 "http://www.w3.org/TR/2001/REC-SVG-20010904/DTD/svg10.dtd">
<svg version="1.0" xmlns="http://www.w3.org/2000/svg"
 width="100.000000pt" height="100.000000pt" viewBox="0 0 100.000000 100.000000"
 preserveAspectRatio="xMidYMid meet">

<g transform="translate(0.000000,100.000000) scale(0.100000,-0.100000)"
fill="#000000" stroke="none">
<path d="M650 938 c0 -8 -6 -23 -14 -33 -12 -17 -17 -18 -42 -7 -23 11 -30 11
-43 -2 -12 -12 -12 -18 -3 -28 22 -22 14 -49 -18 -61 -17 -6 -30 -19 -30 -28
0 -10 13 -21 30 -28 31 -10 37 -29 20 -61 -14 -26 14 -49 40 -32 25 15 49 5
56 -24 8 -33 40 -31 56 4 9 18 20 26 33 24 64 -10 63 -11 53 53 -2 13 6 24 25
33 34 17 36 49 3 58 -30 7 -40 29 -24 53 16 25 3 55 -20 46 -38 -17 -66 -11
-72 15 -6 27 -50 43 -50 18z m63 -110 c9 -7 19 -25 22 -40 5 -21 1 -33 -19
-52 -31 -31 -45 -32 -80 -5 -30 24 -34 63 -9 91 19 21 62 24 86 6z"/>
<path d="M860 916 c0 -7 -3 -28 -6 -45 -5 -24 -3 -31 10 -31 9 0 16 8 16 17 0
40 22 -8 27 -59 5 -46 1 -65 -20 -112 -16 -34 -22 -58 -16 -62 15 -9 37 24 55
86 16 54 12 119 -11 174 -7 15 -5 17 13 11 16 -4 22 -2 22 8 0 15 -29 27 -67
27 -13 0 -23 -6 -23 -14z"/>
<path d="M355 770 c-3 -5 -1 -10 4 -10 6 0 11 -5 11 -11 0 -6 -7 -9 -15 -6
-24 10 -123 -11 -179 -36 -52 -24 -136 -91 -136 -108 0 -18 23 -8 67 31 50 44
125 76 204 86 46 6 52 5 46 -9 -11 -28 14 -30 41 -4 l26 26 -24 26 c-25 27
-35 30 -45 15z"/>
<path d="M320 615 c-5 -14 -10 -30 -10 -34 0 -20 -45 -20 -65 -1 -41 38 -75
18 -56 -32 8 -21 6 -29 -9 -43 -16 -14 -25 -15 -49 -7 -27 10 -32 8 -42 -10
-10 -19 -8 -25 15 -43 23 -18 25 -25 17 -48 -7 -18 -19 -27 -38 -29 -20 -2
-29 -9 -31 -26 -3 -18 2 -23 28 -29 45 -8 55 -40 24 -74 -35 -37 -23 -63 23
-54 47 9 76 -16 62 -52 -13 -35 -12 -41 13 -48 15 -6 26 -1 38 15 24 32 66 21
75 -20 5 -23 12 -30 30 -30 17 0 24 7 28 30 8 40 51 52 73 21 16 -23 31 -26
53 -12 11 7 11 15 3 39 -14 42 11 66 61 57 46 -9 58 17 23 54 -31 34 -21 66
24 74 26 6 31 11 28 29 -2 17 -11 24 -31 26 -19 2 -31 11 -38 29 -8 23 -6 30
17 48 23 18 25 24 15 43 -10 18 -15 20 -42 10 -25 -8 -33 -7 -50 8 -18 16 -19
26 -2 71 9 22 -38 26 -61 4 -29 -28 -61 -18 -73 22 -11 41 -40 47 -53 12z
m109 -142 c45 -34 71 -82 71 -130 0 -91 -64 -155 -155 -157 -61 0 -94 18 -132
74 -52 76 -13 192 77 229 36 15 108 7 139 -16z"/>
<path d="M784 533 c-17 -22 -23 -24 -40 -15 -29 15 -47 -3 -32 -31 9 -18 6
-24 -18 -44 l-29 -23 30 -24 c26 -21 28 -27 18 -44 -16 -26 2 -43 38 -35 21 4
30 0 38 -16 15 -27 38 -27 46 0 6 17 14 20 43 17 36 -3 37 -2 34 29 -1 24 4
36 18 45 23 15 27 48 6 48 -17 0 -31 34 -21 50 12 19 -15 41 -35 30 -19 -10
-50 9 -50 31 0 18 -27 8 -46 -18z m61 -79 c25 -25 15 -67 -19 -79 -24 -8 -31
-6 -47 14 -24 29 -24 36 1 61 24 24 43 25 65 4z"/>
</g>
</svg>
