<?xml version="1.0" encoding="UTF-8"?>
<!DOCTYPE svg PUBLIC "-//W3C//DTD SVG 1.1//EN" "http://www.w3.org/Graphics/SVG/1.1/DTD/svg11.dtd">
<svg xmlns="http://www.w3.org/2000/svg" version="1.1" width="100px" height="100px" style="shape-rendering:geometricPrecision; text-rendering:geometricPrecision; image-rendering:optimizeQuality; fill-rule:evenodd; clip-rule:evenodd" xmlns:xlink="http://www.w3.org/1999/xlink">
<g><path style="opacity:0.777" fill="#004c8b" d="M 55.5,4.5 C 68.5497,4.18554 81.5497,4.51887 94.5,5.5C 95.1924,6.02527 95.6924,6.69194 96,7.5C 96.6667,16.5 96.6667,25.5 96,34.5C 94.5104,36.558 92.5104,37.8913 90,38.5C 85.1283,35.3631 85.6283,33.3631 91.5,32.5C 91.5,24.8333 91.5,17.1667 91.5,9.5C 80.1667,9.5 68.8333,9.5 57.5,9.5C 57.3336,17.84 57.5003,26.1733 58,34.5C 58.5,34 59,33.5 59.5,33C 66.8333,32.3333 74.1667,32.3333 81.5,33C 84.1496,35.0821 83.8163,36.7488 80.5,38C 73.8333,38.3333 67.1667,38.6667 60.5,39C 59.1667,40.3333 57.8333,41.6667 56.5,43C 54.8876,43.7203 53.3876,43.5536 52,42.5C 51.3333,31.5 51.3333,20.5 52,9.5C 52.2572,7.09347 53.4238,5.42681 55.5,4.5 Z"/></g>
<g><path style="opacity:0.781" fill="#004c8b" d="M 61.5,13.5 C 63.8568,13.3367 66.1902,13.5034 68.5,14C 69.5171,15.0495 69.6838,16.2161 69,17.5C 66.5991,18.6023 64.0991,18.769 61.5,18C 60.2721,16.5098 60.2721,15.0098 61.5,13.5 Z"/></g>
<g><path style="opacity:0.806" fill="#004c8b" d="M 74.5,13.5 C 78.8461,13.3343 83.1794,13.501 87.5,14C 88.8333,15.3333 88.8333,16.6667 87.5,18C 83.1667,18.6667 78.8333,18.6667 74.5,18C 73.2721,16.5098 73.2721,15.0098 74.5,13.5 Z"/></g>
<g><path style="opacity:0.801" fill="#004c8b" d="M 61.5,23.5 C 70.1731,23.3336 78.8397,23.5002 87.5,24C 88.8333,25.3333 88.8333,26.6667 87.5,28C 78.8333,28.6667 70.1667,28.6667 61.5,28C 60.2721,26.5098 60.2721,25.0098 61.5,23.5 Z"/></g>
<g><path style="opacity:0.83" fill="#004c8b" d="M 40.5,27.5 C 47.1424,27.64 49.9758,30.9734 49,37.5C 48.3632,39.3031 47.1965,40.6364 45.5,41.5C 44.5481,43.0453 44.2148,44.712 44.5,46.5C 53.2756,46.0592 61.9422,46.5592 70.5,48C 72.6974,51.4699 74.0308,55.3033 74.5,59.5C 82.6888,63.9429 84.5221,70.2762 80,78.5C 78.5867,80.4136 76.7534,81.7469 74.5,82.5C 74.0308,86.6967 72.6974,90.5301 70.5,94C 51.8333,94.6667 33.1667,94.6667 14.5,94C 13.6667,93.1667 12.8333,92.3333 12,91.5C 11.8214,88.4465 11.3214,85.4465 10.5,82.5C 2.59798,78.6319 0.431315,72.6319 4,64.5C 5.7391,62.2589 7.90577,60.5922 10.5,59.5C 11.3214,56.5535 11.8214,53.5535 12,50.5C 13.1667,49.3333 14.3333,48.1667 15.5,47C 23.4931,46.5003 31.4931,46.3336 39.5,46.5C 39.6602,44.8008 39.4935,43.1341 39,41.5C 32.9308,36.1878 33.4308,31.5211 40.5,27.5 Z M 40.5,33.5 C 41.8333,33.5 43.1667,33.5 44.5,33.5C 42.8384,38.5363 41.505,38.5363 40.5,33.5 Z M 17.5,51.5 C 34.1667,51.5 50.8333,51.5 67.5,51.5C 67.3337,58.8409 67.5003,66.1742 68,73.5C 69.6667,74.8333 71.3333,74.8333 73,73.5C 73.1816,70.7737 73.6816,68.1071 74.5,65.5C 78.2898,69.0183 78.2898,72.685 74.5,76.5C 72.0514,76.98 69.8847,77.98 68,79.5C 67.5014,83.1516 67.3347,86.8183 67.5,90.5C 50.83,90.6666 34.1633,90.4999 17.5,90C 16.6851,82.9133 16.1851,75.7466 16,68.5C 14.6667,67.1667 13.3333,67.1667 12,68.5C 11.6667,71.5 11.3333,74.5 11,77.5C 6.56724,73.4814 6.40058,69.3148 10.5,65C 12.2182,64.654 13.8849,64.154 15.5,63.5C 16.2272,59.4594 16.8939,55.4594 17.5,51.5 Z M 29.5,62.5 C 34.7083,62.369 36.3749,64.7024 34.5,69.5C 31.033,71.9575 28.3663,71.1242 26.5,67C 26.9567,65.0598 27.9567,63.5598 29.5,62.5 Z M 51.5,62.5 C 56.4943,62.329 58.3276,64.6624 57,69.5C 53.0728,72.1346 50.2395,71.1346 48.5,66.5C 49.1716,64.8405 50.1716,63.5072 51.5,62.5 Z"/></g>
<g><path style="opacity:0.795" fill="#004c8b" d="M 27.5,57.5 C 39.7218,57.7883 43.0552,63.2883 37.5,74C 30.6459,78.1506 25.4792,76.6506 22,69.5C 20.8735,64.0891 22.7068,60.0891 27.5,57.5 Z M 29.5,62.5 C 27.9567,63.5598 26.9567,65.0598 26.5,67C 28.3663,71.1242 31.033,71.9575 34.5,69.5C 36.3749,64.7024 34.7083,62.369 29.5,62.5 Z"/></g>
<g><path style="opacity:0.808" fill="#004c8b" d="M 49.5,57.5 C 58.9874,56.8195 63.1541,61.1528 62,70.5C 56.7886,77.9394 51.122,78.2727 45,71.5C 42.7629,65.6392 44.2629,60.9725 49.5,57.5 Z M 51.5,62.5 C 50.1716,63.5072 49.1716,64.8405 48.5,66.5C 50.2395,71.1346 53.0728,72.1346 57,69.5C 58.3276,64.6624 56.4943,62.329 51.5,62.5 Z"/></g>
<g><path style="opacity:0.77" fill="#004c8b" d="M 30.5,78.5 C 34.3264,79.8805 38.3264,80.8805 42.5,81.5C 45.8099,81.3408 48.8099,80.3408 51.5,78.5C 53.2664,78.4342 54.2664,79.2676 54.5,81C 48.046,87.7724 40.7127,88.7724 32.5,84C 29.9177,82.6618 29.2511,80.8285 30.5,78.5 Z"/></g>
</svg>
