<?xml version="1.0" standalone="no"?>
<!DOCTYPE svg PUBLIC "-//W3C//DTD SVG 20010904//EN"
 "http://www.w3.org/TR/2001/REC-SVG-20010904/DTD/svg10.dtd">
<svg version="1.0" xmlns="http://www.w3.org/2000/svg"
 width="100.000000pt" height="100.000000pt" viewBox="0 0 100.000000 100.000000"
 preserveAspectRatio="xMidYMid meet">

<g transform="translate(0.000000,100.000000) scale(0.100000,-0.100000)"
fill="#000000" stroke="none">
<path d="M550 930 c-18 -18 -20 -33 -20 -189 0 -112 4 -172 11 -177 6 -3 25 8
42 24 31 30 35 31 137 34 85 2 105 6 105 18 0 12 -20 16 -109 18 -66 2 -113
-1 -120 -8 -23 -23 -26 -4 -24 123 l3 132 175 0 175 0 0 -120 c0 -118 0 -120
-23 -123 -36 -5 -24 -38 13 -35 48 4 55 24 55 160 0 171 11 163 -220 163 -167
0 -181 -1 -200 -20z"/>
<path d="M622 833 c4 -22 44 -29 63 -13 22 18 9 30 -31 30 -28 0 -35 -4 -32
-17z"/>
<path d="M746 841 c-12 -18 24 -32 76 -29 41 2 54 7 56 21 3 15 -5 17 -62 17
-36 0 -67 -4 -70 -9z"/>
<path d="M630 752 c-6 -2 -10 -10 -10 -18 0 -11 25 -14 130 -14 109 0 130 2
130 15 0 8 -3 15 -7 15 -62 3 -236 4 -243 2z"/>
<path d="M394 702 c-15 -10 -34 -47 -34 -67 0 -9 12 -27 26 -40 16 -15 24 -32
22 -47 -3 -22 -7 -23 -131 -28 -143 -6 -147 -7 -147 -78 0 -35 -4 -44 -23 -51
-96 -37 -96 -175 1 -212 18 -7 22 -16 22 -52 0 -77 -2 -77 303 -77 263 0 266
0 281 22 9 12 16 39 16 59 0 30 6 39 38 60 69 45 69 143 -1 188 -31 21 -37 30
-37 60 0 20 -7 47 -16 59 -14 21 -22 22 -140 22 l-124 0 0 33 c0 21 7 36 20
45 29 18 27 76 -2 96 -24 17 -56 20 -74 8z m59 -44 c7 -21 -4 -38 -23 -38 -23
0 -34 16 -26 35 7 18 43 20 49 3z m237 -288 c0 -103 1 -110 20 -110 17 0 20 7
20 45 0 25 4 45 9 45 20 0 41 -33 41 -64 0 -36 -19 -59 -63 -75 -25 -10 -27
-15 -27 -66 l0 -55 -260 0 -259 0 -3 107 c-3 93 -5 108 -20 111 -15 3 -18 -4
-18 -42 0 -52 -18 -61 -44 -24 -32 45 -9 101 47 116 31 8 32 10 35 65 l3 57
259 0 260 0 0 -110z"/>
<path d="M293 412 c-59 -9 -83 -103 -38 -147 55 -56 145 -16 145 63 0 57 -47
94 -107 84z m57 -52 c24 -24 24 -29 4 -58 -29 -42 -84 -23 -84 30 0 45 46 62
80 28z"/>
<path d="M502 405 c-58 -25 -70 -94 -26 -139 33 -32 81 -34 118 -5 21 16 26
29 26 63 0 68 -56 106 -118 81z m68 -45 c24 -24 25 -43 4 -64 -18 -19 -55 -21
-72 -4 -17 17 -15 54 4 72 21 21 40 20 64 -4z"/>
<path d="M314 198 c-12 -18 42 -56 90 -63 70 -11 161 37 130 68 -4 3 -24 -3
-45 -13 -49 -25 -85 -25 -127 0 -38 23 -39 24 -48 8z"/>
</g>
</svg>
