<?xml version="1.0" standalone="no"?>
<!DOCTYPE svg PUBLIC "-//W3C//DTD SVG 20010904//EN"
 "http://www.w3.org/TR/2001/REC-SVG-20010904/DTD/svg10.dtd">
<svg version="1.0" xmlns="http://www.w3.org/2000/svg"
 width="100.000000pt" height="100.000000pt" viewBox="0 0 100.000000 100.000000"
 preserveAspectRatio="xMidYMid meet">

<g transform="translate(0.000000,100.000000) scale(0.100000,-0.100000)"
fill="#000000" stroke="none">
<path d="M490 941 c-5 -11 -10 -28 -10 -38 0 -11 -16 -34 -35 -53 -39 -37 -37
-50 6 -50 24 0 29 -4 29 -24 0 -45 32 -56 162 -56 149 0 148 0 148 124 0 58
-4 96 -12 104 -8 8 -55 12 -145 12 -121 0 -133 -2 -143 -19z m278 -89 c2 -53
-1 -89 -9 -98 -8 -10 -38 -14 -114 -14 -57 0 -110 3 -119 6 -10 4 -16 18 -16
40 0 30 -3 34 -25 34 -14 0 -25 2 -25 5 0 2 11 15 25 29 16 16 25 36 25 56 l0
31 128 -3 127 -3 3 -83z"/>
<path d="M557 904 c-16 -17 10 -24 84 -24 64 0 79 3 79 15 0 12 -15 15 -78 15
-43 0 -82 -3 -85 -6z"/>
<path d="M555 840 c3 -5 42 -10 86 -10 46 0 79 4 79 10 0 6 -35 10 -86 10 -54
0 -83 -4 -79 -10z"/>
<path d="M550 790 c0 -6 35 -10 85 -10 50 0 85 4 85 10 0 6 -35 10 -85 10 -50
0 -85 -4 -85 -10z"/>
<path d="M211 918 c-61 -33 -84 -117 -46 -174 9 -14 15 -26 13 -27 -83 -42
-102 -74 -103 -177 0 -106 19 -106 25 0 5 88 17 122 50 140 10 5 62 10 115 10
141 0 165 -23 165 -161 0 -39 4 -69 10 -69 6 0 10 35 10 84 0 70 -4 88 -23
117 -13 20 -36 38 -55 44 -29 8 -45 25 -24 25 15 0 32 49 32 90 0 57 -41 100
-100 106 -26 3 -55 -1 -69 -8z m98 -22 c55 -29 66 -99 24 -145 -62 -67 -163
-29 -163 61 0 30 7 46 29 69 33 32 67 37 110 15z"/>
<path d="M816 841 c5 -5 27 -11 49 -13 l40 -3 0 -100 0 -100 -36 -3 c-24 -2
-45 -13 -65 -33 -34 -36 -40 -36 -39 -1 0 27 0 27 -80 32 l-80 5 -3 38 c-4 49
-22 48 -22 -1 0 -53 13 -62 92 -62 l68 0 0 -39 c0 -22 4 -42 8 -45 5 -3 28 15
52 39 34 34 52 45 75 45 17 0 36 5 43 12 16 16 16 210 0 226 -7 7 -34 12 -62
12 -31 0 -46 -4 -40 -9z"/>
<path d="M150 500 c0 -22 5 -40 10 -40 6 0 10 18 10 40 0 22 -4 40 -10 40 -5
0 -10 -18 -10 -40z"/>
<path d="M360 500 c0 -22 5 -40 10 -40 6 0 10 18 10 40 0 22 -4 40 -10 40 -5
0 -10 -18 -10 -40z"/>
<path d="M668 482 c-31 -18 -58 -67 -58 -104 0 -12 9 -38 21 -57 11 -18 19
-34 17 -35 -83 -37 -101 -65 -106 -171 -3 -59 -1 -85 7 -85 7 0 11 22 11 58 0
77 15 127 47 152 22 17 40 20 128 20 92 0 103 -2 123 -22 31 -34 42 -72 42
-144 0 -36 4 -64 10 -64 6 0 10 32 10 78 0 61 -4 84 -21 112 -25 41 -47 59
-71 60 -23 0 -23 6 2 37 24 31 26 83 5 123 -29 56 -112 77 -167 42z m105 -13
c36 -16 60 -64 53 -103 -17 -90 -138 -107 -179 -26 -22 44 -15 77 24 113 31
29 63 34 102 16z"/>
<path d="M282 398 c2 -13 8 -23 13 -23 6 0 11 10 13 23 2 15 -2 22 -13 22 -11
0 -15 -7 -13 -22z"/>
<path d="M200 388 c0 -19 18 -43 25 -36 9 9 -4 48 -16 48 -5 0 -9 -6 -9 -12z"/>
<path d="M365 379 c-4 -11 -4 -23 0 -27 7 -7 25 17 25 36 0 20 -18 14 -25 -9z"/>
<path d="M216 319 c-52 -45 -56 -84 -17 -158 17 -33 31 -65 31 -70 0 -18 47
-61 67 -61 20 0 63 42 63 60 0 6 14 37 31 70 38 73 33 115 -17 160 -49 43
-109 42 -158 -1z m145 -18 c36 -37 39 -86 7 -136 -44 -67 -81 -27 -41 43 14
25 15 32 4 46 -36 43 -97 -2 -67 -49 22 -33 21 -75 -1 -75 -26 1 -63 65 -63
110 0 30 6 43 31 64 43 36 91 35 130 -3z m-51 -71 c0 -11 -7 -20 -15 -20 -8 0
-15 9 -15 20 0 11 7 20 15 20 8 0 15 -9 15 -20z m25 -130 c4 -6 -12 -10 -40
-10 -28 0 -44 4 -40 10 3 6 21 10 40 10 19 0 37 -4 40 -10z m-25 -40 c0 -5 -7
-10 -15 -10 -8 0 -15 5 -15 10 0 6 7 10 15 10 8 0 15 -4 15 -10z"/>
<path d="M140 315 c14 -16 40 -20 40 -6 0 9 -24 21 -42 21 -6 0 -6 -6 2 -15z"/>
<path d="M423 323 c-7 -2 -13 -9 -13 -14 0 -14 26 -10 40 6 10 12 10 15 -1 14
-8 0 -20 -3 -26 -6z"/>
<path d="M112 238 c5 -15 37 -18 41 -3 1 6 -9 12 -22 13 -16 3 -22 -1 -19 -10z"/>
<path d="M435 240 c-8 -12 20 -24 35 -15 5 3 10 10 10 16 0 12 -37 12 -45 -1z"/>
<path d="M140 160 c-8 -5 -11 -12 -8 -16 10 -9 38 3 38 16 0 12 -10 13 -30 0z"/>
<path d="M420 160 c0 -13 28 -25 38 -16 3 4 0 11 -8 16 -20 13 -30 12 -30 0z"/>
<path d="M620 71 c0 -23 5 -41 10 -41 6 0 10 15 10 34 0 19 -4 38 -10 41 -6 4
-10 -10 -10 -34z"/>
<path d="M826 103 c-3 -3 -6 -21 -6 -40 0 -23 5 -33 15 -33 10 0 15 10 15 34
0 34 -11 52 -24 39z"/>
</g>
</svg>
