<?xml version="1.0" standalone="no"?>
<!DOCTYPE svg PUBLIC "-//W3C//DTD SVG 20010904//EN"
 "http://www.w3.org/TR/2001/REC-SVG-20010904/DTD/svg10.dtd">
<svg version="1.0" xmlns="http://www.w3.org/2000/svg"
 width="100.000000pt" height="100.000000pt" viewBox="0 0 100.000000 100.000000"
 preserveAspectRatio="xMidYMid meet">

<g transform="translate(0.000000,100.000000) scale(0.100000,-0.100000)"
fill="#000000" stroke="none">
<path d="M487 943 c-9 -17 0 -97 11 -101 8 -2 12 13 12 52 0 49 -10 71 -23 49z"/>
<path d="M266 882 c-8 -14 44 -91 62 -92 10 0 9 7 -4 28 -31 53 -51 75 -58 64z"/>
<path d="M685 843 c-26 -40 -31 -53 -16 -53 8 0 61 74 61 85 0 16 -23 0 -45
-32z"/>
<path d="M380 727 c-76 -45 -120 -118 -120 -199 0 -68 18 -109 79 -183 23 -27
41 -59 41 -71 0 -41 32 -56 120 -56 85 0 110 10 110 44 0 26 17 56 56 100 45
50 64 99 64 163 0 134 -102 235 -238 235 -48 0 -68 -6 -112 -33z m205 -8 c78
-37 125 -110 125 -194 0 -59 -17 -99 -67 -157 -22 -25 -44 -59 -47 -75 -12
-47 -23 -53 -101 -53 -77 0 -88 5 -99 53 -4 15 -22 45 -41 66 -75 83 -92 169
-51 257 50 108 174 153 281 103z"/>
<path d="M436 530 c-10 -28 -15 -54 -11 -58 4 -4 10 -1 12 6 6 15 45 16 61 0
21 -21 22 -3 3 48 -25 66 -42 67 -65 4z m44 -6 c0 -8 -6 -14 -14 -14 -9 0 -12
7 -9 20 6 22 23 18 23 -6z"/>
<path d="M550 525 c0 -30 5 -55 10 -55 6 0 10 25 10 55 0 30 -4 55 -10 55 -5
0 -10 -25 -10 -55z"/>
<path d="M110 702 c0 -7 82 -52 95 -52 3 0 5 6 5 13 0 6 -19 20 -43 30 -47 19
-57 21 -57 9z"/>
<path d="M818 689 c-32 -16 -51 -39 -33 -39 13 0 95 45 95 52 0 13 -22 8 -62
-13z"/>
<path d="M122 491 c-42 -8 -42 -27 1 -23 47 5 68 12 62 23 -7 10 -12 10 -63 0z"/>
<path d="M812 488 c5 -15 89 -30 102 -18 9 9 -8 15 -68 25 -29 5 -37 3 -34 -7z"/>
<path d="M197 296 c-22 -20 -34 -37 -28 -41 6 -3 30 12 53 34 52 49 29 55 -25
7z"/>
<path d="M769 290 c43 -39 61 -48 61 -32 0 13 -77 72 -92 72 -7 -1 7 -19 31
-40z"/>
<path d="M404 181 c-2 -2 -4 -8 -4 -13 0 -11 187 -10 195 1 5 9 -182 21 -191
12z"/>
<path d="M400 120 c0 -6 40 -10 101 -10 64 0 98 4 94 10 -3 6 -48 10 -101 10
-56 0 -94 -4 -94 -10z"/>
<path d="M430 60 c0 -6 28 -10 65 -10 37 0 65 4 65 10 0 6 -28 10 -65 10 -37
0 -65 -4 -65 -10z"/>
</g>
</svg>
