<?xml version="1.0" standalone="no"?>
<!DOCTYPE svg PUBLIC "-//W3C//DTD SVG 20010904//EN"
 "http://www.w3.org/TR/2001/REC-SVG-20010904/DTD/svg10.dtd">
<svg version="1.0" xmlns="http://www.w3.org/2000/svg"
 width="100.000000pt" height="100.000000pt" viewBox="0 0 100.000000 100.000000"
 preserveAspectRatio="xMidYMid meet">

<g transform="translate(0.000000,100.000000) scale(0.100000,-0.100000)"
fill="#000000" stroke="none">
<path d="M307 913 c-4 -3 -7 -48 -7 -99 l0 -93 33 -3 c31 -3 32 -5 32 -48 0
-44 -1 -45 -33 -48 -31 -3 -33 -6 -30 -35 l3 -32 263 -3 262 -2 -2 182 -3 183
-256 3 c-140 1 -258 -1 -262 -5z m311 -50 c3 -10 -16 -13 -72 -13 -70 0 -87 6
-69 24 12 12 136 2 141 -11z m142 -58 c0 -13 -29 -15 -205 -15 -176 0 -205 2
-205 15 0 13 29 15 205 15 176 0 205 -2 205 -15z m0 -60 c0 -13 -25 -15 -187
-13 -138 2 -187 6 -191 16 -3 9 39 12 187 12 164 0 191 -2 191 -15z m-5 -55
c0 -13 -25 -15 -154 -18 -149 -2 -182 3 -166 27 4 8 56 11 163 9 132 -3 157
-5 157 -18z m5 -55 c0 -13 -27 -15 -180 -15 -153 0 -180 2 -180 15 0 13 27 15
180 15 153 0 180 -2 180 -15z"/>
<path d="M117 812 c-20 -22 -22 -63 -5 -80 21 -21 66 -14 84 14 16 24 16 27
-3 52 -25 33 -54 39 -76 14z"/>
<path d="M112 680 c-45 -19 -58 -126 -21 -174 19 -24 27 -27 78 -24 l56 3 3
83 3 82 54 0 c48 0 55 2 55 20 0 19 -6 20 -102 19 -57 0 -113 -4 -126 -9z"/>
<path d="M147 363 c-12 -11 -8 -181 4 -189 6 -3 22 0 36 7 18 10 23 18 17 34
-14 42 -7 78 20 102 36 30 80 30 111 -2 27 -26 34 -82 14 -102 -8 -8 -4 -15
12 -27 28 -19 68 -20 92 -2 15 11 16 18 6 39 -24 52 18 117 76 117 58 0 100
-65 76 -117 -10 -21 -9 -28 6 -39 24 -18 64 -17 91 2 17 12 20 19 12 34 -28
52 11 120 69 120 61 0 100 -63 78 -126 -6 -16 -2 -24 18 -34 39 -21 46 -4 43
96 l-3 89 -386 3 c-212 1 -388 -1 -392 -5z"/>
<path d="M234 285 c-33 -50 20 -104 71 -71 30 20 33 56 7 79 -27 24 -59 21
-78 -8z"/>
<path d="M495 290 c-23 -25 -13 -67 20 -82 53 -24 100 46 57 85 -25 23 -55 21
-77 -3z"/>
<path d="M757 292 c-24 -27 -21 -59 8 -78 51 -33 104 21 71 71 -20 30 -56 33
-79 7z"/>
<path d="M206 154 c-9 -8 -16 -31 -16 -50 l0 -35 88 3 87 3 -2 33 c-1 18 -7
40 -14 48 -17 20 -122 19 -143 -2z"/>
<path d="M462 158 c-7 -7 -12 -29 -12 -50 l0 -38 85 0 85 0 0 38 c0 21 -5 43
-12 50 -16 16 -130 16 -146 0z"/>
<path d="M722 158 c-7 -7 -12 -29 -12 -50 l0 -38 85 0 85 0 0 34 c0 50 -21 66
-89 66 -31 0 -62 -5 -69 -12z"/>
</g>
</svg>
