<svg xmlns="http://www.w3.org/2000/svg" width="120" height="80" fill="none" ><style><![CDATA[.B{fill:#fff}.C{fill:#58707f}.D{stroke:#58707f}.E{stroke-width:.65}]]></style><rect x=".75" y=".75" width="118.5" height="78.5" rx="2.25" class="B"/><rect x=".75" y=".75" width="118.5" height="78.5" rx="2.25" stroke="#8796a1" stroke-width="1.5"/><g clip-path="url(#A)"><g class="B"><rect x="14" y="14" width="92" height="52" rx="2"/><rect x="16.125" y="14.325" width="17.55" height="22.75" rx=".975" class="D E"/></g><path d="M15.8 15.3a1.3 1.3 0 0 1 1.3-1.3h15.6a1.3 1.3 0 0 1 1.3 1.3V27H15.8V15.3z" class="C"/><path d="M30.1 19.074l-2.492-2.261-1.246-.213c0 .705-.632 1.278-1.444 1.278s-1.444-.573-1.444-1.278l-1.246.213-2.528 2.196 1.715 1.557.83-.754V24.4h5.363v-4.506l.794.721 1.697-1.54z" class="B"/><g class="C"><rect x="18.399" y="29.6" width="13" height="1.95" rx=".975"/><rect x="22.3" y="32.85" width="5.2" height="1.95" rx=".975"/></g><rect x="39.525" y="14.325" width="17.55" height="22.75" rx=".975" class="B D E"/><path d="M39.2 15.3a1.3 1.3 0 0 1 1.3-1.3h15.6a1.3 1.3 0 0 1 1.3 1.3V27H39.2V15.3z" class="C"/><path d="M53.501 19.074l-2.492-2.261-1.246-.213c0 .705-.632 1.278-1.444 1.278s-1.444-.573-1.444-1.278l-1.246.213-2.528 2.196 1.715 1.557.831-.754V24.4h5.362v-4.506l.795.721 1.697-1.54z" class="B"/><g class="C"><rect x="41.8" y="29.6" width="13" height="1.95" rx=".975"/><rect x="45.7" y="32.85" width="5.2" height="1.95" rx=".975"/></g><rect x="62.925" y="14.325" width="17.55" height="22.75" rx=".975" class="B D E"/><path d="M62.6 15.3a1.3 1.3 0 0 1 1.3-1.3h15.6a1.3 1.3 0 0 1 1.3 1.3V27H62.6V15.3z" class="C"/><path d="M76.9 19.074l-2.492-2.261-1.246-.213c0 .705-.632 1.278-1.444 1.278s-1.445-.573-1.445-1.278l-1.246.213-2.528 2.196 1.715 1.557.831-.754V24.4h5.363v-4.506l.794.721 1.697-1.54z" class="B"/><g class="C"><rect x="65.199" y="29.6" width="13" height="1.95" rx=".975"/><rect x="69.1" y="32.85" width="5.2" height="1.95" rx=".975"/></g><rect x="86.325" y="14.325" width="17.55" height="22.75" rx=".975" class="B D E"/><path d="M86 15.3a1.3 1.3 0 0 1 1.3-1.3h15.6a1.3 1.3 0 0 1 1.3 1.3V27H86V15.3z" class="C"/><path d="M100.3 19.074l-2.491-2.261-1.246-.213c0 .705-.632 1.278-1.444 1.278s-1.444-.573-1.444-1.278l-1.246.213-2.528 2.196 1.715 1.557.831-.754V24.4h5.362v-4.506l.794.721 1.697-1.54z" class="B"/><g class="C"><rect x="88.6" y="29.6" width="13" height="1.95" rx=".975"/><rect x="92.5" y="32.85" width="5.2" height="1.95" rx=".975"/></g><rect x="16.125" y="42.925" width="17.55" height="22.75" rx=".975" class="B D E"/><path d="M15.8 43.9a1.3 1.3 0 0 1 1.3-1.3h15.6a1.3 1.3 0 0 1 1.3 1.3v11.7H15.8V43.9z" class="C"/><path d="M30.1 47.674l-2.492-2.261-1.246-.213c0 .705-.632 1.278-1.444 1.278s-1.444-.573-1.444-1.278l-1.246.213-2.528 2.196 1.715 1.557.83-.754V53h5.363v-4.506l.794.721 1.697-1.54z" class="B"/><g class="C"><rect x="18.399" y="58.2" width="13" height="1.95" rx=".975"/><rect x="22.3" y="61.45" width="5.2" height="1.95" rx=".975"/></g><rect x="39.525" y="42.925" width="17.55" height="22.75" rx=".975" class="B D E"/><path d="M39.2 43.9a1.3 1.3 0 0 1 1.3-1.3h15.6a1.3 1.3 0 0 1 1.3 1.3v11.7H39.2V43.9z" class="C"/><path d="M53.501 47.674l-2.492-2.261-1.246-.213c0 .705-.632 1.278-1.444 1.278s-1.444-.573-1.444-1.278l-1.246.213-2.528 2.196 1.715 1.557.831-.754V53h5.362v-4.506l.795.721 1.697-1.54z" class="B"/><g class="C"><rect x="41.8" y="58.2" width="13" height="1.95" rx=".975"/><rect x="45.7" y="61.45" width="5.2" height="1.95" rx=".975"/></g><rect x="62.925" y="42.925" width="17.55" height="22.75" rx=".975" class="B D E"/><path d="M62.6 43.9a1.3 1.3 0 0 1 1.3-1.3h15.6a1.3 1.3 0 0 1 1.3 1.3v11.7H62.6V43.9z" class="C"/><path d="M76.9 47.674l-2.492-2.261-1.246-.213c0 .705-.632 1.278-1.444 1.278s-1.445-.573-1.445-1.278l-1.246.213-2.528 2.196 1.715 1.557.831-.754V53h5.363v-4.506l.794.721 1.697-1.54z" class="B"/><g class="C"><rect x="65.199" y="58.2" width="13" height="1.95" rx=".975"/><rect x="69.1" y="61.45" width="5.2" height="1.95" rx=".975"/></g><rect x="86.325" y="42.925" width="17.55" height="22.75" rx=".975" class="B D E"/><path d="M86 43.9a1.3 1.3 0 0 1 1.3-1.3h15.6a1.3 1.3 0 0 1 1.3 1.3v11.7H86V43.9z" class="C"/><path d="M100.3 47.674l-2.491-2.261-1.246-.213c0 .705-.632 1.278-1.444 1.278s-1.444-.573-1.444-1.278l-1.246.213-2.528 2.196 1.715 1.557.831-.754V53h5.362v-4.506l.794.721 1.697-1.54z" class="B"/><g class="C"><rect x="88.6" y="58.2" width="13" height="1.95" rx=".975"/><rect x="92.5" y="61.45" width="5.2" height="1.95" rx=".975"/></g></g><defs><clipPath id="A"><rect x="14" y="14" width="92" height="52" rx="2" class="B"/></clipPath></defs></svg>