<svg xmlns="http://www.w3.org/2000/svg" xmlns:xlink="http://www.w3.org/1999/xlink" width="120" height="80" fill="none" ><rect x=".75" y=".75" width="118.5" height="78.5" rx="2.25" fill="#fff"/><rect x=".75" y=".75" width="118.5" height="78.5" rx="2.25" stroke="#8796a1" stroke-width="1.5"/><rect x="12.684" y="12.642" width="21.188" height="15.134" rx="1.746" fill="#58707f"/><use xlink:href="#B" fill="#fff"/><g fill="#58707f"><rect x="36.2" y="14.288" width="11.642" height="2" rx="1"/><rect x="36.2" y="17.802" width="20" height="2" rx="1"/><rect x="36.2" y="22.13" width="8" height="2" rx="1"/><rect x="12.684" y="32.433" width="21.188" height="15.134" rx="1.746"/></g><use xlink:href="#B" y="19.791" fill="#fff"/><g fill="#58707f"><rect x="36.2" y="34.079" width="11.642" height="2" rx="1"/><rect x="36.2" y="37.593" width="20" height="2" rx="1"/><rect x="36.2" y="41.921" width="8" height="2" rx="1"/><rect x="12.684" y="52.224" width="21.188" height="15.134" rx="1.746"/></g><use xlink:href="#C" fill="#fff"/><g fill="#58707f"><rect x="36.2" y="53.87" width="11.642" height="2" rx="1"/><rect x="36.2" y="57.384" width="20" height="2" rx="1"/><rect x="36.2" y="61.712" width="8" height="2" rx="1"/><rect x="64.2" y="12.642" width="21.188" height="15.134" rx="1.746"/></g><use xlink:href="#B" x="51.517" fill="#fff"/><g fill="#58707f"><rect x="87.717" y="14.288" width="11.642" height="2" rx="1"/><rect x="87.717" y="17.802" width="20" height="2" rx="1"/><rect x="87.717" y="22.13" width="8" height="2" rx="1"/><rect x="64.2" y="32.433" width="21.188" height="15.134" rx="1.746"/></g><use xlink:href="#B" x="51.517" y="19.791" fill="#fff"/><g fill="#58707f"><rect x="87.717" y="34.079" width="11.642" height="2" rx="1"/><rect x="87.717" y="37.593" width="20" height="2" rx="1"/><rect x="87.717" y="41.921" width="8" height="2" rx="1"/><rect x="64.2" y="52.224" width="21.188" height="15.134" rx="1.746"/></g><use xlink:href="#C" x="51.517" fill="#fff"/><g fill="#58707f"><rect x="87.717" y="53.87" width="11.642" height="2" rx="1"/><rect x="87.717" y="57.384" width="20" height="2" rx="1"/><rect x="87.717" y="61.712" width="8" height="2" rx="1"/></g><defs ><path id="B" d="M29.331 18.55l-2.901-2.633-1.45-.248c0 .82-.736 1.488-1.682 1.488s-1.682-.668-1.682-1.488l-1.45.248-2.943 2.556 1.997 1.812.967-.878v5.342h6.243v-5.246l.925.839 1.976-1.793z"/><path id="C" d="M29.331 58.132l-2.901-2.633-1.45-.248c0 .82-.736 1.488-1.682 1.488s-1.682-.668-1.682-1.488l-1.45.248-2.943 2.556 1.997 1.812.967-.877v5.341h6.243v-5.246l.925.839 1.976-1.793z"/></defs></svg>