<svg xmlns="http://www.w3.org/2000/svg" xmlns:xlink="http://www.w3.org/1999/xlink" width="120" height="80" fill="none" ><style><![CDATA[.B{fill:#fff}.C{fill:#58707f}.D{stroke:#58707f}.E{stroke-width:.75}.F{stroke-width:.5}]]></style><rect x=".75" y=".75" width="118.5" height="78.5" rx="2.25" class="B"/><rect x=".75" y=".75" width="118.5" height="78.5" rx="2.25" stroke="#8796a1" stroke-width="1.5"/><rect x="15.375" y="34.375" width="19.25" height="25.25" rx="1.069" class="B D E"/><path d="M15 35.444c0-.798.647-1.444 1.444-1.444h17.111c.798 0 1.444.647 1.444 1.444v13H15v-13z" class="C"/><use xlink:href="#B" class="B"/><g class="C"><rect x="17.78" y="51.333" width="14.444" height="2" rx="1"/><rect x="22.113" y="54.778" width="5.778" height="1.75" rx=".875"/></g><rect x="38.708" y="34.375" width="19.25" height="25.25" rx="1.069" class="B D E"/><path d="M38.333 35.444c0-.798.647-1.444 1.445-1.444h17.111c.798 0 1.444.647 1.444 1.444v13h-20v-13z" class="C"/><path d="M54.223 39.638l-2.768-2.513-1.384-.237c0 .783-.702 1.42-1.605 1.42s-1.605-.637-1.605-1.42l-1.384.237-2.809 2.44 1.906 1.73.923-.838v5.098h5.958v-5.007l.883.801 1.886-1.712z" class="B"/><g class="C"><rect x="41.113" y="51.333" width="14.444" height="2" rx="1"/><rect x="45.446" y="54.778" width="5.778" height="1.75" rx=".875"/></g><rect x="62.042" y="34.375" width="19.25" height="25.25" rx="1.069" class="B D E"/><path d="M61.667 35.444c0-.798.647-1.444 1.444-1.444h17.111c.798 0 1.445.647 1.445 1.444v13h-20v-13z" class="C"/><use xlink:href="#B" x="46.667" class="B"/><g class="C"><rect x="64.447" y="51.333" width="14.444" height="2" rx="1"/><rect x="68.78" y="54.778" width="5.778" height="1.75" rx=".875"/></g><rect x="85.375" y="34.375" width="19.25" height="25.25" rx="1.069" class="B D E"/><path d="M85 35.444c0-.798.647-1.444 1.444-1.444h17.112c.797 0 1.444.647 1.444 1.444v13H85v-13z" class="C"/><use xlink:href="#B" x="70" class="B"/><g class="C"><rect x="87.78" y="51.333" width="14.444" height="2" rx="1"/><rect x="92.113" y="54.778" width="5.778" height="1.75" rx=".875"/><rect x="30.25" y="20.25" width="11.5" height="7.5" rx="1.05" class="D F"/></g><rect x="33" y="23" width="6" height="2" rx="1" class="B"/><rect x="46.25" y="20.25" width="21.5" height="7.5" rx="1.05" class="C D F"/><rect x="50" y="23" width="14" height="2" rx="1" class="B"/><rect x="72.25" y="20.25" width="17.5" height="7.5" rx="1.05" class="C D F"/><rect x="75" y="23" width="12" height="2" rx="1" class="B"/><path d="M109 51l4.5-4.5L109 42m-98 1l-4.5 4.5L11 52" stroke-width="2" stroke-linecap="round" stroke-linejoin="round" class="D"/><defs ><path id="B" d="M30.89 39.638l-2.769-2.513-1.384-.237c0 .783-.702 1.42-1.605 1.42s-1.605-.637-1.605-1.42l-1.384.237-2.809 2.44 1.906 1.73.923-.838v5.098h5.958v-5.007l.883.801 1.886-1.712z"/></defs></svg>