<svg xmlns="http://www.w3.org/2000/svg" xmlns:xlink="http://www.w3.org/1999/xlink" width="120" height="80" fill="none" ><style><![CDATA[.B{fill:#fff}.C{fill:#58707f}.D{stroke:#58707f}.E{stroke-width:.75}]]></style><rect x=".75" y=".75" width="118.5" height="78.5" rx="2.25" class="B"/><rect x=".75" y=".75" width="118.5" height="78.5" rx="2.25" stroke="#8796a1" stroke-width="1.5"/><rect x="18.375" y="13.375" width="17.25" height="22.25" rx="1.069" class="B D E"/><path d="M18 14.444c0-.798.647-1.444 1.444-1.444h15.111c.798 0 1.444.647 1.444 1.444v13H18v-13z" class="C"/><use xlink:href="#B" class="B"/><rect x="21.003" y="30.333" width="12" height="2" rx="1" class="C"/><rect x="40.375" y="13.375" width="17.25" height="22.25" rx="1.069" class="B D E"/><path d="M40 14.444c0-.798.647-1.444 1.444-1.444h15.111c.798 0 1.444.647 1.444 1.444v13H40v-13z" class="C"/><use xlink:href="#B" x="22" class="B"/><rect x="43.003" y="30.333" width="12" height="2" rx="1" class="C"/><rect x="62.375" y="13.375" width="17.25" height="22.25" rx="1.069" class="B D E"/><path d="M62 14.444c0-.798.647-1.444 1.444-1.444h15.111c.798 0 1.444.647 1.444 1.444v13H62v-13z" class="C"/><use xlink:href="#B" x="44" class="B"/><rect x="65.003" y="30.333" width="12" height="2" rx="1" class="C"/><rect x="84.375" y="13.375" width="17.25" height="22.25" rx="1.069" class="B D E"/><path d="M84 14.444c0-.798.647-1.444 1.444-1.444h15.112c.797 0 1.444.647 1.444 1.444v13H84v-13z" class="C"/><use xlink:href="#B" x="66" class="B"/><rect x="87.003" y="30.333" width="12" height="2" rx="1" class="C"/><rect x="18.375" y="40.375" width="17.25" height="22.25" rx="1.069" class="B D E"/><path d="M18 41.444c0-.798.647-1.444 1.444-1.444h15.111c.798 0 1.444.647 1.444 1.444v13H18v-13z" class="C"/><use xlink:href="#C" class="B"/><rect x="21.003" y="57.333" width="12" height="2" rx="1" class="C"/><rect x="40.375" y="40.375" width="17.25" height="22.25" rx="1.069" class="B D E"/><path d="M40 41.444c0-.798.647-1.444 1.444-1.444h15.111c.798 0 1.444.647 1.444 1.444v13H40v-13z" class="C"/><use xlink:href="#C" x="22" class="B"/><rect x="43.003" y="57.333" width="12" height="2" rx="1" class="C"/><rect x="62.375" y="40.375" width="17.25" height="22.25" rx="1.069" class="B D E"/><path d="M62 41.444c0-.798.647-1.444 1.444-1.444h15.111c.798 0 1.444.647 1.444 1.444v13H62v-13z" class="C"/><use xlink:href="#C" x="44" class="B"/><rect x="65.003" y="57.333" width="12" height="2" rx="1" class="C"/><rect x="84.375" y="40.375" width="17.25" height="22.25" rx="1.069" class="B D E"/><path d="M84 41.444c0-.798.647-1.444 1.444-1.444h15.112c.797 0 1.444.647 1.444 1.444v13H84v-13z" class="C"/><use xlink:href="#C" x="66" class="B"/><rect x="87.003" y="57.333" width="12" height="2" rx="1" class="C"/><rect x="50" y="67" width="5" height="5" rx="2.5" fill="#9ea9b2"/><rect x="58" y="67" width="5" height="5" rx="2.5" class="C"/><rect x="66" y="67" width="5" height="5" rx="2.5" fill="#9ea9b2"/><path d="M109 42l4.5-4.5L109 33m-98 1l-4.5 4.5L11 43" stroke-width="2" stroke-linecap="round" stroke-linejoin="round" class="D"/><defs ><path id="B" d="M32.775 18.638l-2.769-2.513-1.384-.237c0 .783-.702 1.42-1.605 1.42s-1.605-.637-1.605-1.42l-1.384.237-2.809 2.44 1.906 1.73.923-.837v5.098h5.958v-5.007l.883.801 1.886-1.711z"/><path id="C" d="M32.775 45.638l-2.769-2.513-1.384-.237c0 .783-.702 1.42-1.605 1.42s-1.605-.637-1.605-1.42l-1.384.237-2.809 2.44 1.906 1.73.923-.838v5.098h5.958v-5.007l.883.801 1.886-1.712z"/></defs></svg>