<svg xmlns="http://www.w3.org/2000/svg" xmlns:xlink="http://www.w3.org/1999/xlink" width="120" height="80" fill="none"><style><![CDATA[.B{fill:#fff}.C{fill:#718491}.D{stroke-width:.5}]]></style><rect x=".75" y=".75" width="118.5" height="78.5" rx="2.25" class="B"/><g stroke="#8796a1"><rect x=".75" y=".75" width="118.5" height="78.5" rx="2.25" stroke-width="1.5"/><rect x="14.6" y="14.6" width="90.8" height="50.8" rx="1.4" stroke-width="1.2" class="B"/></g><path d="M14 16a2 2 0 0 1 2-2h88a2 2 0 0 1 2 2v5H14v-5z" fill="#58707f"/><g class="B"><rect x="20" y="17" width="8" height="1.5" rx=".75"/><rect x="39.5" y="17" width="6" height="1.5" rx=".75"/><rect x="57" y="17" width="6" height="1.5" rx=".75"/><rect x="74.5" y="17" width="8" height="1.5" rx=".75"/><rect x="94" y="17" width="6" height="1.5" rx=".75"/></g><rect x="18" y="24" width="12" height="10" rx="1" class="C"/><path d="M28 27.903l-1.917-1.739-.958-.164c0 .542-.486.983-1.111.983s-1.111-.441-1.111-.983l-.958.164L20 27.853l1.319 1.197.639-.58V32h4.125v-3.466l.611.555L28 27.903z" class="B"/><g class="C"><rect x="37.5" y="28.25" width="10" height="1.5" rx=".75"/><rect x="55.5" y="28.25" width="4" height="1.5" rx=".75"/><rect x="60.5" y="28.25" width="4" height="1.5" rx=".75"/></g><rect x="72.75" y="27" width="11.5" height="4" rx=".75" stroke="#718491" class="B D"/><rect x="75" y="28.25" width="7" height="1.5" rx=".75" class="C"/><g clip-path="url(#A)" class="C"><use xlink:href="#D"/></g><path fill="#8796a1" d="M14 36.5h92v14H14z"/><rect x="18" y="38.5" width="12" height="10" rx="1" fill="#58707f"/><g class="B"><path d="M28 42.403l-1.917-1.739-.958-.164c0 .542-.486.983-1.111.983s-1.111-.441-1.111-.983l-.958.164L20 42.353l1.319 1.198.639-.58V46.5h4.125v-3.466l.611.555L28 42.403z"/><rect x="37.5" y="42.75" width="10" height="1.5" rx=".75"/><rect x="55.5" y="42.75" width="4" height="1.5" rx=".75"/><rect x="60.5" y="42.75" width="4" height="1.5" rx=".75"/></g><rect x="72.75" y="41.5" width="11.5" height="4" rx=".75" fill="#8796a1" stroke="#fff" class="D"/><rect x="75" y="42.75" width="7" height="1.5" rx=".75" class="B"/><g clip-path="url(#B)" class="B"><path d="M96.5 41.7l.6 1.2 1.2.15-.824.924.224 1.326-1.2-.6-1.2.6.226-1.326-.826-.924 1.2-.15.6-1.2z"/></g><rect x="18" y="53" width="12" height="10" rx="1" class="C"/><path d="M28 56.903l-1.917-1.739-.958-.164c0 .542-.486.983-1.111.983s-1.111-.441-1.111-.983l-.958.164L20 56.853l1.319 1.198.639-.58V61h4.125v-3.466l.611.555L28 56.903z" class="B"/><g class="C"><rect x="37.5" y="57.25" width="10" height="1.5" rx=".75"/><rect x="55.5" y="57.25" width="4" height="1.5" rx=".75"/><rect x="60.5" y="57.25" width="4" height="1.5" rx=".75"/></g><rect x="72.75" y="56" width="11.5" height="4" rx=".75" stroke="#718491" class="B D"/><rect x="75" y="57.25" width="7" height="1.5" rx=".75" class="C"/><g clip-path="url(#C)" class="C"><path d="M96.5 56.2l.6 1.2 1.2.15-.824.924.224 1.326-1.2-.6-1.2.6.226-1.326-.826-.924 1.2-.15.6-1.2z"/></g><defs><clipPath id="A"><path transform="translate(94.5 27)" d="M0 0h4v4H0z" class="B"/></clipPath><clipPath id="B"><path transform="translate(94.5 41.5)" d="M0 0h4v4H0z" class="B"/></clipPath><clipPath id="C"><path transform="translate(94.5 56)" d="M0 0h4v4H0z" class="B"/></clipPath><path id="D" d="M96.5 27.2l.6 1.2 1.2.15-.824.924.224 1.326-1.2-.6-1.2.6.226-1.326-.826-.924 1.2-.15.6-1.2z"/></defs></svg>