<svg xmlns="http://www.w3.org/2000/svg" xmlns:xlink="http://www.w3.org/1999/xlink" width="120" height="80" fill="none" ><style><![CDATA[.B{fill:#fff}.C{fill:#58707f}.D{stroke:#58707f}.E{stroke-width:.954}]]></style><rect x=".75" y=".75" width="118.5" height="78.5" rx="2.25" class="B"/><rect x=".75" y=".75" width="118.5" height="78.5" rx="2.25" stroke="#8796a1" stroke-width="1.5"/><g clip-path="url(#A)"><rect x="-4.856" y="25.81" width="25.713" height="33.713" rx="1.43" class="B D E"/><path d="M-5.333 27.241a1.91 1.91 0 0 1 1.907-1.907h22.852a1.91 1.91 0 0 1 1.907 1.907v19.353H-5.333V27.241z" class="C"/><path d="M15.62 33.849l-3.651-3.35-1.825-.316c0 1.044-.926 1.894-2.116 1.894s-2.116-.85-2.116-1.894l-1.825.316-3.704 3.253 2.513 2.306 1.217-1.117v6.797h7.857v-6.676l1.164 1.068 2.487-2.282z" class="B"/><rect x="-1.536" y="50.093" width="19.072" height="2.5" rx="1.25" class="C"/><rect x="27.144" y="25.81" width="25.713" height="33.713" rx="1.43" class="B D E"/><path d="M26.667 27.241a1.91 1.91 0 0 1 1.907-1.907h22.852a1.91 1.91 0 0 1 1.907 1.907v19.353H26.667V27.241z" class="C"/><use xlink:href="#B" class="B"/><g class="C"><rect x="30.464" y="50.093" width="19.072" height="2.5" rx="1.25"/><rect x="36.186" y="54.501" width="7.629" height="2" rx="1"/></g><rect x="59.144" y="25.81" width="25.713" height="33.713" rx="1.43" class="B D E"/><path d="M58.667 27.241a1.91 1.91 0 0 1 1.907-1.907h22.852a1.91 1.91 0 0 1 1.907 1.907v19.353H58.667V27.241z" class="C"/><path d="M79.62 33.849l-3.651-3.35-1.825-.316c0 1.044-.926 1.894-2.117 1.894s-2.116-.85-2.116-1.894l-1.825.316-3.704 3.253 2.513 2.306 1.217-1.117v6.797h7.857v-6.676l1.164 1.068 2.487-2.282z" class="B"/><g class="C"><rect x="62.464" y="50.093" width="19.072" height="2.5" rx="1.25"/><rect x="68.186" y="54.501" width="7.629" height="2" rx="1"/></g><rect x="91.144" y="25.81" width="25.713" height="33.713" rx="1.43" class="B D E"/><path d="M90.667 27.241a1.91 1.91 0 0 1 1.907-1.907h22.852a1.91 1.91 0 0 1 1.908 1.907v19.353H90.667V27.241z" class="C"/><path d="M111.62 33.849l-3.651-3.35-1.825-.316c0 1.044-.926 1.894-2.117 1.894s-2.116-.85-2.116-1.894l-1.825.316-3.704 3.253 2.513 2.306 1.217-1.117v6.797h7.857v-6.676l1.164 1.068 2.487-2.282z" class="B"/><g class="C"><rect x="94.464" y="50.093" width="19.072" height="2.5" rx="1.25"/><rect x="100.186" y="54.501" width="7.629" height="2" rx="1"/></g></g><path d="M79.833 15.333a.67.67 0 0 1 .667-.667h.667c.368 0 .667.298.667.667V16a.67.67 0 0 1-.667.667H80.5c-.368 0-.667-.298-.667-.667v-.667zm-4.667 0a.67.67 0 0 1 .667-.667h2c.368 0 .667.298.667.667V16c0 .368-.298.667-.667.667h-2c-.368 0-.667-.298-.667-.667v-.667zm-6 0a.67.67 0 0 1 .667-.667h3.333c.368 0 .667.298.667.667V16a.67.67 0 0 1-.667.667h-3.333c-.368 0-.667-.298-.667-.667v-.667z" fill-rule="evenodd" class="C"/><path d="M45.873 11.041a1 1 0 0 0-1.414-1.414l-5.333 5.333a1 1 0 0 0 0 1.414l5.333 5.333a1 1 0 0 0 1.414-1.414l-3.626-3.626H66.5h1c.368 0 .667-.298.667-.667v-.667c0-.368-.298-.667-.667-.667h-1.333-23.919l3.626-3.626z" class="C"/><defs><clipPath id="A"><path transform="translate(14.667 25.333)" d="M0 0h90.667v34.667H0z" class="B"/></clipPath><path id="B" d="M47.62 33.849l-3.651-3.35-1.825-.316c0 1.044-.926 1.894-2.117 1.894s-2.116-.85-2.116-1.894l-1.825.316-3.704 3.253 2.513 2.306 1.217-1.117v6.797h7.857v-6.676l1.164 1.068 2.487-2.282z"/></defs></svg>