<svg xmlns="http://www.w3.org/2000/svg" xmlns:xlink="http://www.w3.org/1999/xlink" width="90" height="60" fill="none" ><style><![CDATA[.B{fill:#fff}.C{fill:#58707f}.D{stroke:#58707f}.E{stroke-width:.563}.F{stroke-width:.375}]]></style><rect x=".6" y=".6" width="88.8" height="58.8" rx="2.4" class="B"/><rect x=".6" y=".6" width="88.8" height="58.8" rx="2.4" stroke="#8796a1" stroke-width="1.2"/><rect x="11.531" y="25.781" width="14.438" height="18.938" rx=".802" class="B D E"/><use xlink:href="#B" class="C"/><path d="M23.167 29.729l-2.076-1.884-1.038-.178c0 .587-.527 1.065-1.204 1.065s-1.204-.478-1.204-1.065l-1.038.178-2.107 1.83 1.429 1.297.692-.628v3.823h4.469v-3.755l.662.601 1.414-1.284z" class="B"/><g class="C"><rect x="13.335" y="38.5" width="10.833" height="1.5" rx=".75"/><rect x="16.585" y="41.083" width="4.333" height="1.313" rx=".656"/></g><rect x="29.031" y="25.781" width="14.438" height="18.938" rx=".802" class="B D E"/><use xlink:href="#B" x="17.5" class="C"/><path d="M40.667 29.729l-2.076-1.884-1.038-.178c0 .587-.527 1.065-1.204 1.065s-1.204-.478-1.204-1.065l-1.038.178L32 29.674l1.429 1.297.692-.628v3.823h4.469v-3.755l.662.601 1.414-1.284z" class="B"/><g class="C"><rect x="30.835" y="38.5" width="10.833" height="1.5" rx=".75"/><rect x="34.085" y="41.083" width="4.333" height="1.313" rx=".656"/></g><rect x="46.531" y="25.781" width="14.438" height="18.938" rx=".802" class="B D E"/><use xlink:href="#B" x="35" class="C"/><path d="M58.167 29.729l-2.076-1.884-1.038-.178c0 .587-.527 1.065-1.204 1.065s-1.204-.478-1.204-1.065l-1.038.178-2.106 1.83 1.429 1.297.692-.628v3.823h4.469v-3.755l.662.601 1.414-1.284z" class="B"/><g class="C"><rect x="48.335" y="38.5" width="10.833" height="1.5" rx=".75"/><rect x="51.585" y="41.083" width="4.333" height="1.313" rx=".656"/></g><rect x="64.031" y="25.781" width="14.438" height="18.938" rx=".802" class="B D E"/><use xlink:href="#B" x="52.5" class="C"/><path d="M75.667 29.729l-2.076-1.884-1.038-.178c0 .587-.527 1.065-1.204 1.065s-1.204-.478-1.204-1.065l-1.038.178L67 29.674l1.429 1.297.692-.628v3.823h4.469v-3.755l.662.601 1.414-1.284z" class="B"/><g class="C"><rect x="65.835" y="38.5" width="10.833" height="1.5" rx=".75"/><rect x="69.085" y="41.083" width="4.333" height="1.313" rx=".656"/><rect x="22.688" y="15.188" width="8.625" height="5.625" rx=".788" class="D F"/></g><rect x="24.75" y="17.25" width="4.5" height="1.5" rx=".75" class="B"/><rect x="34.688" y="15.188" width="16.125" height="5.625" rx=".788" class="C D F"/><rect x="37.5" y="17.25" width="10.5" height="1.5" rx=".75" class="B"/><rect x="54.188" y="15.188" width="13.125" height="5.625" rx=".788" class="C D F"/><rect x="56.25" y="17.25" width="9" height="1.5" rx=".75" class="B"/><path d="M81.75 38.25l3.375-3.375L81.75 31.5m-73.5.75l-3.375 3.375L8.25 39" stroke-width="1.5" stroke-linecap="round" stroke-linejoin="round" class="D"/><defs ><path id="B" d="M11.25 26.583c0-.598.485-1.083 1.083-1.083h12.833c.598 0 1.083.485 1.083 1.083v9.75h-15v-9.75z"/></defs></svg>