<svg xmlns="http://www.w3.org/2000/svg" xmlns:xlink="http://www.w3.org/1999/xlink" width="90" height="60" fill="none" ><style><![CDATA[.B{fill:#fff}.C{fill:#58707f}.D{stroke:#58707f}.E{stroke-width:.563}.F{stroke-width:.375}]]></style><rect x=".6" y=".6" width="88.8" height="58.8" rx="2.4" class="B"/><rect x=".6" y=".6" width="88.8" height="58.8" rx="2.4" stroke="#8796a1" stroke-width="1.2"/><rect x="13.781" y="16.781" width="12.938" height="16.688" rx=".802" class="B D E"/><path d="M13.5 17.583c0-.598.485-1.083 1.083-1.083h11.333c.598 0 1.083.485 1.083 1.083v9.75H13.5v-9.75z" class="C"/><use xlink:href="#B" class="B"/><rect x="15.752" y="29.5" width="9" height="1.5" rx=".75" class="C"/><rect x="30.281" y="16.781" width="12.938" height="16.688" rx=".802" class="B D E"/><path d="M30 17.583c0-.598.485-1.083 1.083-1.083h11.333c.598 0 1.083.485 1.083 1.083v9.75H30v-9.75z" class="C"/><use xlink:href="#B" x="16.5" class="B"/><rect x="32.252" y="29.5" width="9" height="1.5" rx=".75" class="C"/><rect x="46.781" y="16.781" width="12.938" height="16.688" rx=".802" class="B D E"/><use xlink:href="#C" class="C"/><use xlink:href="#B" x="33" class="B"/><rect x="48.752" y="29.5" width="9" height="1.5" rx=".75" class="C"/><rect x="63.281" y="16.781" width="12.938" height="16.688" rx=".802" class="B D E"/><path d="M63 17.583c0-.598.485-1.083 1.083-1.083h11.333c.598 0 1.083.485 1.083 1.083v9.75H63v-9.75z" class="C"/><use xlink:href="#D" class="B"/><rect x="65.252" y="29.5" width="9" height="1.5" rx=".75" class="C"/><rect x="13.781" y="37.031" width="12.938" height="16.688" rx=".802" class="B D E"/><path d="M13.5 37.833c0-.598.485-1.083 1.083-1.083h11.333c.598 0 1.083.485 1.083 1.083v9.75H13.5v-9.75z" class="C"/><use xlink:href="#B" y="20.25" class="B"/><rect x="15.752" y="49.75" width="9" height="1.5" rx=".75" class="C"/><rect x="30.281" y="37.031" width="12.938" height="16.688" rx=".802" class="B D E"/><path d="M30 37.833c0-.598.485-1.083 1.083-1.083h11.333c.598 0 1.083.485 1.083 1.083v9.75H30v-9.75z" class="C"/><use xlink:href="#B" x="16.5" y="20.25" class="B"/><rect x="32.252" y="49.75" width="9" height="1.5" rx=".75" class="C"/><rect x="46.781" y="37.031" width="12.938" height="16.688" rx=".802" class="B D E"/><use xlink:href="#C" y="20.25" class="C"/><use xlink:href="#B" x="33" y="20.25" class="B"/><rect x="48.752" y="49.75" width="9" height="1.5" rx=".75" class="C"/><rect x="63.281" y="37.031" width="12.938" height="16.688" rx=".802" class="B D E"/><path d="M63 37.833c0-.598.485-1.083 1.083-1.083h11.333c.598 0 1.083.485 1.083 1.083v9.75H63v-9.75z" class="C"/><use xlink:href="#D" y="20.25" class="B"/><rect x="65.252" y="49.75" width="9" height="1.5" rx=".75" class="C"/><g class="D"><path d="M81.75 38.25l3.375-3.375L81.75 31.5m-73.5.75l-3.375 3.375L8.25 39" stroke-width="1.5" stroke-linecap="round" stroke-linejoin="round"/><rect x="22.688" y="6.188" width="8.625" height="5.625" rx=".788" class="C F"/></g><rect x="24.75" y="8.25" width="4.5" height="1.5" rx=".75" class="B"/><rect x="34.688" y="6.188" width="16.125" height="5.625" rx=".788" class="C D F"/><rect x="37.5" y="8.25" width="10.5" height="1.5" rx=".75" class="B"/><rect x="54.188" y="6.188" width="13.125" height="5.625" rx=".788" class="C D F"/><rect x="56.25" y="8.25" width="9" height="1.5" rx=".75" class="B"/><defs ><path id="B" d="M24.582 20.729l-2.076-1.884-1.038-.178c0 .587-.527 1.065-1.204 1.065s-1.204-.478-1.204-1.065l-1.038.178-2.107 1.83 1.429 1.297.692-.628v3.823h4.469v-3.755l.662.601 1.414-1.284z"/><path id="C" d="M46.5 17.583c0-.598.485-1.083 1.083-1.083h11.333c.598 0 1.083.485 1.083 1.083v9.75H46.5v-9.75z"/><path id="D" d="M74.082 20.729l-2.076-1.884-1.038-.178c0 .587-.527 1.065-1.204 1.065s-1.204-.478-1.204-1.065l-1.038.178-2.106 1.83 1.429 1.297.692-.628v3.823h4.469v-3.755l.662.601 1.414-1.284z"/></defs></svg>