<?xml version="1.0" encoding="utf-8"?>
<!-- Generator: Adobe Illustrator 24.0.0, SVG Export Plug-In . SVG Version: 6.00 Build 0)  -->
<svg version="1.1" id="Layer_1" xmlns="http://www.w3.org/2000/svg" xmlns:xlink="http://www.w3.org/1999/xlink" x="0px" y="0px"
	 viewBox="0 0 180.8 29.6" style="enable-background:new 0 0 180.8 29.6;" xml:space="preserve">
<style type="text/css">
	.st0{fill:url(#SVGID_1_);}
	.st1{fill:#FFFFFF;}
</style>
<g>
	<path d="M44.5,7c0.8,0.4,1.4,1,1.9,1.8c0.4,0.8,0.7,1.7,0.7,2.7s-0.2,1.9-0.7,2.7s-1.1,1.4-1.9,1.8c-0.8,0.4-1.8,0.6-2.8,0.6h-3.4
		c-0.1,0-0.1,0-0.1,0.1v6.1c0,0.1,0,0.1-0.1,0.2s-0.1,0.1-0.2,0.1H35c-0.1,0-0.1,0-0.2-0.1c-0.1-0.1-0.1-0.1-0.1-0.2V6.7
		c0-0.1,0-0.1,0.1-0.2s0.1-0.1,0.2-0.1h6.8C42.8,6.4,43.7,6.6,44.5,7z M43,13.3c0.4-0.4,0.7-1,0.7-1.7s-0.2-1.3-0.7-1.7
		c-0.4-0.4-1-0.6-1.8-0.6h-3c-0.1,0-0.1,0-0.1,0.1v4.4c0,0.1,0,0.1,0.1,0.1h3C42,14,42.6,13.7,43,13.3z"/>
	<path d="M58,23l-3-6.6c0-0.1-0.1-0.1-0.1-0.1h-2.2c-0.1,0-0.1,0-0.1,0.1V23c0,0.1,0,0.1-0.1,0.2s-0.1,0.1-0.2,0.1h-2.8
		c-0.1,0-0.1,0-0.2-0.1c-0.1-0.1-0.1-0.1-0.1-0.2V6.7c0-0.1,0-0.1,0.1-0.2s0.1-0.1,0.2-0.1h6.9c1,0,1.9,0.2,2.7,0.6s1.4,1,1.8,1.8
		c0.4,0.8,0.6,1.7,0.6,2.7c0,1.1-0.3,2-0.8,2.8s-1.3,1.3-2.3,1.6c-0.1,0-0.1,0.1-0.1,0.2l3.3,6.8c0,0.1,0,0.1,0,0.1
		c0,0.1-0.1,0.2-0.3,0.2h-3C58.2,23.2,58.1,23.1,58,23z M52.5,9.4v4.1c0,0.1,0,0.1,0.1,0.1h3.1c0.7,0,1.2-0.2,1.6-0.6
		s0.6-0.9,0.6-1.6c0-0.6-0.2-1.2-0.6-1.6c-0.4-0.4-1-0.6-1.6-0.6h-3.1C52.6,9.3,52.5,9.3,52.5,9.4z"/>
	<path d="M64,23.1c-0.1-0.1-0.1-0.1-0.1-0.2V6.7c0-0.1,0-0.1,0.1-0.2s0.1-0.1,0.2-0.1H67c0.1,0,0.1,0,0.2,0.1s0.1,0.1,0.1,0.2v16.2
		c0,0.1,0,0.1-0.1,0.2s-0.1,0.1-0.2,0.1h-2.8C64.1,23.2,64,23.2,64,23.1z"/>
	<path d="M81.3,6.4h2.8c0.1,0,0.1,0,0.2,0.1s0.1,0.1,0.1,0.2v16.2c0,0.1,0,0.1-0.1,0.2s-0.1,0.1-0.2,0.1h-2.8c-0.1,0-0.1,0-0.2-0.1
		c0,0-0.1-0.1-0.1-0.2V12.3c0-0.1,0-0.1,0-0.1s-0.1,0-0.1,0.1l-2.5,4c-0.1,0.1-0.2,0.2-0.3,0.2h-1.4c-0.1,0-0.3-0.1-0.3-0.2l-2.5-4
		l-0.1-0.1c0,0,0,0,0,0.1v10.6c0,0.1,0,0.1-0.1,0.2s-0.1,0.1-0.2,0.1h-2.8c-0.1,0-0.1,0-0.2-0.1s-0.1-0.1-0.1-0.2V6.7
		c0-0.1,0-0.1,0.1-0.2s0.1-0.1,0.2-0.1h2.8c0.1,0,0.3,0.1,0.3,0.2l3.6,5.6c0,0.1,0.1,0.1,0.1,0L81,6.6C81.1,6.5,81.2,6.4,81.3,6.4z"
		/>
	<path d="M98.9,9.2c-0.1,0.1-0.1,0.1-0.2,0.1h-7.9c-0.1,0-0.1,0-0.1,0.1v3.7c0,0.1,0,0.1,0.1,0.1H96c0.1,0,0.1,0,0.2,0.1
		s0.1,0.1,0.1,0.2v2.3c0,0.1,0,0.1-0.1,0.2s-0.1,0.1-0.2,0.1h-5.2c-0.1,0-0.1,0-0.1,0.1v3.9c0,0.1,0,0.1,0.1,0.1h7.9
		c0.1,0,0.1,0,0.2,0.1s0.1,0.1,0.1,0.2v2.3c0,0.1,0,0.1-0.1,0.2s-0.1,0.1-0.2,0.1H87.6c-0.1,0-0.1,0-0.2-0.1s-0.1-0.1-0.1-0.2V6.7
		c0-0.1,0-0.1,0.1-0.2s0.1-0.1,0.2-0.1h11.1c0.1,0,0.1,0,0.2,0.1S99,6.6,99,6.7V9C99,9.1,99,9.2,98.9,9.2z"/>
	<path d="M107.6,22.8c-1-0.4-1.7-1-2.2-1.8s-0.8-1.6-0.8-2.7v-0.5c0-0.1,0-0.1,0.1-0.2s0.1-0.1,0.2-0.1h2.7c0.1,0,0.1,0,0.2,0.1
		s0.1,0.1,0.1,0.2v0.4c0,0.6,0.3,1.2,0.9,1.6s1.4,0.7,2.4,0.7c0.8,0,1.5-0.2,1.9-0.5s0.6-0.8,0.6-1.3c0-0.4-0.1-0.7-0.4-1
		s-0.6-0.5-1-0.7s-1.1-0.5-2.1-0.8c-1.1-0.4-2-0.7-2.7-1.1s-1.4-0.9-1.9-1.6s-0.8-1.5-0.8-2.5s0.2-1.8,0.7-2.5s1.2-1.3,2.1-1.7
		c0.9-0.4,1.9-0.6,3-0.6c1.2,0,2.3,0.2,3.3,0.6s1.7,1,2.2,1.8s0.8,1.7,0.8,2.7v0.4c0,0.1,0,0.1-0.1,0.2c-0.1,0.1-0.1,0.1-0.2,0.1
		h-2.8c-0.1,0-0.1,0-0.2-0.1s-0.1-0.1-0.1-0.2v-0.2c0-0.7-0.3-1.2-0.8-1.7c-0.6-0.5-1.3-0.7-2.3-0.7c-0.8,0-1.3,0.2-1.8,0.5
		c-0.4,0.3-0.6,0.8-0.6,1.3c0,0.4,0.1,0.7,0.4,1c0.2,0.3,0.6,0.5,1.1,0.7s1.2,0.5,2.3,0.9c1.1,0.4,2,0.8,2.7,1.1
		c0.6,0.3,1.2,0.8,1.8,1.4c0.5,0.6,0.8,1.5,0.8,2.5c0,1.5-0.6,2.7-1.7,3.6s-2.6,1.3-4.5,1.3C109.6,23.4,108.5,23.2,107.6,22.8z"/>
	<path d="M119.5,23.1c-0.1-0.1-0.1-0.1-0.1-0.2V6.7c0-0.1,0-0.1,0.1-0.2s0.1-0.1,0.2-0.1h2.8c0.1,0,0.1,0,0.2,0.1s0.1,0.1,0.1,0.2
		v13.5c0,0.1,0,0.1,0.1,0.1h7.8c0.1,0,0.1,0,0.2,0.1c0.1,0.1,0.1,0.1,0.1,0.2v2.3c0,0.1,0,0.1-0.1,0.2s-0.1,0.1-0.2,0.1h-11.1
		C119.6,23.2,119.6,23.2,119.5,23.1z"/>
	<path d="M133.3,23.1c-0.1-0.1-0.1-0.1-0.1-0.2V6.7c0-0.1,0-0.1,0.1-0.2s0.1-0.1,0.2-0.1h2.8c0.1,0,0.1,0,0.2,0.1
		c0.1,0.1,0.1,0.1,0.1,0.2v16.2c0,0.1,0,0.1-0.1,0.2s-0.1,0.1-0.2,0.1h-2.8C133.4,23.2,133.3,23.2,133.3,23.1z"/>
	<path d="M139.6,23.1c-0.1-0.1-0.1-0.1-0.1-0.2V6.7c0-0.1,0-0.1,0.1-0.2s0.1-0.1,0.2-0.1h6c1.2,0,2.3,0.2,3.2,0.6s1.6,1,2.1,1.8
		s0.7,1.7,0.7,2.7v6.6c0,1-0.2,1.9-0.7,2.7s-1.2,1.4-2.1,1.8c-0.9,0.4-2,0.6-3.2,0.6h-6C139.7,23.2,139.6,23.2,139.6,23.1z
		 M143,20.3h2.9c0.7,0,1.3-0.2,1.8-0.7s0.7-1.2,0.7-2V12c0-0.8-0.2-1.5-0.7-2s-1.1-0.7-1.8-0.7H143c-0.1,0-0.1,0-0.1,0.1v10.8
		C142.9,20.2,142.9,20.3,143,20.3z"/>
	<path d="M165.9,9.2c-0.1,0.1-0.1,0.1-0.2,0.1h-7.9c-0.1,0-0.1,0-0.1,0.1v3.7c0,0.1,0,0.1,0.1,0.1h5.2c0.1,0,0.1,0,0.2,0.1
		c0.1,0.1,0.1,0.1,0.1,0.2v2.3c0,0.1,0,0.1-0.1,0.2s-0.1,0.1-0.2,0.1h-5.2c-0.1,0-0.1,0-0.1,0.1v3.9c0,0.1,0,0.1,0.1,0.1h7.9
		c0.1,0,0.1,0,0.2,0.1s0.1,0.1,0.1,0.2v2.3c0,0.1,0,0.1-0.1,0.2s-0.1,0.1-0.2,0.1h-11.1c-0.1,0-0.1,0-0.2-0.1
		c-0.1-0.1-0.1-0.1-0.1-0.2V6.7c0-0.1,0-0.1,0.1-0.2s0.1-0.1,0.2-0.1h11.1c0.1,0,0.1,0,0.2,0.1s0.1,0.1,0.1,0.2V9
		C166,9.1,165.9,9.2,165.9,9.2z"/>
	<path d="M177.2,23l-3-6.6c0-0.1-0.1-0.1-0.1-0.1h-2.2c-0.1,0-0.1,0-0.1,0.1V23c0,0.1,0,0.1-0.1,0.2s-0.1,0.1-0.2,0.1h-2.8
		c-0.1,0-0.1,0-0.2-0.1c-0.1-0.1-0.1-0.1-0.1-0.2V6.7c0-0.1,0-0.1,0.1-0.2s0.1-0.1,0.2-0.1h6.9c1,0,1.9,0.2,2.7,0.6s1.4,1,1.8,1.8
		s0.6,1.7,0.6,2.7c0,1.1-0.3,2-0.8,2.8s-1.3,1.3-2.3,1.6c-0.1,0-0.1,0.1-0.1,0.2l3.3,6.8c0,0.1,0,0.1,0,0.1c0,0.1-0.1,0.2-0.3,0.2
		h-3C177.4,23.2,177.3,23.1,177.2,23z M171.7,9.4v4.1c0,0.1,0,0.1,0.1,0.1h3.1c0.7,0,1.2-0.2,1.6-0.6s0.6-0.9,0.6-1.6
		c0-0.6-0.2-1.2-0.6-1.6c-0.4-0.4-1-0.6-1.6-0.6h-3.1C171.8,9.3,171.7,9.3,171.7,9.4z"/>
</g>
<g>
	
		<linearGradient id="SVGID_1_" gradientUnits="userSpaceOnUse" x1="29.2719" y1="362.6753" x2="0.5361" y2="333.9395" gradientTransform="matrix(1 0 0 -1 0 363)">
		<stop  offset="0" style="stop-color:#FC6A2C"/>
		<stop  offset="1" style="stop-color:#FE516B"/>
	</linearGradient>
	<path class="st0" d="M28.4,29.6H1.2c-0.7,0-1.2-0.5-1.2-1.2V1.2C0,0.5,0.5,0,1.2,0h27.2c0.7,0,1.2,0.5,1.2,1.2v27.2
		C29.6,29.1,29.1,29.6,28.4,29.6z"/>
	<g>
		<path class="st1" d="M17.3,20.3v2.5c0,0.3-0.2,0.5-0.5,0.5H7.9c-0.3,0-0.5-0.2-0.5-0.5v-2.5c0-0.3,0.2-0.5,0.5-0.5h8.9
			C17.1,19.8,17.3,20,17.3,20.3z"/>
		<path class="st1" d="M22.2,6.8v2.5c0,0.3-0.2,0.5-0.5,0.5H7.9c-0.3,0-0.5-0.2-0.5-0.5V6.8c0-0.3,0.2-0.5,0.5-0.5h13.8
			C22,6.3,22.2,6.5,22.2,6.8z"/>
		<path class="st1" d="M22.2,13.5v2.5c0,0.3-0.2,0.5-0.5,0.5H7.9c-0.3,0-0.5-0.2-0.5-0.5v-2.5c0-0.3,0.2-0.5,0.5-0.5h13.8
			C22,13,22.2,13.3,22.2,13.5z"/>
		<path class="st1" d="M10.9,6.8v9.3c0,0.3-0.2,0.5-0.5,0.5H7.9c-0.3,0-0.5-0.2-0.5-0.5V6.8c0-0.3,0.2-0.5,0.5-0.5h2.5
			C10.7,6.3,10.9,6.5,10.9,6.8z"/>
		<path class="st1" d="M22.2,13.5v9.3c0,0.3-0.2,0.5-0.5,0.5h-2.5c-0.3,0-0.5-0.2-0.5-0.5v-9.3c0-0.3,0.2-0.5,0.5-0.5h2.5
			C22,13,22.2,13.3,22.2,13.5z"/>
	</g>
</g>
</svg>
